<svg width="49" height="48" viewBox="0 0 49 48" fill="none" xmlns="http://www.w3.org/2000/svg">
<path d="M43.7 20.6H5.3C4.86 20.6 4.5 20.96 4.5 21.4V24.6C4.5 25.04 4.86 25.4 5.3 25.4H6.404V43.2C6.404 43.64 6.756 44 7.204 44H41.804C42.244 44 42.604 43.64 42.604 43.2V25.4H43.7C44.14 25.4 44.5 25.04 44.5 24.6V21.4C44.5 20.96 44.14 20.6 43.7 20.6ZM33.6152 33.3336C33.6152 33.5458 33.5309 33.7493 33.3809 33.8993C33.2309 34.0493 33.0274 34.1336 32.8152 34.1336C32.0624 34.1336 31.4488 34.7464 31.4488 35.5C31.4488 36.2536 32.0624 36.8664 32.8152 36.8664C33.0274 36.8664 33.2309 36.9507 33.3809 37.1007C33.5309 37.2508 33.6152 37.4542 33.6152 37.6664V40.3336C33.6152 40.5458 33.5309 40.7493 33.3809 40.8993C33.2309 41.0493 33.0274 41.1336 32.8152 41.1336H16.1936C15.9814 41.1336 15.7779 41.0493 15.6279 40.8993C15.4779 40.7493 15.3936 40.5458 15.3936 40.3336V37.6664C15.3936 37.4542 15.4779 37.2508 15.6279 37.1007C15.7779 36.9507 15.9814 36.8664 16.1936 36.8664C16.9464 36.8664 17.56 36.2536 17.56 35.5C17.56 34.7464 16.9464 34.1336 16.1936 34.1336C15.9814 34.1336 15.7779 34.0493 15.6279 33.8993C15.4779 33.7493 15.3936 33.5458 15.3936 33.3336V30.6664C15.3936 30.4542 15.4779 30.2508 15.6279 30.1007C15.7779 29.9507 15.9814 29.8664 16.1936 29.8664H32.8152C33.0274 29.8664 33.2309 29.9507 33.3809 30.1007C33.5309 30.2508 33.6152 30.4542 33.6152 30.6664V33.3336ZM32.412 18.992C32.412 16.264 30.188 14.04 27.452 14.04H21.548C18.812 14.04 16.588 16.264 16.588 18.992V19H32.412V18.992Z" fill="#5D5D5D"/>
<path d="M24.5007 12.896C26.9573 12.896 28.9487 10.9046 28.9487 8.448C28.9487 5.99144 26.9573 4 24.5007 4C22.0442 4 20.0527 5.99144 20.0527 8.448C20.0527 10.9046 22.0442 12.896 24.5007 12.896Z" fill="#5D5D5D"/>
<path d="M16.9941 32.6433C18.2421 32.9929 19.1605 34.1409 19.1605 35.5001C19.1605 36.8593 18.2421 38.0073 16.9941 38.3569V39.5329H32.0157V38.3569C30.7677 38.0073 29.8493 36.8593 29.8493 35.5001C29.8493 34.1409 30.7669 32.9929 32.0157 32.6433V31.4673H16.9941V32.6433ZM22.3797 33.2497H26.6293C26.8415 33.2497 27.045 33.334 27.195 33.484C27.3451 33.634 27.4293 33.8375 27.4293 34.0497C27.4293 34.2619 27.3451 34.4653 27.195 34.6154C27.045 34.7654 26.8415 34.8497 26.6293 34.8497H22.3805C22.1684 34.8497 21.9649 34.7654 21.8149 34.6154C21.6648 34.4653 21.5805 34.2619 21.5805 34.0497C21.5805 33.8375 21.6648 33.634 21.8149 33.484C21.9649 33.334 22.1676 33.2497 22.3797 33.2497ZM22.3797 36.1505H26.6293C26.8415 36.1505 27.045 36.2348 27.195 36.3848C27.3451 36.5348 27.4293 36.7383 27.4293 36.9505C27.4293 37.1627 27.3451 37.3661 27.195 37.5162C27.045 37.6662 26.8415 37.7505 26.6293 37.7505H22.3805C22.1684 37.7505 21.9649 37.6662 21.8149 37.5162C21.6648 37.3661 21.5805 37.1627 21.5805 36.9505C21.5805 36.7383 21.6648 36.5348 21.8149 36.3848C21.9649 36.2348 22.1676 36.1505 22.3797 36.1505Z" fill="#5D5D5D"/>
</svg>
