<svg width="49" height="48" viewBox="0 0 49 48" fill="none" xmlns="http://www.w3.org/2000/svg">
<path d="M29.757 3.80968C29.5107 3.83747 29.3376 4.08379 29.3806 4.344L30.1612 7.94274C30.2042 8.18905 30.4505 8.34695 30.6955 8.2901L32.3149 7.92758C32.4272 7.90016 32.5252 7.83164 32.5895 7.73554C32.6538 7.63943 32.6798 7.52272 32.6623 7.40842L32.3288 5.7461C32.0762 4.41347 31.077 3.65179 29.757 3.80968ZM41.5978 13.1874C42.0905 13.3301 43.0227 13.3149 43.2147 13.2152C43.7541 12.9322 42.8522 12.1364 42.6096 11.9773C41.6686 11.352 40.6366 10.8341 39.6576 10.2695C39.4656 10.1558 39.5856 10.2265 38.4437 8.96842C38.037 8.56042 37.4711 8.53895 37.0707 8.94063C34.3322 11.7335 34.3296 11.6931 34.1793 11.9166C33.9714 12.234 33.8833 12.6151 33.931 12.9915C33.9787 13.3679 34.159 13.715 34.4395 13.9705C35.7835 15.1554 37.5178 15.2135 37.5178 15.2135C38.3856 15.3764 38.3149 16.1634 38.9389 16.2139C39.2964 16.2429 39.6109 16.0977 41.8884 15.3651C42.0513 15.312 43.3233 14.8307 43.0467 14.5187C42.9519 14.4139 42.6235 14.4808 42.4442 14.4985C42.2522 14.52 41.7974 14.472 41.5258 14.4189C41.0863 14.3343 40.5722 14.0324 40.8046 13.5006C40.9486 13.1684 41.2808 13.0952 41.5978 13.1874ZM37.3928 11.7676C37.2506 11.7676 37.1142 11.7111 37.0136 11.6105C36.9131 11.51 36.8566 11.3736 36.8566 11.2314C36.8566 11.0892 36.9131 10.9528 37.0136 10.8522C37.1142 10.7516 37.2506 10.6952 37.3928 10.6952C37.535 10.6952 37.6714 10.7516 37.7719 10.8522C37.8725 10.9528 37.929 11.0892 37.929 11.2314C37.929 11.3736 37.8725 11.51 37.7719 11.6105C37.6714 11.7111 37.535 11.7676 37.3928 11.7676Z" fill="#5D5D5D"/>
<path d="M37.4911 5.24212C37.0402 5.18275 35.6128 5.10696 34.9079 5.14612C34.4987 5.16885 33.8936 5.15117 33.7054 5.60212C33.6531 5.72926 33.6451 5.8703 33.6827 6.00254C34.2599 8.05264 33.5955 8.87749 32.3096 9.25264C31.6997 9.43047 31.0665 9.51564 30.4313 9.50528C30.3447 9.50512 30.2591 9.52391 30.1805 9.56034C30.102 9.59676 30.0323 9.64994 29.9765 9.71614C29.9206 9.78234 29.8799 9.85995 29.8573 9.94354C29.8346 10.0271 29.8305 10.1147 29.8452 10.2C30.5437 14.179 29.4865 15.6985 28.2953 19.2821C28.1412 19.7495 27.9719 20.2371 27.6044 20.563C26.8275 21.2552 25.5858 21.0518 24.6549 20.9116C21.1117 20.3773 17.4498 20.1436 13.9079 20.8143C10.7715 21.408 7.23468 22.7495 6.15216 26.0817C5.21742 28.963 5.61279 32.1322 6.51468 34.9705C7.44563 37.896 8.8389 41.1575 11.2389 43.1849C12.4692 44.2257 13.3787 43.7053 13.5934 42.331C13.8928 40.4173 12.5627 38.6362 13.0679 36.7478C13.3282 35.7764 14.0835 34.9933 14.9602 34.5044C16.9155 33.4156 20.9955 33.1668 23.2326 33.2766C24.7105 33.3486 26.7063 33.3562 27.9151 34.2935C30.7888 36.5242 28.5416 40.0914 29.4145 42.8703C29.8174 44.155 31.0692 44.6388 32.1265 43.7785C33.0044 43.0636 33.2482 41.8889 33.5854 40.8708C34.188 39.0518 35.1909 37.3945 36.2204 35.7764C39.0372 31.3491 39.8557 29.6413 39.0776 23.1625C38.9172 21.8236 38.8919 20.4758 38.8503 19.1305C38.8376 18.7566 38.9513 18.0063 38.7997 17.6034C38.7543 17.4846 38.6355 17.4089 38.5181 17.3609C35.8528 16.2771 34.7741 15.912 33.8772 15.1958C33.1698 14.6324 32.6141 13.8101 32.585 12.9057C32.5408 11.5844 33.5703 10.5032 34.5277 9.58991C36.305 7.89475 36.6069 7.53601 37.1879 7.37307C37.6086 7.25433 38.1492 7.35033 38.4132 7.44633C38.5774 7.50822 38.9185 7.7558 39.2456 7.6017C39.5917 7.43875 39.5639 6.94233 39.4907 6.63159C39.2734 5.71454 38.3336 5.35328 37.4911 5.24212ZM15.7648 23.7954C9.17868 24.4004 8.55342 29.8371 8.53068 30.0682C8.51028 30.2234 8.43039 30.3647 8.30786 30.4621C8.18532 30.5596 8.02973 30.6056 7.8739 30.5905C7.71808 30.5755 7.57419 30.5004 7.47261 30.3813C7.37103 30.2622 7.31969 30.1083 7.32942 29.952C7.33447 29.8863 8.05068 23.2914 15.6536 22.5929C15.8074 22.5885 15.957 22.6428 16.0721 22.7448C16.1873 22.8468 16.2592 22.9888 16.2734 23.142C16.2875 23.2951 16.2428 23.4479 16.1483 23.5693C16.0539 23.6907 15.9167 23.7715 15.7648 23.7954ZM32.8578 35.1891L35.5559 29.7689C36.0107 28.8518 36.2532 27.8261 36.2532 26.803V20.8409C36.2495 20.7593 36.2623 20.6779 36.2909 20.6015C36.3196 20.525 36.3634 20.4552 36.4198 20.3962C36.4761 20.3372 36.5439 20.2902 36.6189 20.2581C36.694 20.226 36.7748 20.2095 36.8564 20.2095C36.938 20.2095 37.0188 20.226 37.0938 20.2581C37.1688 20.2902 37.2366 20.3372 37.293 20.3962C37.3493 20.4552 37.3932 20.525 37.4218 20.6015C37.4504 20.6779 37.4633 20.7593 37.4595 20.8409V26.803C37.4595 28.0118 37.1753 29.2244 36.6372 30.3057L33.9391 35.7272C33.8655 35.8665 33.7405 35.9715 33.5906 36.0198C33.4407 36.0682 33.2778 36.056 33.1367 35.986C32.9956 35.9159 32.8875 35.7935 32.8354 35.6449C32.7833 35.4962 32.7914 35.3319 32.8578 35.1891Z" fill="#5D5D5D"/>
</svg>
