<svg width="64" height="34" viewBox="0 0 64 34" fill="none" xmlns="http://www.w3.org/2000/svg">
<path d="M41.4278 23.5198L40.4983 24.4493C40.1 24.8476 39.4361 24.8476 39.0378 24.4493L33.7266 19.1381L28.4154 24.4493C28.017 24.8476 27.3531 24.8476 26.9548 24.4493L26.0253 23.5198C25.627 23.1215 25.627 22.4576 26.0253 22.0592L31.3365 16.748L26.0253 11.4368C25.627 11.0385 25.627 10.3746 26.0253 9.97626L26.9548 9.0468C27.3531 8.64846 28.017 8.64846 28.4154 9.0468L33.7266 14.358L39.0378 9.0468C39.4361 8.64846 40.1 8.64846 40.4983 9.0468L41.4278 9.97626C41.8261 10.3746 41.8261 11.0385 41.4278 11.4368L36.1166 16.748L41.4278 22.0592C41.8261 22.4576 41.8261 23.1215 41.4278 23.5198Z" fill="#5D5D5D"/>
<path d="M58.6194 1.74805H12.8959C11.7338 1.74805 10.9591 2.27902 10.3134 3.20822L1.92025 16.2171C1.662 16.6153 1.662 17.0135 1.92025 17.279L10.3134 30.2879C10.9591 31.0843 11.7338 31.748 12.8959 31.748H58.4903C60.298 31.748 61.7184 30.2879 61.7184 28.4295V5.06663C61.8475 3.20822 60.4272 1.74805 58.6194 1.74805Z" stroke="#5D5D5D" stroke-width="3" stroke-linejoin="round"/>
</svg>
