<svg width="48" height="48" viewBox="0 0 48 48" fill="none" xmlns="http://www.w3.org/2000/svg">
<g clip-path="url(#clip0_747_6579)">
<path d="M9.04661 27.6621C7.19019 27.6621 5.68111 29.1164 5.68111 30.9035C5.68111 32.6906 7.19215 34.1448 9.04661 34.1448C10.9011 34.1448 12.4121 32.6906 12.4121 30.9035C12.4121 29.1164 10.9011 27.6621 9.04661 27.6621ZM38.8631 27.6621C37.0067 27.6621 35.4976 29.1164 35.4976 30.9035C35.4976 32.6906 37.0087 34.1448 38.8631 34.1448C40.7176 34.1448 42.2286 32.6906 42.2286 30.9035C42.2286 29.1164 40.7176 27.6621 38.8631 27.6621ZM38.8631 25.8107C40.5017 25.8107 41.9794 26.5331 42.9508 27.664H45.025C46.642 27.664 48 29.0105 48 30.616V31.2817C48 32.8116 46.6126 34.1467 45.025 34.1467H42.9508C41.9794 35.2776 40.5017 36 38.8631 36C37.2245 36 35.7469 35.2776 34.7755 34.1467H13.1343C12.1629 35.2776 10.6852 36 9.04661 36C7.40801 36 5.93034 35.2776 4.95895 34.1467H4.5076C4.36239 34.1467 4.21128 34.1165 4.08765 34.0597H2.97498C1.3305 34.0597 0 32.7776 0 31.1947V30.529C0 28.9462 1.3305 27.664 2.97498 27.664H4.95895C5.93034 26.5331 7.40801 25.8107 9.04661 25.8107C10.6852 25.8107 12.1629 26.5331 13.1343 27.664H34.7755C35.7469 26.5331 37.2245 25.8107 38.8631 25.8107ZM18.6643 12.0019C18.9096 12.0019 19.1666 12.1097 19.355 12.2912L24.6456 17.3859C25.0224 17.749 25.0224 18.3257 24.6456 18.6888C24.4572 18.8704 24.2002 18.9498 23.9549 18.9498C23.7096 18.9498 23.4505 18.8704 23.2641 18.6888L21.3096 16.8072L17.8224 20.1658C19.3491 21.0905 21.9159 22.1344 25.878 22.1344C31.9948 22.1344 34.7853 19.71 35.4957 18.9782V18.1102C35.4957 16.9093 35.843 15.8125 36.5181 14.8385L37.5699 13.2746C37.8584 12.8472 38.4451 12.7073 38.8926 12.9853C39.338 13.2633 39.4813 13.8287 39.1928 14.2599L38.1115 15.8522C37.6366 16.5368 37.4208 17.2705 37.4208 18.1102V18.4279H42.8919C44.662 18.4279 46.0474 19.7611 46.0474 21.4669V25.9242C45.7099 25.8486 45.3822 25.8088 45.025 25.8088H43.7632C42.4366 24.625 40.694 23.9556 38.8631 23.9556C37.0322 23.9556 35.2896 24.625 33.963 25.8088H13.9447C12.6182 24.625 10.8756 23.9556 9.04465 23.9556C7.21374 23.9556 5.47114 24.625 4.14456 25.8088H2.97302C2.74734 25.8088 2.52952 25.8372 2.31169 25.8675C4.52723 21.6711 13.8407 18.808 15.026 18.4562C15.3989 18.3447 15.807 18.4751 16.0484 18.7739C16.0523 18.7796 16.1504 18.8685 16.2898 19.0046L19.9261 15.5023L17.9715 13.5923C17.5948 13.2292 17.5948 12.6524 17.9715 12.2893C18.1599 12.1078 18.417 12 18.6623 12L18.6643 12.0019Z" fill="#431D05"/>
</g>
<defs>
<clipPath id="clip0_747_6579">
<rect width="48" height="48" fill="white"/>
</clipPath>
</defs>
</svg>
