<svg width="48" height="48" viewBox="0 0 48 48" fill="none" xmlns="http://www.w3.org/2000/svg">
<path d="M2 2C1.46957 2 0.960859 2.21071 0.585786 2.58579C0.210714 2.96086 0 3.46957 0 4C0 4.53043 0.210714 5.03914 0.585786 5.41421C0.960859 5.78929 1.46957 6 2 6H5.56C5.85071 6.00051 6.13392 6.09228 6.36968 6.26237C6.60544 6.43246 6.78184 6.67228 6.874 6.948L13.468 26.734C13.762 27.614 13.798 28.558 13.574 29.458L13.032 31.632C12.234 34.82 14.716 38 18 38H42C42.5304 38 43.0391 37.7893 43.4142 37.4142C43.7893 37.0391 44 36.5304 44 36C44 35.4696 43.7893 34.9609 43.4142 34.5858C43.0391 34.2107 42.5304 34 42 34H18C17.22 34 16.72 33.36 16.91 32.606L17.32 30.97C17.3891 30.6933 17.5486 30.4476 17.7732 30.2718C17.9979 30.0961 18.2748 30.0004 18.56 30H40C40.4203 30.0005 40.83 29.8686 41.1711 29.6231C41.5122 29.3775 41.7672 29.0307 41.9 28.632L47.23 12.632C47.3301 12.3313 47.3574 12.0112 47.3095 11.6979C47.2617 11.3846 47.14 11.0872 46.9547 10.8302C46.7693 10.5731 46.5255 10.3638 46.2434 10.2195C45.9613 10.0752 45.6489 9.99992 45.332 10H13.11C12.8189 9.99991 12.5353 9.90833 12.2991 9.73821C12.063 9.56809 11.8863 9.32804 11.794 9.052L9.898 3.368C9.7653 2.96959 9.51057 2.62305 9.1699 2.37752C8.82924 2.13198 8.41993 1.9999 8 2H2ZM16 40C14.9391 40 13.9217 40.4214 13.1716 41.1716C12.4214 41.9217 12 42.9391 12 44C12 45.0609 12.4214 46.0783 13.1716 46.8284C13.9217 47.5786 14.9391 48 16 48C17.0609 48 18.0783 47.5786 18.8284 46.8284C19.5786 46.0783 20 45.0609 20 44C20 42.9391 19.5786 41.9217 18.8284 41.1716C18.0783 40.4214 17.0609 40 16 40ZM40 40C38.9391 40 37.9217 40.4214 37.1716 41.1716C36.4214 41.9217 36 42.9391 36 44C36 45.0609 36.4214 46.0783 37.1716 46.8284C37.9217 47.5786 38.9391 48 40 48C41.0609 48 42.0783 47.5786 42.8284 46.8284C43.5786 46.0783 44 45.0609 44 44C44 42.9391 43.5786 41.9217 42.8284 41.1716C42.0783 40.4214 41.0609 40 40 40Z" fill="white"/>
</svg>
