<svg width="48" height="48" viewBox="0 0 48 48" fill="none" xmlns="http://www.w3.org/2000/svg">
<path fill-rule="evenodd" clip-rule="evenodd" d="M24 46C36.15 46 46 36.15 46 24C46 11.85 36.15 2 24 2C11.85 2 2 11.85 2 24C2 36.15 11.85 46 24 46ZM14.586 33.414C14.2111 33.0389 14.0004 32.5303 14.0004 32C14.0004 31.4697 14.2111 30.9611 14.586 30.586L21.172 24L14.586 17.414C14.2217 17.0368 14.0201 16.5316 14.0247 16.0072C14.0292 15.4828 14.2395 14.9812 14.6104 14.6104C14.9812 14.2395 15.4828 14.0292 16.0072 14.0247C16.5316 14.0201 17.0368 14.2217 17.414 14.586L24 21.172L30.586 14.586C30.7705 14.395 30.9912 14.2426 31.2352 14.1378C31.4792 14.033 31.7416 13.9778 32.0072 13.9755C32.2728 13.9732 32.5361 14.0238 32.7819 14.1244C33.0277 14.2249 33.251 14.3734 33.4388 14.5612C33.6266 14.749 33.7751 14.9723 33.8756 15.2181C33.9762 15.4639 34.0268 15.7272 34.0245 15.9928C34.0222 16.2584 33.967 16.5208 33.8622 16.7648C33.7574 17.0088 33.605 17.2295 33.414 17.414L26.828 24L33.414 30.586C33.7783 30.9632 33.9799 31.4684 33.9753 31.9928C33.9708 32.5172 33.7605 33.0188 33.3896 33.3896C33.0188 33.7605 32.5172 33.9708 31.9928 33.9753C31.4684 33.9799 30.9632 33.7783 30.586 33.414L24 26.828L17.414 33.414C17.0389 33.7889 16.5303 33.9996 16 33.9996C15.4697 33.9996 14.9611 33.7889 14.586 33.414Z" fill="#E7E7E7"/>
</svg>
