<svg width="49" height="48" viewBox="0 0 49 48" fill="none" xmlns="http://www.w3.org/2000/svg">
<g clip-path="url(#clip0_1282_24141)">
<path d="M23.6725 46.3448H28.7417C28.8633 45.9291 29.0878 45.551 29.3946 45.2454L29.9503 44.6896H25.3276C24.4151 44.6896 23.6725 45.4321 23.6725 46.3448ZM3.81041 33.6088V34.9189C3.81041 36.6038 3.23075 38.2562 2.17831 39.5719L1.42869 40.5089C0.828577 41.2608 0.501185 42.194 0.500002 43.156C0.499211 43.9927 0.746897 44.8108 1.21166 45.5066L1.45044 45.8648C1.54876 46.0126 1.68212 46.1338 1.83865 46.2176C1.99518 46.3013 2.17 46.3451 2.34753 46.3449C2.57928 46.3449 2.80897 46.2683 2.99441 46.1291L5.13453 44.524C5.23707 44.4467 5.32032 44.3467 5.37776 44.2318C5.43519 44.117 5.46524 43.9904 5.46556 43.862V42.4022C5.46556 41.4558 5.9915 40.6048 6.83816 40.1815C7.75404 39.7235 8.5486 39.0553 9.15697 38.2315C7.13351 36.994 5.32725 35.4323 3.81041 33.6088Z" fill="#5D5D5D"/>
<path d="M47.2563 37.7376L39.3374 28.4213C36.502 25.0855 32.365 23.1724 27.9871 23.1724H15.4831C9.95936 23.1724 5.46546 18.6785 5.46546 13.1548C5.46546 10.8888 6.24508 8.66623 7.66061 6.8968L8.18898 6.23614L8.84364 6.38427C9.53917 6.54116 10.2499 6.62043 10.9629 6.62061H16.0677C16.6102 6.62061 17.0516 6.17746 17.0516 5.63277V5.6024C17.0516 5.38888 16.9752 5.18242 16.8363 5.0203L13.9857 1.6949C13.5304 1.16308 12.9652 0.736188 12.3292 0.443604C11.6931 0.15102 11.0012 -0.000317477 10.3011 5.00041e-07H10.3008C9.0048 5.00041e-07 7.78642 0.504656 6.86992 1.42106C2.76209 5.5289 0.5 10.9902 0.5 16.7991V19.862C0.5 25.7846 3.18171 31.3878 7.66127 35.13C7.30287 34.0476 7.12034 32.9148 7.12061 31.7746V31.4483H8.77577V31.7746C8.77577 33.5627 9.30001 35.2944 10.2919 36.7823C11.4657 38.543 12.0861 40.5922 12.0861 42.7081V43.9625C12.0861 44.6525 11.8173 45.3011 11.3294 45.7891L10.7026 46.4159C10.6162 46.5019 10.5476 46.6041 10.501 46.7168C10.4543 46.8294 10.4305 46.9502 10.4308 47.0721C10.4308 47.5837 10.8471 48.0001 11.3589 48.0001H16.2239C16.6802 48.0001 17.0515 47.6288 17.0515 47.1725V39.9196C17.0515 38.5812 17.3679 37.2408 17.9665 36.0437L19.4469 36.784C19.0021 37.6735 18.7507 38.6608 18.7125 39.655C19.2603 39.6999 19.8124 39.724 20.3618 39.724H29.7858C29.5355 39.0099 29.1965 38.3299 28.7767 37.7003C27.6029 35.9396 26.9825 33.8905 26.9825 31.7745V31.4482H28.6377V31.7745C28.6377 33.5626 29.1619 35.2943 30.1538 36.7822C31.3277 38.5429 31.948 40.5921 31.948 42.708V43.9624C31.948 44.6524 31.6792 45.301 31.1913 45.789L30.5645 46.4158C30.4781 46.5018 30.4096 46.604 30.3629 46.7167C30.3163 46.8293 30.2924 46.9501 30.2928 47.072C30.2928 47.5837 30.709 48 31.2208 48H36.0858C36.5421 48 36.9135 47.6287 36.9135 47.1724V39.9196C36.9135 38.5812 37.2299 37.2408 37.8285 36.0437L39.3089 36.784C38.8537 37.6941 38.6004 38.7067 38.5716 39.7241H42.7065C44.0755 39.7241 45.1893 40.838 45.1893 42.2069C45.1893 43.5759 44.0755 44.6897 42.7065 44.6897H38.5689V46.3448H43.276C46.1564 46.3448 48.4999 44.0013 48.4999 41.1208C48.4994 39.8813 48.0587 38.6823 47.2563 37.7376ZM11.2585 1.65515C11.368 1.654 11.4765 1.67455 11.578 1.71563C11.6794 1.7567 11.7717 1.81749 11.8495 1.89447C11.9273 1.97144 11.989 2.06308 12.0312 2.16408C12.0733 2.26508 12.095 2.37343 12.095 2.48287C12.095 2.59231 12.0733 2.70066 12.0312 2.80165C11.989 2.90265 11.9272 2.99428 11.8494 3.07125C11.7716 3.14822 11.6793 3.20899 11.5779 3.25006C11.4765 3.29112 11.3679 3.31166 11.2584 3.31049C11.0405 3.30816 10.8322 3.21993 10.6789 3.06495C10.5256 2.90998 10.4396 2.70078 10.4396 2.48278C10.4396 2.26478 10.5256 2.05559 10.6789 1.90063C10.8323 1.74567 11.0406 1.65746 11.2585 1.65515Z" fill="#5D5D5D"/>
</g>
<defs>
<clipPath id="clip0_1282_24141">
<rect width="48" height="48" fill="white" transform="translate(0.5)"/>
</clipPath>
</defs>
</svg>
