<svg width="48" height="48" viewBox="0 0 48 48" fill="none" xmlns="http://www.w3.org/2000/svg">
<g clip-path="url(#clip0_747_6654)">
<path d="M21.2064 11.1156C21.7172 11.9836 21.9687 12.9094 21.6841 13.9066C21.493 14.572 21.0309 15.0562 20.4597 15.4612C20.4792 15.494 20.4987 15.5268 20.5182 15.5596C21.1304 15.4014 21.7582 15.2799 22.3509 15.0735C23.468 14.6839 24.4175 14.0879 24.7899 12.9191C25.0863 11.9894 24.8543 11.1079 24.4799 10.2515C23.9398 9.01905 23.2887 7.82512 22.8402 6.56562C22.1851 4.72555 22.462 2.97613 23.7995 1.44853C24.2323 0.954754 24.6905 0.484128 25.1409 0C24.2537 0.391545 23.3023 0.754159 22.4113 1.22093C21.2668 1.82078 20.2725 2.62123 19.6232 3.73029C18.6504 5.38712 18.8687 7.06132 19.709 8.68344C20.1438 9.52439 20.7268 10.294 21.2083 11.1137L21.2064 11.1156Z" fill="#5D5D5D"/>
<path d="M25.9521 15.0176C26.5527 14.8633 27.1298 14.6685 27.6484 14.3792C29.2023 13.5151 29.6273 12.2787 28.9371 10.6991C28.7519 10.2728 28.4867 9.87931 28.2703 9.46462C27.855 8.66224 27.8511 7.91194 28.6408 7.26965C26.8549 7.31787 25.9229 8.36135 26.5488 9.86967C26.8081 10.4965 27.1025 11.1157 27.2877 11.7637C27.5723 12.759 27.3949 13.6848 26.5994 14.4428C26.3908 14.6415 26.1686 14.8267 25.9541 15.0176H25.9521Z" fill="#5D5D5D"/>
<path d="M43.94 22.2545C43.784 21.2805 43.3278 20.4954 42.4757 19.9554C41.7895 19.5195 41.0252 19.3304 40.22 19.2957C39.8047 19.2784 39.3894 19.2919 38.9722 19.2919V18.5339H38.9254V17.0468H10.5224C10.5224 17.1663 10.5204 17.2724 10.5224 17.3766C10.5321 17.7623 10.5379 18.1481 10.5457 18.5339H10.5224V25.1573C10.5945 25.1091 10.6666 25.0628 10.7407 25.0185C11.2691 24.6983 11.8462 24.4514 12.4545 24.2855C13.0355 24.1274 13.6301 24.0463 14.2209 24.0463C14.3047 24.0463 14.3905 24.0464 14.4744 24.0502L15.1996 24.0772C15.4746 24.0869 15.7514 24.0965 16.0302 24.1081C16.7925 24.137 17.6952 24.1775 18.6038 24.2431C18.8378 24.2604 19.0678 24.2836 19.292 24.3145C19.7522 24.3781 20.1967 24.4707 20.6159 24.5922C20.8303 24.6539 21.0448 24.7253 21.2495 24.8044C21.7486 24.9934 22.2263 25.2326 22.6689 25.5142C22.9867 25.7167 23.2635 25.9327 23.5131 26.1738L25.0846 27.6898C25.453 27.7979 25.8215 27.9367 26.1842 28.1142C28.0052 29.0034 29.4148 30.4037 30.4949 32.3961C31.0038 33.3354 31.3645 34.2844 31.5614 35.2121C31.5673 35.2372 31.5712 35.2642 31.577 35.2893C35.0864 34.3018 37.8218 31.5011 38.6836 27.9734C39.5395 27.8171 40.3701 27.5587 41.1656 27.1691C42.2886 26.6194 43.2147 25.8594 43.6845 24.6674C43.8249 24.3125 43.8971 23.9306 44.0004 23.5603V22.3953C43.979 22.3471 43.9478 22.3027 43.94 22.2526V22.2545ZM41.8889 23.2382C41.8148 24.1968 41.1987 24.7909 40.3974 25.2171C39.9431 25.4582 39.4635 25.6299 38.9702 25.7572C38.9702 25.7051 38.9741 25.653 38.9741 25.599V21.4174C39.0073 21.4135 39.0443 21.4097 39.0872 21.4116C39.5629 21.4309 40.0464 21.3692 40.5163 21.429C41.5379 21.5582 41.9805 22.079 41.8908 23.2363L41.8889 23.2382Z" fill="#5D5D5D"/>
<path d="M21.5088 27.2636C21.1891 27.0591 20.8479 26.8894 20.4833 26.7505C20.3312 26.6927 20.1752 26.6406 20.0153 26.5943C19.6956 26.5017 19.3564 26.4304 18.9996 26.3821C18.8202 26.3571 18.6389 26.3397 18.4497 26.3262C17.6231 26.2664 16.7789 26.2278 15.9483 26.197C15.6714 26.1854 15.3965 26.1758 15.1216 26.1661L14.3944 26.1391C14.3359 26.1372 14.2794 26.1353 14.2209 26.1353C13.829 26.1353 13.4235 26.1893 13.0238 26.2973C12.6241 26.4072 12.2283 26.5712 11.8618 26.793C11.7565 26.8566 11.6531 26.9241 11.5537 26.9974C11.3529 27.144 11.1638 27.3099 10.9903 27.4931C10.9123 27.5761 10.8382 27.6648 10.766 27.7554C10.6783 27.8673 10.5925 27.983 10.5145 28.1084C10.3742 28.3322 10.2513 28.5771 10.1519 28.8414C10.1031 28.9744 10.0583 29.1114 10.0213 29.2541C9.98422 29.3968 9.95107 29.5454 9.92768 29.6977C9.90038 29.8617 9.87893 30.0256 9.86139 30.1915C9.82629 30.5252 9.80874 30.8647 9.81069 31.2138C9.81459 32.0875 9.93352 33.0133 10.1675 34.0144C10.38 34.9209 10.6666 35.8159 11.037 36.7108C11.1287 36.9346 11.2262 37.1583 11.3295 37.3821C11.6375 38.0552 11.9924 38.7303 12.396 39.4131C12.4506 39.5037 12.5091 39.5886 12.5734 39.6677C12.7664 39.903 13.0101 40.0804 13.3084 40.2058C14.0025 40.499 14.7161 40.6475 15.4258 40.6475C15.5818 40.6475 15.7416 40.6398 15.8976 40.6263C16.153 40.6031 16.4104 40.5549 16.6775 40.5009C16.6521 40.4238 16.6268 40.3447 16.6014 40.2656C16.5469 40.0882 16.4981 39.9069 16.463 39.7198C16.4513 39.658 16.4416 39.5944 16.4357 39.5327C16.4045 39.2607 16.3772 38.9907 16.3577 38.7264C16.3382 38.4603 16.3246 38.1979 16.3168 37.9395C16.3012 37.4206 16.3129 36.9153 16.346 36.4215C16.3577 36.2576 16.3714 36.0936 16.3889 35.9316C16.424 35.6076 16.4689 35.2893 16.5254 34.9749C16.5371 34.9055 16.5527 34.836 16.5664 34.7666C16.6151 34.5236 16.6677 34.2844 16.7282 34.0472C16.7769 33.8562 16.8315 33.6691 16.89 33.482C17.007 33.1078 17.1396 32.7414 17.2916 32.3807C17.3677 32.1994 17.4476 32.0219 17.5314 31.8445C17.6679 31.559 17.82 31.2581 17.9974 30.9515C18.0559 30.8492 18.1183 30.747 18.1826 30.6428C18.2314 30.5657 18.2801 30.4885 18.3308 30.4114C18.4848 30.1799 18.6525 29.9504 18.8397 29.7267C19.5825 28.8317 20.5944 28.0332 22.0177 27.6551C21.8714 27.5143 21.7038 27.3851 21.5088 27.2597V27.2636Z" fill="#5D5D5D"/>
<path d="M29.463 35.6153C29.305 34.8785 29.0204 34.1321 28.6051 33.3644C27.7433 31.7751 26.6418 30.668 25.2341 29.9813C24.85 29.7942 24.464 29.6631 24.0838 29.5917C23.9317 29.5628 23.7816 29.5435 23.6295 29.5338C23.5535 29.53 23.4794 29.5261 23.4053 29.5261C23.2844 29.5261 23.1635 29.5319 23.0465 29.5454C22.8087 29.5705 22.5767 29.6187 22.3486 29.692C21.7793 29.8752 21.2392 30.2108 20.7381 30.695C20.1474 31.2659 19.6794 31.9583 19.3129 32.8109C19.192 33.0905 19.0848 33.3779 18.9873 33.673C18.923 33.8698 18.8645 34.0723 18.8099 34.2787C18.7553 34.4851 18.7065 34.6953 18.6637 34.9132C18.6422 35.0213 18.6208 35.1312 18.6013 35.2411C18.5915 35.299 18.5837 35.3569 18.574 35.4147C18.5291 35.6944 18.4901 35.9779 18.4609 36.275C18.4024 36.8729 18.3751 37.5075 18.3771 38.1883C18.3771 38.5799 18.4102 38.9386 18.4745 39.2743C18.5545 39.6909 18.6851 40.0689 18.8703 40.418C18.9327 40.5338 18.999 40.6476 19.0731 40.7594C19.1355 40.852 19.1998 40.9407 19.2661 41.0256C19.3324 41.1085 19.4026 41.1876 19.4728 41.2609C19.6151 41.4075 19.7691 41.5348 19.9329 41.6447C20.0401 41.4692 20.1552 41.3091 20.2799 41.1645C20.5256 40.8752 20.7986 40.6418 21.0618 40.4489C21.1943 40.3525 21.325 40.2657 21.4498 40.1866C21.713 40.0207 21.9918 39.849 22.2823 39.6774C22.5728 39.5057 22.875 39.334 23.1908 39.1662C23.5047 38.9984 23.8323 38.8364 24.1696 38.684C24.5069 38.5317 24.8559 38.3889 25.2146 38.2616C26.4468 37.8238 27.4821 37.6193 28.4764 37.6193C28.843 37.6193 29.2056 37.6483 29.5624 37.7061C29.6443 37.0137 29.6111 36.3193 29.461 35.6153H29.463Z" fill="#5D5D5D"/>
<path d="M9.88036 39.0948C9.70099 38.7399 9.52357 38.3734 9.35394 37.9953C9.10049 37.4283 8.86067 36.8342 8.64816 36.217C8.29527 35.1851 8.01841 34.0837 7.87413 32.9188C7.81564 32.452 7.7786 31.9756 7.7669 31.4895C7.7552 31.0035 7.7669 30.5058 7.80784 30.0005C7.66942 30.0506 7.53489 30.1027 7.40426 30.1567C7.01042 30.3168 6.64778 30.4923 6.30854 30.6871C5.53646 31.1288 4.90086 31.6303 4.3959 32.1993C4.14439 32.4828 3.92407 32.7837 3.7369 33.102C3.61212 33.3142 3.50294 33.534 3.40545 33.7616C3.30992 33.9892 3.22803 34.2245 3.16174 34.4676C3.06036 34.8321 2.99212 35.2159 2.95508 35.6171C2.95508 35.6384 2.96483 35.6866 2.97262 35.6981C3.66086 36.5931 4.43294 37.3974 5.28105 38.1072C5.64564 38.412 6.02193 38.6994 6.41382 38.9675C6.67508 39.1468 6.94218 39.3185 7.21514 39.4824C7.4881 39.6464 7.76885 39.8026 8.05351 39.9511C8.33816 40.0997 8.63061 40.2385 8.92891 40.3716C8.97961 40.3948 9.042 40.4121 9.10828 40.4237C9.17652 40.4353 9.25256 40.4411 9.3325 40.4411C9.47288 40.4411 9.62105 40.4237 9.76533 40.3909C9.86086 40.3697 9.9564 40.3408 10.048 40.308C10.1845 40.2578 10.3132 40.1961 10.4224 40.1247C10.2391 39.7949 10.0578 39.4535 9.87841 39.0986L9.88036 39.0948Z" fill="#5D5D5D"/>
<path d="M29.8353 39.8799C29.8353 39.8799 29.8177 39.8664 29.7553 39.8471C29.3576 39.7256 28.9482 39.6658 28.5036 39.6658C28.024 39.6658 27.5034 39.7371 26.9107 39.8818C25.4095 40.2502 23.9511 40.9542 22.1847 42.1655C22.1418 42.1944 22.1009 42.2311 22.0599 42.2716C21.978 42.3545 21.8981 42.4567 21.8221 42.5686C21.7831 42.6245 21.746 42.6824 21.707 42.7422C21.8416 42.721 21.9761 42.7056 22.1087 42.694C22.2432 42.6824 22.3777 42.6786 22.5103 42.6786C22.717 42.6786 22.9236 42.6921 23.1303 42.7171C23.4384 42.7557 23.7464 42.8213 24.0506 42.9139C24.1519 42.9447 24.2533 42.9794 24.3528 43.018C24.4541 43.0547 24.5536 43.0952 24.653 43.1395C24.7524 43.1839 24.8519 43.2302 24.9513 43.2803C25.0644 43.3363 25.1794 43.398 25.2964 43.4616C25.3549 43.4944 25.4134 43.5272 25.4719 43.56C25.6493 43.6622 25.8267 43.7741 26.0022 43.8975C26.5871 44.3084 27.1428 44.8504 27.5151 45.5987C28.1351 45.2303 28.7084 44.6864 29.2991 43.9111C30.2291 42.6921 30.4124 41.392 29.8587 39.9339C29.8431 39.8914 29.8314 39.8779 29.8314 39.8779L29.8353 39.8799Z" fill="#5D5D5D"/>
<path d="M22.4522 44.7405C22.3996 44.7405 22.345 44.7405 22.2904 44.7443C21.7426 44.7656 21.339 44.9295 21.0894 45.2362C21.027 45.3114 20.9763 45.3963 20.9334 45.4889C20.8905 45.5814 20.8593 45.6798 20.8379 45.784C20.795 45.9923 20.7911 46.2218 20.834 46.459C20.8671 46.65 20.9315 46.8294 21.0231 46.9952C21.1362 47.2016 21.2883 47.3849 21.4715 47.5353C21.6178 47.6549 21.7835 47.7552 21.9629 47.8285C22.0974 47.8844 22.2417 47.9249 22.3898 47.9481C22.4932 47.9654 22.5985 47.977 22.7037 47.9866C22.811 47.9944 22.9182 48.0001 23.0254 48.0001C23.1171 48.0001 23.2087 47.9963 23.3042 47.9905C23.585 47.9712 23.8775 47.9269 24.1777 47.8536C24.2615 47.8266 24.3395 47.7996 24.4156 47.7706C24.6417 47.6858 24.8387 47.5912 25.0063 47.4852C25.1194 47.4138 25.2188 47.3386 25.3105 47.2576C25.4002 47.1746 25.482 47.0878 25.5542 46.9914C25.8174 46.6442 25.7745 46.567 25.5756 46.3317C24.669 45.2632 23.6474 44.7424 22.4522 44.7424V44.7405Z" fill="#5D5D5D"/>
<path d="M2.33913 38.7843C2.27284 38.9212 2.2163 39.0659 2.16951 39.2164C2.12271 39.3668 2.08762 39.523 2.06032 39.6831C2.00573 40.0033 1.99014 40.3428 2.00573 40.6861C2.01353 40.8578 2.03108 41.0313 2.05447 41.2049C2.07787 41.3785 2.11102 41.5521 2.15001 41.7238C2.189 41.8954 2.2358 42.0671 2.28844 42.2349C2.34108 42.4027 2.39957 42.5667 2.46586 42.7287C3.18919 42.1732 4.0763 41.8742 5.03554 41.8742C5.42938 41.8742 5.82517 41.9244 6.21705 42.0208C5.67114 41.6871 5.15057 41.3284 4.65146 40.9426C4.15234 40.5569 3.67661 40.1441 3.22039 39.7043C2.91624 39.4112 2.62183 39.1045 2.33718 38.7862L2.33913 38.7843Z" fill="#5D5D5D"/>
<path d="M5.56165 43.9265C5.49146 43.913 5.42322 43.9034 5.35303 43.8976C5.28284 43.8918 5.21266 43.8879 5.14247 43.8879C5.08593 43.8879 5.02939 43.8899 4.97284 43.8937C4.9163 43.8976 4.85976 43.9053 4.80517 43.913C4.69404 43.9304 4.58486 43.9535 4.48347 43.9863C4.22806 44.075 4.03895 44.158 3.89662 44.239C3.70555 44.347 3.59247 44.4492 3.51448 44.5457C3.49498 44.5707 3.47744 44.5939 3.46184 44.617C3.44429 44.644 3.43259 44.6633 3.42674 44.6768C3.4209 44.6903 3.41895 44.6961 3.41895 44.6961C3.41895 44.698 3.42479 44.7212 3.45404 44.7694C3.91806 45.5081 4.56341 45.892 5.43102 45.9382C5.46027 45.9382 5.48951 45.9402 5.52071 45.9402C5.60064 45.9402 5.67668 45.9344 5.75272 45.9228C5.82876 45.9112 5.90284 45.8958 5.97303 45.8727C6.11536 45.8302 6.24794 45.7666 6.36297 45.6894C6.478 45.6123 6.57549 45.5178 6.65152 45.4136C6.72756 45.3095 6.7802 45.1918 6.80555 45.0684C6.81725 45.0105 6.827 44.9584 6.83284 44.9121C6.84649 44.8195 6.84844 44.7482 6.84649 44.6942C6.84259 44.6267 6.83089 44.5842 6.81725 44.5572C6.8036 44.5302 6.788 44.5187 6.77825 44.5109C6.72951 44.4724 6.68077 44.4357 6.63008 44.3991C6.58134 44.3644 6.53064 44.3296 6.47995 44.2988C6.32983 44.2043 6.17775 44.1252 6.02568 44.0635C5.8736 44.0017 5.71762 43.9554 5.56165 43.9265Z" fill="#5D5D5D"/>
</g>
<defs>
<clipPath id="clip0_747_6654">
<rect width="48" height="48" fill="white"/>
</clipPath>
</defs>
</svg>
