<svg width="49" height="48" viewBox="0 0 49 48" fill="none" xmlns="http://www.w3.org/2000/svg">
<path d="M5 16.5V14.25C5.00218 12.4605 5.71404 10.7448 6.97944 9.47944C8.24484 8.21404 9.96046 7.50218 11.75 7.5H14V9.75C14 10.5456 14.3161 11.3087 14.8787 11.8713C15.4413 12.4339 16.2044 12.75 17 12.75C17.7956 12.75 18.5587 12.4339 19.1213 11.8713C19.6839 11.3087 20 10.5456 20 9.75V7.5H29V9.75C29 10.5456 29.3161 11.3087 29.8787 11.8713C30.4413 12.4339 31.2044 12.75 32 12.75C32.7956 12.75 33.5587 12.4339 34.1213 11.8713C34.6839 11.3087 35 10.5456 35 9.75V7.5H37.25C39.0395 7.50218 40.7552 8.21404 42.0206 9.47944C43.286 10.7448 43.9978 12.4605 44 14.25V16.5H5ZM15.5 9.75C15.5 10.1478 15.658 10.5294 15.9393 10.8107C16.2206 11.092 16.6022 11.25 17 11.25C17.3978 11.25 17.7794 11.092 18.0607 10.8107C18.342 10.5294 18.5 10.1478 18.5 9.75V6C18.5 5.60218 18.342 5.22064 18.0607 4.93934C17.7794 4.65804 17.3978 4.5 17 4.5C16.6022 4.5 16.2206 4.65804 15.9393 4.93934C15.658 5.22064 15.5 5.60218 15.5 6V9.75ZM30.5 6V9.75C30.5 10.1478 30.658 10.5294 30.9393 10.8107C31.2206 11.092 31.6022 11.25 32 11.25C32.3978 11.25 32.7794 11.092 33.0607 10.8107C33.342 10.5294 33.5 10.1478 33.5 9.75V6C33.5 5.60218 33.342 5.22064 33.0607 4.93934C32.7794 4.65804 32.3978 4.5 32 4.5C31.6022 4.5 31.2206 4.65804 30.9393 4.93934C30.658 5.22064 30.5 5.60218 30.5 6ZM44 18V33.75C43.9978 35.5395 43.286 37.2552 42.0206 38.5206C40.7552 39.786 39.0395 40.4978 37.25 40.5H11.75C9.96046 40.4978 8.24484 39.786 6.97944 38.5206C5.71404 37.2552 5.00218 35.5395 5 33.75V18H44ZM29.9802 26.4817H26.8835L25.925 23.5365C25.8264 23.2364 25.6355 22.9751 25.3796 22.7899C25.1237 22.6046 24.8159 22.5049 24.5 22.5049C24.1841 22.5049 23.8763 22.6046 23.6204 22.7899C23.3645 22.9751 23.1736 23.2364 23.075 23.5365L22.118 26.4817H19.0198C18.703 26.4817 18.3943 26.5819 18.138 26.7681C17.8817 26.9543 17.6909 27.2168 17.5929 27.5181C17.495 27.8193 17.495 28.1439 17.5928 28.4452C17.6907 28.7465 17.8815 29.009 18.1378 29.1952L20.6435 31.0155L19.6865 33.9607C19.5886 34.262 19.5885 34.5866 19.6864 34.8879C19.7843 35.1892 19.9751 35.4518 20.2314 35.638C20.4878 35.8242 20.7964 35.9245 21.1133 35.9244C21.4301 35.9244 21.7387 35.824 21.995 35.6377L24.5 33.8175L27.005 35.6377C27.2613 35.824 27.5699 35.9244 27.8867 35.9244C28.2036 35.9245 28.5122 35.8242 28.7686 35.638C29.0249 35.4518 29.2157 35.1892 29.3136 34.8879C29.4115 34.5866 29.4114 34.262 29.3135 33.9607L28.3565 31.0155L30.8623 29.1952C31.1185 29.009 31.3093 28.7465 31.4072 28.4452C31.505 28.1439 31.505 27.8193 31.4071 27.5181C31.3091 27.2168 31.1183 26.9543 30.862 26.7681C30.6057 26.5819 30.297 26.4817 29.9802 26.4817Z" fill="#E7E7E7"/>
</svg>
