<svg width="42" height="42" viewBox="0 0 42 42" fill="none" xmlns="http://www.w3.org/2000/svg">
<path d="M41.2443 0.545945C41.4588 0.76055 41.6031 1.03514 41.6583 1.33347C41.7134 1.6318 41.6768 1.93984 41.5533 2.21695L24.5823 40.4009C24.4637 40.668 24.2697 40.8946 24.0242 41.0529C23.7786 41.2113 23.4921 41.2944 23.1999 41.2922C22.9077 41.29 22.6226 41.2024 22.3794 41.0404C22.1363 40.8783 21.9458 40.6488 21.8313 40.3799L15.7083 26.0819L1.40731 19.9559C1.13949 19.8407 0.911038 19.65 0.749905 19.407C0.588773 19.164 0.501942 18.8794 0.500032 18.5878C0.498123 18.2963 0.581217 18.0105 0.739153 17.7654C0.897088 17.5204 1.12302 17.3266 1.38931 17.2079L39.5733 0.236945C39.85 0.114089 40.1575 0.077854 40.4552 0.133006C40.7529 0.188157 41.027 0.332113 41.2413 0.545945H41.2443Z" fill="white"/>
</svg>
