<svg width="49" height="48" viewBox="0 0 49 48" fill="none" xmlns="http://www.w3.org/2000/svg">
<g clip-path="url(#clip0_4024_532)">
<path d="M9.5 7.5C9.5 5.51088 10.2902 3.60322 11.6967 2.1967C13.1032 0.790176 15.0109 0 17 0C18.9891 0 20.8968 0.790176 22.3033 2.1967C23.7098 3.60322 24.5 5.51088 24.5 7.5C24.5 5.51088 25.2902 3.60322 26.6967 2.1967C28.1032 0.790176 30.0109 0 32 0C33.9891 0 35.8968 0.790176 37.3033 2.1967C38.7098 3.60322 39.5 5.51088 39.5 7.5V7.518C39.5 7.728 39.5 8.328 39.386 9H45.5C46.2956 9 47.0587 9.31607 47.6213 9.87868C48.1839 10.4413 48.5 11.2044 48.5 12V15C48.5 15.7956 48.1839 16.5587 47.6213 17.1213C47.0587 17.6839 46.2956 18 45.5 18H3.5C2.70435 18 1.94129 17.6839 1.37868 17.1213C0.816071 16.5587 0.5 15.7956 0.5 15V12C0.5 11.2044 0.816071 10.4413 1.37868 9.87868C1.94129 9.31607 2.70435 9 3.5 9H9.614C9.53476 8.51004 9.49663 8.01431 9.5 7.518V7.5ZM12.704 9H21.5V7.5C21.5 6.90905 21.3836 6.32389 21.1575 5.77792C20.9313 5.23196 20.5998 4.73588 20.182 4.31802C19.7641 3.90016 19.268 3.56869 18.7221 3.34254C18.1761 3.1164 17.5909 3 17 3C16.4091 3 15.8239 3.1164 15.2779 3.34254C14.732 3.56869 14.2359 3.90016 13.818 4.31802C13.4002 4.73588 13.0687 5.23196 12.8425 5.77792C12.6164 6.32389 12.5 6.90905 12.5 7.5C12.5 7.755 12.506 8.322 12.635 8.79C12.653 8.86154 12.6761 8.93171 12.704 9V9ZM27.5 9H36.296C36.3236 8.93159 36.3466 8.86144 36.365 8.79C36.494 8.322 36.5 7.755 36.5 7.5C36.5 6.30653 36.0259 5.16193 35.182 4.31802C34.3381 3.47411 33.1935 3 32 3C30.8065 3 29.6619 3.47411 28.818 4.31802C27.9741 5.16193 27.5 6.30653 27.5 7.5V9ZM45.5 21V43.5C45.5 44.6935 45.0259 45.8381 44.182 46.682C43.3381 47.5259 42.1935 48 41 48H27.5V21H45.5ZM8 48C6.80653 48 5.66193 47.5259 4.81802 46.682C3.97411 45.8381 3.5 44.6935 3.5 43.5V21H21.5V48H8Z" fill="#E7E7E7"/>
</g>
<defs>
<clipPath id="clip0_4024_532">
<rect width="48" height="48" fill="white" transform="translate(0.5)"/>
</clipPath>
</defs>
</svg>
