<svg width="49" height="48" viewBox="0 0 49 48" fill="none" xmlns="http://www.w3.org/2000/svg">
<g clip-path="url(#clip0_4024_570)">
<path d="M24.5 48C30.8652 48 36.9697 45.4714 41.4706 40.9706C45.9714 36.4697 48.5 30.3652 48.5 24C48.5 17.6348 45.9714 11.5303 41.4706 7.02944C36.9697 2.52856 30.8652 0 24.5 0C18.1348 0 12.0303 2.52856 7.52944 7.02944C3.02856 11.5303 0.5 17.6348 0.5 24C0.5 30.3652 3.02856 36.4697 7.52944 40.9706C12.0303 45.4714 18.1348 48 24.5 48V48ZM27.29 19.764L24.29 33.879C24.08 34.899 24.377 35.478 25.202 35.478C25.784 35.478 26.663 35.268 27.26 34.74L26.996 35.988C26.135 37.026 24.236 37.782 22.601 37.782C20.492 37.782 19.595 36.516 20.177 33.825L22.391 23.421C22.583 22.542 22.409 22.224 21.53 22.011L20.177 21.768L20.423 20.625L27.293 19.764H27.29ZM24.5 16.5C23.7044 16.5 22.9413 16.1839 22.3787 15.6213C21.8161 15.0587 21.5 14.2956 21.5 13.5C21.5 12.7044 21.8161 11.9413 22.3787 11.3787C22.9413 10.8161 23.7044 10.5 24.5 10.5C25.2956 10.5 26.0587 10.8161 26.6213 11.3787C27.1839 11.9413 27.5 12.7044 27.5 13.5C27.5 14.2956 27.1839 15.0587 26.6213 15.6213C26.0587 16.1839 25.2956 16.5 24.5 16.5V16.5Z" fill="#E7E7E7"/>
</g>
<defs>
<clipPath id="clip0_4024_570">
<rect width="48" height="48" fill="white" transform="translate(0.5)"/>
</clipPath>
</defs>
</svg>
