<svg width="48" height="48" viewBox="0 0 48 48" fill="none" xmlns="http://www.w3.org/2000/svg">
<path d="M43.2 20.6H4.8C4.36 20.6 4 20.96 4 21.4V24.6C4 25.04 4.36 25.4 4.8 25.4H5.904V43.2C5.904 43.64 6.256 44 6.704 44H41.304C41.744 44 42.104 43.64 42.104 43.2V25.4H43.2C43.64 25.4 44 25.04 44 24.6V21.4C44 20.96 43.64 20.6 43.2 20.6ZM33.1152 33.3336C33.1152 33.5458 33.0309 33.7492 32.8809 33.8993C32.7309 34.0493 32.5274 34.1336 32.3152 34.1336C31.5624 34.1336 30.9488 34.7464 30.9488 35.5C30.9488 36.2536 31.5624 36.8664 32.3152 36.8664C32.5274 36.8664 32.7309 36.9507 32.8809 37.1007C33.0309 37.2507 33.1152 37.4542 33.1152 37.6664V40.3336C33.1152 40.5458 33.0309 40.7492 32.8809 40.8993C32.7309 41.0493 32.5274 41.1336 32.3152 41.1336H15.6936C15.4814 41.1336 15.2779 41.0493 15.1279 40.8993C14.9779 40.7492 14.8936 40.5458 14.8936 40.3336V37.6664C14.8936 37.4542 14.9779 37.2507 15.1279 37.1007C15.2779 36.9507 15.4814 36.8664 15.6936 36.8664C16.4464 36.8664 17.06 36.2536 17.06 35.5C17.06 34.7464 16.4464 34.1336 15.6936 34.1336C15.4814 34.1336 15.2779 34.0493 15.1279 33.8993C14.9779 33.7492 14.8936 33.5458 14.8936 33.3336V30.6664C14.8936 30.4542 14.9779 30.2507 15.1279 30.1007C15.2779 29.9507 15.4814 29.8664 15.6936 29.8664H32.3152C32.5274 29.8664 32.7309 29.9507 32.8809 30.1007C33.0309 30.2507 33.1152 30.4542 33.1152 30.6664V33.3336ZM31.912 18.992C31.912 16.264 29.688 14.04 26.952 14.04H21.048C18.312 14.04 16.088 16.264 16.088 18.992V19H31.912V18.992Z" fill="#5D5D5D"/>
<path d="M24.0007 12.896C26.4573 12.896 28.4487 10.9046 28.4487 8.448C28.4487 5.99144 26.4573 4 24.0007 4C21.5442 4 19.5527 5.99144 19.5527 8.448C19.5527 10.9046 21.5442 12.896 24.0007 12.896Z" fill="#5D5D5D"/>
<path d="M16.4941 32.6433C17.7421 32.9929 18.6605 34.1409 18.6605 35.5001C18.6605 36.8593 17.7421 38.0073 16.4941 38.3569V39.5329H31.5157V38.3569C30.2677 38.0073 29.3493 36.8593 29.3493 35.5001C29.3493 34.1409 30.2669 32.9929 31.5157 32.6433V31.4673H16.4941V32.6433ZM21.8797 33.2497H26.1293C26.3415 33.2497 26.545 33.334 26.695 33.484C26.8451 33.634 26.9293 33.8375 26.9293 34.0497C26.9293 34.2619 26.8451 34.4653 26.695 34.6154C26.545 34.7654 26.3415 34.8497 26.1293 34.8497H21.8805C21.6684 34.8497 21.4649 34.7654 21.3149 34.6154C21.1648 34.4653 21.0805 34.2619 21.0805 34.0497C21.0805 33.8375 21.1648 33.634 21.3149 33.484C21.4649 33.334 21.6676 33.2497 21.8797 33.2497ZM21.8797 36.1505H26.1293C26.3415 36.1505 26.545 36.2348 26.695 36.3848C26.8451 36.5348 26.9293 36.7383 26.9293 36.9505C26.9293 37.1627 26.8451 37.3661 26.695 37.5162C26.545 37.6662 26.3415 37.7505 26.1293 37.7505H21.8805C21.6684 37.7505 21.4649 37.6662 21.3149 37.5162C21.1648 37.3661 21.0805 37.1627 21.0805 36.9505C21.0805 36.7383 21.1648 36.5348 21.3149 36.3848C21.4649 36.2348 21.6676 36.1505 21.8797 36.1505Z" fill="#5D5D5D"/>
</svg>
