<svg width="49" height="48" viewBox="0 0 49 48" fill="none" xmlns="http://www.w3.org/2000/svg">
<g clip-path="url(#clip0_4024_136)">
<path d="M38 0C32.21 0 27.5 4.71 27.5 10.5C27.5 15.888 35.924 25.431 36.884 26.502C37.169 26.817 37.574 27 38 27C38.426 27 38.831 26.817 39.116 26.502C40.076 25.431 48.5 15.888 48.5 10.5C48.5 4.71 43.79 0 38 0ZM38 15C35.516 15 33.5 12.984 33.5 10.5C33.5 8.016 35.516 6 38 6C40.484 6 42.5 8.016 42.5 10.5C42.5 12.984 40.484 15 38 15ZM1.442 17.622C1.16382 17.7341 0.925503 17.9269 0.757653 18.1754C0.589802 18.424 0.500078 18.7171 0.5 19.017L0.5 46.5C0.5 46.998 0.749 47.463 1.16 47.742C1.412 47.91 1.703 48 2 48C2.189 48 2.378 47.964 2.558 47.892L15.5 42.714V12L1.442 17.622Z" fill="#E7E7E7"/>
<path d="M41.348 28.506C40.496 29.454 39.275 30 38 30C36.725 30 35.504 29.454 34.652 28.506C34.346 28.167 33.953 27.72 33.5 27.189V48L47.558 42.378C48.128 42.153 48.5 41.598 48.5 40.986V18.933C46.043 23.094 42.758 26.934 41.348 28.506ZM25.445 14.778L18.5 12V42.714L30.5 47.514V23.424C28.583 20.841 26.582 17.73 25.445 14.778Z" fill="#E7E7E7"/>
</g>
<defs>
<clipPath id="clip0_4024_136">
<rect width="48" height="48" fill="white" transform="translate(0.5)"/>
</clipPath>
</defs>
</svg>
