<svg width="49" height="48" viewBox="0 0 49 48" fill="none" xmlns="http://www.w3.org/2000/svg">
<path d="M36.5 2H20.5C18.1947 1.99953 15.96 2.79557 14.1742 4.25339C12.3884 5.71121 11.1611 7.74127 10.7 10H10.5C8.37827 10 6.34344 10.8429 4.84315 12.3431C3.34285 13.8434 2.5 15.8783 2.5 18V36C2.5 37.3132 2.75866 38.6136 3.2612 39.8268C3.76375 41.0401 4.50035 42.1425 5.42893 43.0711C7.3043 44.9464 9.84784 46 12.5 46H40.5C42.0913 46 43.6174 45.3679 44.7426 44.2426C45.8679 43.1174 46.5 41.5913 46.5 40V12C46.5 10.6868 46.2413 9.38642 45.7388 8.17317C45.2362 6.95991 44.4997 5.85752 43.5711 4.92893C42.6425 4.00035 41.5401 3.26375 40.3268 2.7612C39.1136 2.25866 37.8132 2 36.5 2ZM28.5 34H12.5C11.9696 34 11.4609 33.7893 11.0858 33.4142C10.7107 33.0391 10.5 32.5304 10.5 32C10.5 31.4696 10.7107 30.9609 11.0858 30.5858C11.4609 30.2107 11.9696 30 12.5 30H28.5C29.0304 30 29.5391 30.2107 29.9142 30.5858C30.2893 30.9609 30.5 31.4696 30.5 32C30.5 32.5304 30.2893 33.0391 29.9142 33.4142C29.5391 33.7893 29.0304 34 28.5 34ZM28.5 26H12.5C11.9696 26 11.4609 25.7893 11.0858 25.4142C10.7107 25.0391 10.5 24.5304 10.5 24C10.5 23.4696 10.7107 22.9609 11.0858 22.5858C11.4609 22.2107 11.9696 22 12.5 22H28.5C29.0304 22 29.5391 22.2107 29.9142 22.5858C30.2893 22.9609 30.5 23.4696 30.5 24C30.5 24.5304 30.2893 25.0391 29.9142 25.4142C29.5391 25.7893 29.0304 26 28.5 26ZM42.5 40C42.5 40.5304 42.2893 41.0391 41.9142 41.4142C41.5391 41.7893 41.0304 42 40.5 42C39.9696 42 39.4609 41.7893 39.0858 41.4142C38.7107 41.0391 38.5 40.5304 38.5 40V18C38.5 15.8783 37.6571 13.8434 36.1569 12.3431C34.6566 10.8429 32.6217 10 30.5 10H14.86C15.2726 8.8329 16.0361 7.822 17.0459 7.10588C18.0556 6.38976 19.2621 6.00348 20.5 6H36.5C38.0913 6 39.6174 6.63214 40.7426 7.75736C41.8679 8.88258 42.5 10.4087 42.5 12V40Z" fill="#E7E7E7"/>
</svg>
