<svg width="64" height="64" viewBox="0 0 64 64" fill="none" xmlns="http://www.w3.org/2000/svg">
<g clip-path="url(#clip0_747_6856)">
<path d="M32 64.0003C34.1217 64.0003 36.1566 63.1575 37.6569 61.6572C39.1571 60.1569 40 58.1221 40 56.0003H24C24 58.1221 24.8429 60.1569 26.3431 61.6572C27.8434 63.1575 29.8783 64.0003 32 64.0003ZM35.98 4.39633C36.0358 3.84014 35.9745 3.27843 35.7999 2.74742C35.6253 2.21641 35.3413 1.72788 34.9663 1.31336C34.5913 0.898832 34.1336 0.567504 33.6227 0.340744C33.1118 0.113984 32.559 -0.00317383 32 -0.00317383C31.441 -0.00317383 30.8882 0.113984 30.3773 0.340744C29.8664 0.567504 29.4087 0.898832 29.0337 1.31336C28.6587 1.72788 28.3747 2.21641 28.2001 2.74742C28.0255 3.27843 27.9642 3.84014 28.02 4.39633C23.4989 5.31593 19.4345 7.76977 16.5151 11.3423C13.5956 14.9149 12.0006 19.3866 12 24.0003C12 28.3923 10 48.0003 4 52.0003H60C54 48.0003 52 28.3923 52 24.0003C52 14.3203 45.12 6.24033 35.98 4.39633Z" fill="#E7E7E7"/>
</g>
<defs>
<clipPath id="clip0_747_6856">
<rect width="64" height="64" fill="white"/>
</clipPath>
</defs>
</svg>
