<svg width="49" height="48" viewBox="0 0 49 48" fill="none" xmlns="http://www.w3.org/2000/svg">
<path d="M7.27943 17.6295H15.6286V19.594C15.6286 19.9985 15.2968 20.3309 14.8924 20.3309H13.9098V34.8629H14.8924C15.2968 34.8629 15.6286 35.1876 15.6286 35.5992V37.5643H7.27943V35.5992C7.27943 35.1876 7.6112 34.8629 8.01637 34.8629H8.99826V20.3309H8.01708C7.61261 20.3309 7.28014 19.9985 7.28014 19.594L7.27943 17.6295ZM20.3234 17.6295H28.6733V19.594C28.6733 19.9985 28.3408 20.3309 27.9364 20.3309H26.9538V34.8629H27.9364C28.3408 34.8629 28.6733 35.1876 28.6733 35.5992V37.5643H20.3234V35.5992C20.3234 35.1876 20.6552 34.8629 21.0604 34.8629H22.0423V20.3309H21.0604C20.6559 20.3309 20.3234 19.9985 20.3234 19.594V17.6295ZM39.9985 34.8629H40.9804C41.3848 34.8629 41.7173 35.1876 41.7173 35.5992V37.5643H33.3674V35.5992C33.3674 35.1876 33.6999 34.8629 34.1044 34.8629H35.0877V20.3309H34.1051C33.7006 20.3309 33.3681 19.9985 33.3681 19.594V17.6295H41.718V19.594C41.718 19.9985 41.3863 20.3309 40.9811 20.3309H39.9992L39.9985 34.8629ZM44.2091 39.8966V41.789H4.79473V39.8973C4.79473 39.406 5.19214 39.0086 5.68343 39.0086H43.3211C43.8117 39.0086 44.2091 39.4053 44.2091 39.8966ZM46.775 45.6982V44.1206C46.775 43.6293 46.3761 43.2312 45.8848 43.2312H3.11402C2.62273 43.2312 2.22461 43.6293 2.22461 44.1206V45.6982C2.22461 46.1895 2.62273 46.5883 3.11402 46.5883H45.8848C46.3761 46.5883 46.775 46.1895 46.775 45.6982ZM23.6199 1.63775L4.51943 12.0686C4.23496 12.2239 4.05779 12.5225 4.05779 12.8465V15.2987C4.05779 15.7879 4.45449 16.1846 4.94437 16.1846H44.0594C44.5493 16.1846 44.946 15.7879 44.946 15.2987V12.8465C44.946 12.5218 44.7688 12.2239 44.4844 12.0686L25.3903 1.63775C25.1188 1.48954 24.8144 1.41187 24.5051 1.41187C24.1958 1.41187 23.8914 1.48954 23.6199 1.63775ZM24.5051 12.257C23.7358 12.2565 22.9982 11.9506 22.4543 11.4067C21.9103 10.8627 21.6045 10.1251 21.6039 9.35587C21.6048 8.58685 21.9108 7.84961 22.4548 7.30596C22.9987 6.76231 23.7361 6.45667 24.5051 6.45611C26.0983 6.45611 27.3921 7.75634 27.3921 9.35658C27.3921 10.9561 26.0983 12.257 24.5051 12.257Z" fill="#5D5D5D"/>
</svg>
