<svg width="36" height="36" viewBox="0 0 36 36" fill="none" xmlns="http://www.w3.org/2000/svg">
<path fill-rule="evenodd" clip-rule="evenodd" d="M18 0C18.3978 0 18.7794 0.158036 19.0607 0.43934C19.342 0.720645 19.5 1.10218 19.5 1.5V16.5H34.5C34.8978 16.5 35.2794 16.658 35.5607 16.9393C35.842 17.2206 36 17.6022 36 18C36 18.3978 35.842 18.7794 35.5607 19.0607C35.2794 19.342 34.8978 19.5 34.5 19.5H19.5V34.5C19.5 34.8978 19.342 35.2794 19.0607 35.5607C18.7794 35.842 18.3978 36 18 36C17.6022 36 17.2206 35.842 16.9393 35.5607C16.658 35.2794 16.5 34.8978 16.5 34.5V19.5H1.5C1.10218 19.5 0.720645 19.342 0.43934 19.0607C0.158036 18.7794 0 18.3978 0 18C0 17.6022 0.158036 17.2206 0.43934 16.9393C0.720645 16.658 1.10218 16.5 1.5 16.5H16.5V1.5C16.5 1.10218 16.658 0.720645 16.9393 0.43934C17.2206 0.158036 17.6022 0 18 0V0Z" fill="white"/>
</svg>
