<svg width="49" height="48" viewBox="0 0 49 48" fill="none" xmlns="http://www.w3.org/2000/svg">
<g clip-path="url(#clip0_747_6668)">
<path d="M0.512 25.079C0.504754 25.0961 0.500688 25.1144 0.5 25.133L0.5 39.133C0.5 39.491 0.692 39.823 1.004 40.001L14.5 47.715V33.7151L1.004 26.001C0.663969 25.809 0.492031 25.443 0.512 25.079ZM10.652 27.663C10.7419 27.8062 10.8667 27.9243 11.0146 28.0061C11.1626 28.088 11.3289 28.131 11.498 28.131C11.578 28.131 11.66 28.121 11.74 28.101L42.118 20.507C43.5179 20.157 44.4959 18.905 44.4959 17.455C44.4959 16.259 43.8299 15.1829 42.76 14.647L37.228 11.881L36.2819 14.2469C36.0379 14.8529 35.5979 15.3709 35.0399 15.7049L25.0399 21.7049C24.8845 21.7978 24.7069 21.8469 24.5259 21.847C24.1858 21.847 23.8558 21.6749 23.6679 21.361C23.3839 20.887 23.5378 20.273 24.0099 19.9889L34.0099 13.9889C34.1973 13.8751 34.3431 13.704 34.4259 13.501L35.4339 10.981L36.2839 8.85499L36.8779 8.55696C37.1699 8.73096 37.4979 8.84496 37.8499 8.84496C38.0359 8.84496 38.2239 8.81899 38.4099 8.76499L46.1179 6.56103C47.5179 6.16099 48.4959 4.86303 48.4959 3.40699C48.5 1.60503 47.028 0.133057 45.22 0.133057H44.3C43.5552 0.133884 42.8326 0.386979 42.25 0.851088L36.6419 5.33712C36.1759 5.70912 35.9299 6.24715 35.9119 6.80712L35.0519 7.23715C34.8331 7.34759 34.6618 7.5338 34.57 7.76112L33.64 10.0851L30.844 8.68709C28.712 7.62106 25.9739 8.19706 24.452 10.0231L10.73 26.4911C10.454 26.825 10.422 27.297 10.652 27.663ZM1.99597 24.267L8.744 28.1231C8.37397 27.111 8.522 26.0211 9.194 25.215L10.572 23.561C10.7076 23.3978 10.7877 23.1958 10.801 22.9841C10.8143 22.7724 10.76 22.5619 10.646 22.383C10.412 22.0151 9.96603 21.8411 9.54603 21.9551L1.24803 24.1691C1.49197 24.105 1.76 24.131 1.99597 24.267ZM16.5 33.867V47.867L47.798 38.087C48.216 37.959 48.5 37.571 48.5 37.133V23.8091L16.5 33.867ZM46 21.1271C45.6239 20.9111 45.1499 20.9651 44.828 21.2571C44.1983 21.8338 43.4345 22.2442 42.606 22.4511L12.23 30.045C12.204 30.051 12.168 30.0551 12.134 30.059L15.616 32.049L47.552 22.013L46 21.1271Z" fill="#5D5D5D"/>
</g>
<defs>
<clipPath id="clip0_747_6668">
<rect width="48" height="48" fill="white" transform="translate(0.5)"/>
</clipPath>
</defs>
</svg>
