<svg width="290" height="291" viewBox="0 0 290 291" fill="none" xmlns="http://www.w3.org/2000/svg">
<path d="M87.7029 26.99H96.4908V18.2021C91.6374 18.2022 87.7029 22.1366 87.7029 26.99Z" fill="#006022"/>
<path d="M105.279 18.2021H96.491V26.99H105.279V18.2021Z" fill="#006022"/>
<path d="M105.279 18.2021V26.99H114.066C114.066 22.1365 110.132 18.2021 105.279 18.2021Z" fill="#006022"/>
<path d="M131.642 26.99H140.43V18.2021C135.577 18.2022 131.642 22.1366 131.642 26.99Z" fill="#006022"/>
<path d="M149.218 18.2021H140.43V26.99H149.218V18.2021Z" fill="#006022"/>
<path d="M149.218 18.2021V26.99H158.006C158.006 22.1365 154.071 18.2021 149.218 18.2021Z" fill="#006022"/>
<path d="M184.37 22.5961C184.37 23.6202 184.37 26.99 184.37 26.99C184.37 26.99 181.379 26.99 179.976 26.9898C178.881 26.99 175.582 26.9898 175.582 26.9898C175.582 26.9898 175.582 23.9274 175.582 22.596C175.582 20.1694 177.549 18.2021 179.976 18.2021C182.403 18.2021 184.37 20.1694 184.37 22.5961Z" fill="#006022"/>
<path d="M96.4908 26.9891H87.7029V35.777H96.4908V26.9891Z" fill="#006022"/>
<path d="M105.279 26.9891H96.491V35.777H105.279V26.9891Z" fill="#006022"/>
<path d="M114.066 26.9891H105.279V35.777H114.066V26.9891Z" fill="#006022"/>
<path d="M122.855 26.9891H114.067V35.777H122.855V26.9891Z" fill="#006022"/>
<path d="M131.642 26.9891H122.854V35.777H131.642V26.9891Z" fill="#006022"/>
<path d="M140.43 26.9891H131.642V35.777H140.43V26.9891Z" fill="#006022"/>
<path d="M149.218 26.9891H140.43V35.777H149.218V26.9891Z" fill="#006022"/>
<path d="M158.006 26.9891H149.218V35.777C154.071 35.777 158.006 31.8425 158.006 26.9891Z" fill="#006022"/>
<path d="M171.188 26.9891C172.212 26.9891 175.582 26.9891 175.582 26.9891C175.582 26.9891 175.582 29.9802 175.582 31.3831C175.582 32.4781 175.582 35.777 175.582 35.777C175.582 35.777 172.52 35.777 171.188 35.777C168.76 35.777 166.794 33.8089 166.794 31.3831C166.794 28.957 168.76 26.9891 171.188 26.9891Z" fill="#006022"/>
<path d="M184.37 26.9891H175.582V35.777H184.37V26.9891Z" fill="#006022"/>
<path d="M193.158 26.9891H184.37V35.777H193.158V26.9891Z" fill="#006022"/>
<path d="M193.157 26.9891V35.777H201.945C201.945 30.9235 198.011 26.9891 193.157 26.9891Z" fill="#006022"/>
<path d="M96.4908 44.5644V35.7765H87.7029C87.7029 40.6299 91.6373 44.5644 96.4908 44.5644Z" fill="#006022"/>
<path d="M105.279 35.7765H96.491V44.5644H105.279V35.7765Z" fill="#006022"/>
<path d="M114.066 35.7765H105.279V44.5644H114.066V35.7765Z" fill="#006022"/>
<path d="M122.855 35.7765H114.067V44.5644H122.855V35.7765Z" fill="#006022"/>
<path d="M140.43 44.5644V35.7765H131.642C131.642 40.6299 135.576 44.5644 140.43 44.5644Z" fill="#006022"/>
<path d="M149.218 35.7765H140.43V44.5644H149.218V35.7765Z" fill="#006022"/>
<path d="M201.945 35.7765H193.157V44.5644H201.945V35.7765Z" fill="#006022"/>
<path d="M105.279 44.5656H96.491V53.3534H105.279V44.5656Z" fill="#006022"/>
<path d="M114.066 44.5656H105.279V53.3534H114.066V44.5656Z" fill="#006022"/>
<path d="M122.855 44.5656H114.067V53.3534H122.855V44.5656Z" fill="#006022"/>
<path d="M122.854 44.5656V53.3534H131.642C131.642 48.4999 127.708 44.5656 122.854 44.5656Z" fill="#006022"/>
<path d="M149.218 53.3534V44.5656H140.43C140.43 49.419 144.365 53.3534 149.218 53.3534Z" fill="#006022"/>
<path d="M149.218 44.5656V53.3534H158.006C158.006 48.4999 154.071 44.5656 149.218 44.5656Z" fill="#006022"/>
<path d="M175.582 48.9595C175.582 49.9836 175.582 53.3534 175.582 53.3534C175.582 53.3534 172.59 53.3534 171.188 53.3532C170.092 53.3534 166.794 53.3532 166.794 53.3532C166.794 53.3532 166.794 50.2908 166.794 48.9594C166.794 46.5328 168.761 44.5656 171.188 44.5656C173.614 44.5656 175.582 46.5328 175.582 48.9595Z" fill="#006022"/>
<path d="M184.37 53.3534H193.158V44.5656C188.304 44.5656 184.37 48.5 184.37 53.3534Z" fill="#006022"/>
<path d="M201.945 44.5656H193.157V53.3534C198.011 53.3534 201.945 49.419 201.945 44.5656Z" fill="#006022"/>
<path d="M92.0968 53.3535C93.121 53.3535 96.4908 53.3535 96.4908 53.3535C96.4908 53.3535 96.4908 56.3446 96.4908 57.7475C96.4908 58.8425 96.4908 62.1414 96.4908 62.1414C96.4908 62.1414 93.4287 62.1414 92.0968 62.1414C89.6693 62.1414 87.7029 60.1733 87.7029 57.7475C87.7029 55.3214 89.6693 53.3535 92.0968 53.3535Z" fill="#006022"/>
<path d="M105.279 53.3535H96.491V62.1414H105.279V53.3535Z" fill="#006022"/>
<path d="M114.066 53.3535H105.279V62.1414C110.132 62.1414 114.066 58.2069 114.066 53.3535Z" fill="#006022"/>
<path d="M131.642 62.1414V53.3535H122.854C122.855 58.2069 126.789 62.1414 131.642 62.1414Z" fill="#006022"/>
<path d="M131.642 53.3535V62.1414H140.43C140.43 57.2879 136.495 53.3535 131.642 53.3535Z" fill="#006022"/>
<path d="M149.218 57.7475C149.218 56.7233 149.218 53.3535 149.218 53.3535C149.218 53.3535 152.209 53.3535 153.612 53.3535C154.707 53.3535 158.006 53.3535 158.006 53.3535C158.006 53.3535 158.006 56.4163 158.006 57.7475C158.006 60.174 156.038 62.1414 153.612 62.1414C151.185 62.1414 149.218 60.174 149.218 57.7475Z" fill="#006022"/>
<path d="M175.582 53.3535H166.794V62.1414H175.582V53.3535Z" fill="#006022"/>
<path d="M184.37 53.3535H175.582V62.1414H184.37V53.3535Z" fill="#006022"/>
<path d="M193.158 53.3535H184.37V62.1414C189.223 62.1414 193.158 58.2069 193.158 53.3535Z" fill="#006022"/>
<path d="M96.491 66.5346C96.491 65.5104 96.491 62.1406 96.491 62.1406C96.491 62.1406 99.4824 62.1406 100.885 62.1406C101.98 62.1406 105.279 62.1406 105.279 62.1406C105.279 62.1406 105.279 65.2034 105.279 66.5346C105.279 68.9611 103.311 70.9285 100.885 70.9285C98.4582 70.9285 96.491 68.9611 96.491 66.5346Z" fill="#006022"/>
<path d="M140.43 70.9285V62.1406H131.642C131.642 66.994 135.576 70.9285 140.43 70.9285Z" fill="#006022"/>
<path d="M140.43 62.1406V70.9285H149.218C149.218 66.075 145.284 62.1406 140.43 62.1406Z" fill="#006022"/>
<path d="M166.794 66.5346C166.794 65.5104 166.794 62.1406 166.794 62.1406C166.794 62.1406 169.785 62.1406 171.188 62.1406C172.283 62.1406 175.582 62.1406 175.582 62.1406C175.582 62.1406 175.582 65.2034 175.582 66.5346C175.582 68.9611 173.614 70.9285 171.188 70.9285C168.761 70.9285 166.794 68.9611 166.794 66.5346Z" fill="#006022"/>
<path d="M201.945 66.5346C201.945 67.5586 201.945 70.9285 201.945 70.9285C201.945 70.9285 198.954 70.9285 197.551 70.9283C196.456 70.9285 193.157 70.9283 193.157 70.9283C193.157 70.9283 193.157 67.8659 193.157 66.5345C193.157 64.1079 195.124 62.1406 197.551 62.1406C199.978 62.1406 201.945 64.1079 201.945 66.5346Z" fill="#006022"/>
<path d="M92.0968 70.9281C94.5236 70.9281 96.4908 72.8954 96.4908 75.322C96.4908 77.7488 94.5236 79.716 92.0968 79.716C89.6701 79.716 87.7029 77.7488 87.7029 75.322C87.7029 72.8954 89.6701 70.9281 92.0968 70.9281Z" fill="#006022"/>
<path d="M109.673 70.9281C112.099 70.9281 114.066 72.8954 114.066 75.322C114.066 77.7488 112.099 79.716 109.673 79.716C107.246 79.716 105.279 77.7488 105.279 75.322C105.279 72.8954 107.246 70.9281 109.673 70.9281Z" fill="#006022"/>
<path d="M131.642 75.322C131.642 76.3461 131.642 79.716 131.642 79.716C131.642 79.716 128.651 79.716 127.248 79.7158C126.153 79.716 122.854 79.7158 122.854 79.7158C122.854 79.7158 122.854 76.6534 122.854 75.3219C122.855 72.8954 124.822 70.9281 127.248 70.9281C129.675 70.9281 131.642 72.8954 131.642 75.322Z" fill="#006022"/>
<path d="M149.218 70.9281H140.43V79.716H149.218V70.9281Z" fill="#006022"/>
<path d="M162.4 70.9281C164.827 70.9281 166.794 72.8954 166.794 75.322C166.794 77.7488 164.827 79.716 162.4 79.716C159.973 79.716 158.006 77.7488 158.006 75.322C158.006 72.8954 159.973 70.9281 162.4 70.9281Z" fill="#006022"/>
<path d="M179.976 70.9281C182.403 70.9281 184.37 72.8954 184.37 75.322C184.37 77.7488 182.403 79.716 179.976 79.716C177.549 79.716 175.582 77.7488 175.582 75.322C175.582 72.8954 177.549 70.9281 179.976 70.9281Z" fill="#006022"/>
<path d="M193.157 75.322C193.157 74.2979 193.157 70.9281 193.157 70.9281C193.157 70.9281 196.149 70.9281 197.551 70.9281C198.647 70.9281 201.945 70.9281 201.945 70.9281C201.945 70.9281 201.945 73.9909 201.945 75.322C201.945 77.7486 199.978 79.716 197.551 79.716C195.124 79.716 193.157 77.7486 193.157 75.322Z" fill="#006022"/>
<path d="M105.279 84.1111C105.279 85.1352 105.279 88.505 105.279 88.505C105.279 88.505 102.288 88.505 100.885 88.5048C99.7895 88.505 96.491 88.5048 96.491 88.5048C96.491 88.5048 96.491 85.4424 96.491 84.111C96.4911 81.6844 98.4582 79.7172 100.885 79.7172C103.311 79.7172 105.279 81.6844 105.279 84.1111Z" fill="#006022"/>
<path d="M131.642 79.7172H122.854V88.505H131.642V79.7172Z" fill="#006022"/>
<path d="M149.218 79.7172H140.43V88.505H149.218V79.7172Z" fill="#006022"/>
<path d="M26.1878 92.8989C26.1878 93.923 26.1878 97.2929 26.1878 97.2929C26.1878 97.2929 23.1965 97.2929 21.7938 97.2927C20.6985 97.2929 17.3999 97.2927 17.3999 97.2927C17.3999 97.2927 17.3999 94.2303 17.3999 92.8988C17.4 90.4723 19.3671 88.505 21.7937 88.505C24.2204 88.505 26.1878 90.4723 26.1878 92.8989Z" fill="#006022"/>
<path d="M48.1574 88.505C49.1815 88.505 52.5513 88.505 52.5513 88.505C52.5513 88.505 52.5513 91.4961 52.5513 92.8989C52.5513 93.994 52.5513 97.2929 52.5513 97.2929C52.5513 97.2929 49.4893 97.2929 48.1574 97.2929C45.7298 97.2929 43.7634 95.3248 43.7634 92.8989C43.7634 90.4728 45.7298 88.505 48.1574 88.505Z" fill="#006022"/>
<path d="M61.3394 88.505H52.5515V97.2929H61.3394V88.505Z" fill="#006022"/>
<path d="M70.127 88.505H61.3391V97.2929H70.127V88.505Z" fill="#006022"/>
<path d="M78.9148 88.505H70.127V97.2929H78.9148V88.505Z" fill="#006022"/>
<path d="M87.7032 88.505H78.9153V97.2929H87.7032V88.505Z" fill="#006022"/>
<path d="M96.4908 88.505H87.7029V97.2929H96.4908V88.505Z" fill="#006022"/>
<path d="M105.279 88.505H96.491V97.2929C101.344 97.2929 105.279 93.3584 105.279 88.505Z" fill="#006022"/>
<path d="M131.642 88.505H122.854V97.2929H131.642V88.505Z" fill="#006022"/>
<path d="M140.43 88.505H131.642V97.2929H140.43V88.505Z" fill="#006022"/>
<path d="M149.218 88.505H140.43V97.2929H149.218V88.505Z" fill="#006022"/>
<path d="M158.006 88.505H149.218V97.2929H158.006V88.505Z" fill="#006022"/>
<path d="M166.794 88.505H158.006V97.2929H166.794V88.505Z" fill="#006022"/>
<path d="M166.794 88.505V97.2929H175.582C175.582 92.4394 171.647 88.505 166.794 88.505Z" fill="#006022"/>
<path d="M210.733 92.8989C210.733 93.923 210.733 97.2929 210.733 97.2929C210.733 97.2929 207.742 97.2929 206.339 97.2927C205.244 97.2929 201.945 97.2927 201.945 97.2927C201.945 97.2927 201.945 94.2303 201.945 92.8988C201.945 90.4723 203.913 88.505 206.339 88.505C208.766 88.505 210.733 90.4723 210.733 92.8989Z" fill="#006022"/>
<path d="M237.097 92.8989C237.097 93.923 237.097 97.2929 237.097 97.2929C237.097 97.2929 234.106 97.2929 232.703 97.2927C231.608 97.2929 228.309 97.2927 228.309 97.2927C228.309 97.2927 228.309 94.2303 228.309 92.8988C228.309 90.4723 230.276 88.505 232.703 88.505C235.13 88.505 237.097 90.4723 237.097 92.8989Z" fill="#006022"/>
<path d="M245.885 97.2929H254.673V88.505C249.819 88.505 245.885 92.4394 245.885 97.2929Z" fill="#006022"/>
<path d="M263.46 88.505H254.672V97.2929H263.46V88.505Z" fill="#006022"/>
<path d="M267.854 97.2929C266.83 97.2929 263.46 97.2929 263.46 97.2929C263.46 97.2929 263.46 94.3014 263.46 92.8989C263.46 91.8036 263.46 88.505 263.46 88.505C263.46 88.505 266.523 88.505 267.854 88.505C270.281 88.505 272.248 90.4722 272.248 92.8989C272.248 95.3255 270.281 97.2929 267.854 97.2929Z" fill="#006022"/>
<path d="M17.3999 101.686C17.3999 100.662 17.3999 97.2924 17.3999 97.2924C17.3999 97.2924 20.3913 97.2924 21.7938 97.2924C22.8892 97.2924 26.1878 97.2924 26.1878 97.2924C26.1878 97.2924 26.1878 100.355 26.1878 101.686C26.1878 104.113 24.2204 106.08 21.7938 106.08C19.3671 106.08 17.3999 104.113 17.3999 101.686Z" fill="#006022"/>
<path d="M43.7637 101.686C43.7637 102.71 43.7637 106.08 43.7637 106.08C43.7637 106.08 40.7724 106.08 39.3698 106.08C38.2744 106.08 34.9758 106.08 34.9758 106.08C34.9758 106.08 34.9758 103.018 34.9758 101.686C34.9759 99.2596 36.9431 97.2924 39.3697 97.2924C41.7963 97.2924 43.7637 99.2596 43.7637 101.686Z" fill="#006022"/>
<path d="M87.7029 101.686C87.7029 100.662 87.7029 97.2924 87.7029 97.2924C87.7029 97.2924 90.6943 97.2924 92.0968 97.2924C93.1922 97.2924 96.4908 97.2924 96.4908 97.2924C96.4908 97.2924 96.4908 100.355 96.4908 101.686C96.4908 104.113 94.5234 106.08 92.0968 106.08C89.6701 106.08 87.7029 104.113 87.7029 101.686Z" fill="#006022"/>
<path d="M122.854 101.686C122.854 100.662 122.854 97.2924 122.854 97.2924C122.854 97.2924 125.846 97.2924 127.248 97.2924C128.344 97.2924 131.642 97.2924 131.642 97.2924C131.642 97.2924 131.642 100.355 131.642 101.686C131.642 104.113 129.675 106.08 127.248 106.08C124.822 106.08 122.854 104.113 122.854 101.686Z" fill="#006022"/>
<path d="M149.218 97.2924H140.43V106.08H149.218V97.2924Z" fill="#006022"/>
<path d="M175.582 97.2924H166.794V106.08H175.582V97.2924Z" fill="#006022"/>
<path d="M188.764 97.2924C191.19 97.2924 193.158 99.2596 193.158 101.686C193.158 104.113 191.19 106.08 188.764 106.08C186.337 106.08 184.37 104.113 184.37 101.686C184.37 99.2596 186.337 97.2924 188.764 97.2924Z" fill="#006022"/>
<path d="M210.733 97.2924H201.945V106.08H210.733V97.2924Z" fill="#006022"/>
<path d="M219.521 106.08H228.309V97.2924C223.456 97.2924 219.521 101.227 219.521 106.08Z" fill="#006022"/>
<path d="M237.097 97.2924H228.309V106.08C233.162 106.08 237.097 102.146 237.097 97.2924Z" fill="#006022"/>
<path d="M254.673 97.2924H245.885V106.08H254.673V97.2924Z" fill="#006022"/>
<path d="M263.46 97.2924H254.672V106.08C259.526 106.08 263.46 102.146 263.46 97.2924Z" fill="#006022"/>
<path d="M30.5817 106.08C31.6058 106.08 34.9756 106.08 34.9756 106.08C34.9756 106.08 34.9756 109.071 34.9756 110.474C34.9756 111.569 34.9756 114.868 34.9756 114.868C34.9756 114.868 31.9136 114.868 30.5817 114.868C28.1541 114.868 26.1877 112.9 26.1877 110.474C26.1877 108.048 28.1541 106.08 30.5817 106.08Z" fill="#006022"/>
<path d="M43.7637 106.08H34.9758V114.868C39.8292 114.868 43.7637 110.933 43.7637 106.08Z" fill="#006022"/>
<path d="M52.5515 114.868H61.3394V106.08C56.486 106.08 52.5515 110.014 52.5515 114.868Z" fill="#006022"/>
<path d="M70.1272 106.08H61.3394V114.868H70.1272V106.08Z" fill="#006022"/>
<path d="M74.5209 114.868C73.4967 114.868 70.127 114.868 70.127 114.868C70.127 114.868 70.127 111.876 70.127 110.474C70.127 109.379 70.127 106.08 70.127 106.08C70.127 106.08 73.1897 106.08 74.5209 106.08C76.9475 106.08 78.9148 108.047 78.9148 110.474C78.9148 112.9 76.9475 114.868 74.5209 114.868Z" fill="#006022"/>
<path d="M96.491 114.868H105.279V106.08C100.425 106.08 96.491 110.014 96.491 114.868Z" fill="#006022"/>
<path d="M105.279 106.08V114.868H114.066C114.066 110.014 110.132 106.08 105.279 106.08Z" fill="#006022"/>
<path d="M149.218 106.08H140.43V114.868H149.218V106.08Z" fill="#006022"/>
<path d="M175.582 106.08H166.794V114.868H175.582V106.08Z" fill="#006022"/>
<path d="M179.976 114.868C178.952 114.868 175.582 114.868 175.582 114.868C175.582 114.868 175.582 111.876 175.582 110.474C175.582 109.379 175.582 106.08 175.582 106.08C175.582 106.08 178.645 106.08 179.976 106.08C182.403 106.08 184.37 108.047 184.37 110.474C184.37 112.9 182.403 114.868 179.976 114.868Z" fill="#006022"/>
<path d="M210.733 106.08H201.945V114.868H210.733V106.08Z" fill="#006022"/>
<path d="M219.521 110.474C219.521 109.45 219.521 106.08 219.521 106.08C219.521 106.08 222.513 106.08 223.915 106.08C225.011 106.08 228.309 106.08 228.309 106.08C228.309 106.08 228.309 109.143 228.309 110.474C228.309 112.9 226.342 114.868 223.915 114.868C221.488 114.868 219.521 112.9 219.521 110.474Z" fill="#006022"/>
<path d="M245.885 110.474C245.885 109.45 245.885 106.08 245.885 106.08C245.885 106.08 248.876 106.08 250.279 106.08C251.374 106.08 254.673 106.08 254.673 106.08C254.673 106.08 254.673 109.143 254.673 110.474C254.673 112.9 252.705 114.868 250.279 114.868C247.852 114.868 245.885 112.9 245.885 110.474Z" fill="#006022"/>
<path d="M43.7634 123.657H52.5513V114.869C47.698 114.869 43.7634 118.803 43.7634 123.657Z" fill="#006022"/>
<path d="M61.3394 114.869H52.5515V123.657C57.4049 123.657 61.3394 119.722 61.3394 114.869Z" fill="#006022"/>
<path d="M92.0968 114.869C93.121 114.869 96.4908 114.869 96.4908 114.869C96.4908 114.869 96.4908 117.86 96.4908 119.263C96.4908 120.358 96.4908 123.657 96.4908 123.657C96.4908 123.657 93.4287 123.657 92.0968 123.657C89.6693 123.657 87.7029 121.688 87.7029 119.263C87.7029 116.836 89.6693 114.869 92.0968 114.869Z" fill="#006022"/>
<path d="M105.279 114.869H96.491V123.657H105.279V114.869Z" fill="#006022"/>
<path d="M114.066 114.869H105.279V123.657H114.066V114.869Z" fill="#006022"/>
<path d="M149.218 114.869H140.43V123.657H149.218V114.869Z" fill="#006022"/>
<path d="M153.612 123.657C152.588 123.657 149.218 123.657 149.218 123.657C149.218 123.657 149.218 120.665 149.218 119.263C149.218 118.167 149.218 114.869 149.218 114.869C149.218 114.869 152.281 114.869 153.612 114.869C156.038 114.869 158.006 116.836 158.006 119.263C158.006 121.689 156.038 123.657 153.612 123.657Z" fill="#006022"/>
<path d="M166.794 119.263C166.794 118.238 166.794 114.869 166.794 114.869C166.794 114.869 169.785 114.869 171.188 114.869C172.283 114.869 175.582 114.869 175.582 114.869C175.582 114.869 175.582 117.931 175.582 119.263C175.582 121.689 173.614 123.657 171.188 123.657C168.761 123.657 166.794 121.689 166.794 119.263Z" fill="#006022"/>
<path d="M193.157 123.657H201.945V114.869C197.092 114.869 193.157 118.803 193.157 123.657Z" fill="#006022"/>
<path d="M210.733 114.869H201.945V123.657H210.733V114.869Z" fill="#006022"/>
<path d="M210.733 114.869V123.657H219.521C219.521 118.803 215.586 114.869 210.733 114.869Z" fill="#006022"/>
<path d="M241.491 114.869C243.918 114.869 245.885 116.836 245.885 119.263C245.885 121.689 243.918 123.657 241.491 123.657C239.064 123.657 237.097 121.689 237.097 119.263C237.097 116.836 239.064 114.869 241.491 114.869Z" fill="#006022"/>
<path d="M272.248 119.263C272.248 120.287 272.248 123.657 272.248 123.657C272.248 123.657 269.257 123.657 267.854 123.656C266.759 123.657 263.46 123.656 263.46 123.656C263.46 123.656 263.46 120.594 263.46 119.262C263.461 116.836 265.428 114.869 267.854 114.869C270.281 114.869 272.248 116.836 272.248 119.263Z" fill="#006022"/>
<path d="M21.7938 123.656C22.818 123.656 26.1878 123.656 26.1878 123.656C26.1878 123.656 26.1878 126.648 26.1878 128.05C26.1878 129.145 26.1878 132.444 26.1878 132.444C26.1878 132.444 23.1258 132.444 21.7938 132.444C19.3663 132.444 17.3999 130.476 17.3999 128.05C17.3999 125.624 19.3663 123.656 21.7938 123.656Z" fill="#006022"/>
<path d="M34.9754 123.656H26.1875V132.444H34.9754V123.656Z" fill="#006022"/>
<path d="M43.7635 123.656H34.9756V132.444H43.7635V123.656Z" fill="#006022"/>
<path d="M52.5513 123.656H43.7634V132.444C48.6168 132.444 52.5513 128.51 52.5513 123.656Z" fill="#006022"/>
<path d="M74.5209 123.656C76.9477 123.656 78.9148 125.624 78.9148 128.05C78.9148 130.477 76.9477 132.444 74.5209 132.444C72.0942 132.444 70.127 130.477 70.127 128.05C70.127 125.624 72.0942 123.656 74.5209 123.656Z" fill="#006022"/>
<path d="M105.279 128.05C105.279 127.026 105.279 123.656 105.279 123.656C105.279 123.656 108.27 123.656 109.673 123.656C110.768 123.656 114.066 123.656 114.066 123.656C114.066 123.656 114.066 126.719 114.066 128.05C114.066 130.477 112.099 132.444 109.673 132.444C107.246 132.444 105.279 130.477 105.279 128.05Z" fill="#006022"/>
<path d="M122.854 132.444H131.642V123.656C126.789 123.657 122.854 127.591 122.854 132.444Z" fill="#006022"/>
<path d="M140.43 123.656H131.642V132.444H140.43V123.656Z" fill="#006022"/>
<path d="M149.218 123.656H140.43V132.444C145.284 132.444 149.218 128.51 149.218 123.656Z" fill="#006022"/>
<path d="M184.37 128.05C184.37 129.075 184.37 132.444 184.37 132.444C184.37 132.444 181.379 132.444 179.976 132.444C178.881 132.444 175.582 132.444 175.582 132.444C175.582 132.444 175.582 129.382 175.582 128.05C175.582 125.624 177.549 123.656 179.976 123.656C182.403 123.656 184.37 125.624 184.37 128.05Z" fill="#006022"/>
<path d="M193.157 128.05C193.157 127.026 193.157 123.656 193.157 123.656C193.157 123.656 196.149 123.656 197.551 123.656C198.647 123.656 201.945 123.656 201.945 123.656C201.945 123.656 201.945 126.719 201.945 128.05C201.945 130.477 199.978 132.444 197.551 132.444C195.124 132.444 193.157 130.477 193.157 128.05Z" fill="#006022"/>
<path d="M219.521 123.656H210.733V132.444H219.521V123.656Z" fill="#006022"/>
<path d="M223.915 132.444C222.891 132.444 219.521 132.444 219.521 132.444C219.521 132.444 219.521 129.453 219.521 128.05C219.521 126.955 219.521 123.656 219.521 123.656C219.521 123.656 222.584 123.656 223.915 123.656C226.342 123.656 228.309 125.624 228.309 128.05C228.309 130.477 226.342 132.444 223.915 132.444Z" fill="#006022"/>
<path d="M272.248 123.656H263.46V132.444H272.248V123.656Z" fill="#006022"/>
<path d="M34.9758 136.838C34.9758 135.813 34.9758 132.444 34.9758 132.444C34.9758 132.444 37.9672 132.444 39.3698 132.444C40.4652 132.444 43.7637 132.444 43.7637 132.444C43.7637 132.444 43.7637 135.506 43.7637 136.838C43.7637 139.264 41.7963 141.231 39.3698 141.231C36.9431 141.231 34.9758 139.264 34.9758 136.838Z" fill="#006022"/>
<path d="M118.461 132.444C119.485 132.444 122.855 132.444 122.855 132.444C122.855 132.444 122.855 135.435 122.855 136.838C122.855 137.933 122.855 141.231 122.855 141.231C122.855 141.231 119.792 141.231 118.461 141.231C116.033 141.231 114.067 139.263 114.067 136.838C114.067 134.411 116.033 132.444 118.461 132.444Z" fill="#006022"/>
<path d="M131.642 132.444H122.854V141.231C127.708 141.231 131.642 137.297 131.642 132.444Z" fill="#006022"/>
<path d="M166.794 141.231H175.582V132.444C170.728 132.444 166.794 136.378 166.794 141.231Z" fill="#006022"/>
<path d="M184.37 132.444H175.582V141.231C180.435 141.231 184.37 137.297 184.37 132.444Z" fill="#006022"/>
<path d="M201.945 141.231H210.733V132.444C205.88 132.444 201.945 136.378 201.945 141.231Z" fill="#006022"/>
<path d="M219.521 132.444H210.733V141.231H219.521V132.444Z" fill="#006022"/>
<path d="M232.703 132.444C233.727 132.444 237.097 132.444 237.097 132.444C237.097 132.444 237.097 135.435 237.097 136.838C237.097 137.933 237.097 141.231 237.097 141.231C237.097 141.231 234.035 141.231 232.703 141.231C230.275 141.231 228.309 139.263 228.309 136.838C228.309 134.411 230.275 132.444 232.703 132.444Z" fill="#006022"/>
<path d="M245.885 132.444H237.097V141.231H245.885V132.444Z" fill="#006022"/>
<path d="M254.673 132.444H245.885V141.231H254.673V132.444Z" fill="#006022"/>
<path d="M263.46 132.444H254.672V141.231H263.46V132.444Z" fill="#006022"/>
<path d="M272.248 132.444H263.46V141.231H272.248V132.444Z" fill="#006022"/>
<path d="M34.9756 145.625C34.9756 146.649 34.9756 150.019 34.9756 150.019C34.9756 150.019 31.9843 150.019 30.5817 150.019C29.4863 150.019 26.1877 150.019 26.1877 150.019C26.1877 150.019 26.1877 146.957 26.1877 145.625C26.1878 143.199 28.155 141.231 30.5816 141.231C33.0083 141.231 34.9756 143.199 34.9756 145.625Z" fill="#006022"/>
<path d="M65.7333 141.231C66.7574 141.231 70.1272 141.231 70.1272 141.231C70.1272 141.231 70.1272 144.223 70.1272 145.625C70.1272 146.72 70.1272 150.019 70.1272 150.019C70.1272 150.019 67.0652 150.019 65.7333 150.019C63.3057 150.019 61.3394 148.051 61.3394 145.625C61.3394 143.199 63.3057 141.231 65.7333 141.231Z" fill="#006022"/>
<path d="M78.9148 141.231H70.127V150.019H78.9148V141.231Z" fill="#006022"/>
<path d="M87.7032 141.231H78.9153V150.019H87.7032V141.231Z" fill="#006022"/>
<path d="M92.0968 150.019C91.0727 150.019 87.7029 150.019 87.7029 150.019C87.7029 150.019 87.7029 147.028 87.7029 145.625C87.7029 144.53 87.7029 141.231 87.7029 141.231C87.7029 141.231 90.7657 141.231 92.0968 141.231C94.5234 141.231 96.4908 143.199 96.4908 145.625C96.4908 148.052 94.5234 150.019 92.0968 150.019Z" fill="#006022"/>
<path d="M114.066 145.625C114.066 146.649 114.066 150.019 114.066 150.019C114.066 150.019 111.075 150.019 109.673 150.019C108.577 150.019 105.279 150.019 105.279 150.019C105.279 150.019 105.279 146.957 105.279 145.625C105.279 143.199 107.246 141.231 109.672 141.231C112.099 141.231 114.066 143.199 114.066 145.625Z" fill="#006022"/>
<path d="M140.43 150.019H149.218V141.231C144.365 141.231 140.43 145.166 140.43 150.019Z" fill="#006022"/>
<path d="M153.612 150.019C152.588 150.019 149.218 150.019 149.218 150.019C149.218 150.019 149.218 147.028 149.218 145.625C149.218 144.53 149.218 141.231 149.218 141.231C149.218 141.231 152.281 141.231 153.612 141.231C156.038 141.231 158.006 143.199 158.006 145.625C158.006 148.052 156.038 150.019 153.612 150.019Z" fill="#006022"/>
<path d="M166.794 145.625C166.794 144.601 166.794 141.231 166.794 141.231C166.794 141.231 169.785 141.231 171.188 141.231C172.283 141.231 175.582 141.231 175.582 141.231C175.582 141.231 175.582 144.294 175.582 145.625C175.582 148.052 173.614 150.019 171.188 150.019C168.761 150.019 166.794 148.052 166.794 145.625Z" fill="#006022"/>
<path d="M188.764 141.231C189.788 141.231 193.158 141.231 193.158 141.231C193.158 141.231 193.158 144.223 193.158 145.625C193.158 146.72 193.158 150.019 193.158 150.019C193.158 150.019 190.095 150.019 188.764 150.019C186.336 150.019 184.37 148.051 184.37 145.625C184.37 143.199 186.336 141.231 188.764 141.231Z" fill="#006022"/>
<path d="M201.945 141.231H193.157V150.019H201.945V141.231Z" fill="#006022"/>
<path d="M210.733 141.231H201.945V150.019H210.733V141.231Z" fill="#006022"/>
<path d="M219.521 141.231H210.733V150.019H219.521V141.231Z" fill="#006022"/>
<path d="M219.521 141.231V150.019H228.309C228.309 145.166 224.375 141.231 219.521 141.231Z" fill="#006022"/>
<path d="M254.673 141.231H245.885V150.019H254.673V141.231Z" fill="#006022"/>
<path d="M272.248 141.231H263.46V150.019H272.248V141.231Z" fill="#006022"/>
<path d="M21.7938 150.02C22.818 150.02 26.1878 150.02 26.1878 150.02C26.1878 150.02 26.1878 153.011 26.1878 154.414C26.1878 155.509 26.1878 158.808 26.1878 158.808C26.1878 158.808 23.1258 158.808 21.7938 158.808C19.3663 158.808 17.3999 156.84 17.3999 154.414C17.3999 151.988 19.3663 150.02 21.7938 150.02Z" fill="#006022"/>
<path d="M34.9754 150.02H26.1875V158.808C31.0409 158.808 34.9754 154.873 34.9754 150.02Z" fill="#006022"/>
<path d="M61.3394 154.414C61.3394 155.438 61.3394 158.808 61.3394 158.808C61.3394 158.808 58.3481 158.808 56.9455 158.808C55.8501 158.808 52.5515 158.808 52.5515 158.808C52.5515 158.808 52.5515 155.745 52.5515 154.414C52.5516 151.987 54.5188 150.02 56.9453 150.02C59.372 150.02 61.3394 151.987 61.3394 154.414Z" fill="#006022"/>
<path d="M78.9153 154.414C78.9153 153.39 78.9153 150.02 78.9153 150.02C78.9153 150.02 81.9067 150.02 83.3092 150.02C84.4046 150.02 87.7032 150.02 87.7032 150.02C87.7032 150.02 87.7032 153.083 87.7032 154.414C87.7032 156.841 85.7358 158.808 83.3092 158.808C80.8825 158.808 78.9153 156.841 78.9153 154.414Z" fill="#006022"/>
<path d="M100.885 150.02C101.909 150.02 105.279 150.02 105.279 150.02C105.279 150.02 105.279 153.011 105.279 154.414C105.279 155.509 105.279 158.808 105.279 158.808C105.279 158.808 102.217 158.808 100.885 158.808C98.4574 158.808 96.491 156.84 96.491 154.414C96.491 151.988 98.4574 150.02 100.885 150.02Z" fill="#006022"/>
<path d="M114.066 150.02H105.279V158.808C110.132 158.808 114.066 154.873 114.066 150.02Z" fill="#006022"/>
<path d="M136.036 150.02C137.06 150.02 140.43 150.02 140.43 150.02C140.43 150.02 140.43 153.011 140.43 154.414C140.43 155.509 140.43 158.808 140.43 158.808C140.43 158.808 137.368 158.808 136.036 158.808C133.608 158.808 131.642 156.84 131.642 154.414C131.642 151.988 133.608 150.02 136.036 150.02Z" fill="#006022"/>
<path d="M149.218 150.02H140.43V158.808C145.284 158.808 149.218 154.873 149.218 150.02Z" fill="#006022"/>
<path d="M162.4 150.02C164.827 150.02 166.794 151.987 166.794 154.414C166.794 156.841 164.827 158.808 162.4 158.808C159.973 158.808 158.006 156.841 158.006 154.414C158.006 151.987 159.973 150.02 162.4 150.02Z" fill="#006022"/>
<path d="M179.976 150.02C182.403 150.02 184.37 151.987 184.37 154.414C184.37 156.841 182.403 158.808 179.976 158.808C177.549 158.808 175.582 156.841 175.582 154.414C175.582 151.987 177.549 150.02 179.976 150.02Z" fill="#006022"/>
<path d="M228.309 158.808V150.02H219.521C219.521 154.873 223.456 158.808 228.309 158.808Z" fill="#006022"/>
<path d="M232.703 158.808C231.679 158.808 228.309 158.808 228.309 158.808C228.309 158.808 228.309 155.816 228.309 154.414C228.309 153.319 228.309 150.02 228.309 150.02C228.309 150.02 231.372 150.02 232.703 150.02C235.13 150.02 237.097 151.987 237.097 154.414C237.097 156.841 235.13 158.808 232.703 158.808Z" fill="#006022"/>
<path d="M245.885 154.414C245.885 153.39 245.885 150.02 245.885 150.02C245.885 150.02 248.876 150.02 250.279 150.02C251.374 150.02 254.673 150.02 254.673 150.02C254.673 150.02 254.673 153.083 254.673 154.414C254.673 156.841 252.705 158.808 250.279 158.808C247.852 158.808 245.885 156.841 245.885 154.414Z" fill="#006022"/>
<path d="M263.46 154.414C263.46 153.39 263.46 150.02 263.46 150.02C263.46 150.02 266.452 150.02 267.854 150.02C268.95 150.02 272.248 150.02 272.248 150.02C272.248 150.02 272.248 153.083 272.248 154.414C272.248 156.841 270.281 158.808 267.854 158.808C265.428 158.808 263.46 156.841 263.46 154.414Z" fill="#006022"/>
<path d="M52.5515 163.202C52.5515 162.178 52.5515 158.808 52.5515 158.808C52.5515 158.808 55.5429 158.808 56.9455 158.808C58.0408 158.808 61.3394 158.808 61.3394 158.808C61.3394 158.808 61.3394 161.871 61.3394 163.202C61.3394 165.628 59.372 167.596 56.9455 167.596C54.5188 167.596 52.5515 165.628 52.5515 163.202Z" fill="#006022"/>
<path d="M74.5209 158.808C76.9477 158.808 78.9148 160.775 78.9148 163.202C78.9148 165.629 76.9477 167.596 74.5209 167.596C72.0942 167.596 70.127 165.629 70.127 163.202C70.127 160.775 72.0942 158.808 74.5209 158.808Z" fill="#006022"/>
<path d="M127.248 158.808C129.675 158.808 131.642 160.775 131.642 163.202C131.642 165.629 129.675 167.596 127.248 167.596C124.822 167.596 122.854 165.629 122.854 163.202C122.854 160.775 124.822 158.808 127.248 158.808Z" fill="#006022"/>
<path d="M153.612 158.808C156.039 158.808 158.006 160.775 158.006 163.202C158.006 165.629 156.039 167.596 153.612 167.596C151.185 167.596 149.218 165.629 149.218 163.202C149.218 160.775 151.185 158.808 153.612 158.808Z" fill="#006022"/>
<path d="M184.37 167.596H193.158V158.808C188.304 158.808 184.37 162.742 184.37 167.596Z" fill="#006022"/>
<path d="M197.551 167.596C196.527 167.596 193.157 167.596 193.157 167.596C193.157 167.596 193.157 164.604 193.157 163.202C193.157 162.106 193.157 158.808 193.157 158.808C193.157 158.808 196.22 158.808 197.551 158.808C199.978 158.808 201.945 160.775 201.945 163.202C201.945 165.628 199.978 167.596 197.551 167.596Z" fill="#006022"/>
<path d="M241.491 158.808C243.918 158.808 245.885 160.775 245.885 163.202C245.885 165.629 243.918 167.596 241.491 167.596C239.064 167.596 237.097 165.629 237.097 163.202C237.097 160.775 239.064 158.808 241.491 158.808Z" fill="#006022"/>
<path d="M26.1878 171.989C26.1878 173.013 26.1878 176.383 26.1878 176.383C26.1878 176.383 23.1965 176.383 21.7938 176.383C20.6985 176.383 17.3999 176.383 17.3999 176.383C17.3999 176.383 17.3999 173.32 17.3999 171.989C17.4 169.562 19.3671 167.595 21.7937 167.595C24.2204 167.595 26.1878 169.562 26.1878 171.989Z" fill="#006022"/>
<path d="M48.1574 167.595C50.5842 167.595 52.5513 169.562 52.5513 171.989C52.5513 174.416 50.5842 176.383 48.1574 176.383C45.7307 176.383 43.7634 174.416 43.7634 171.989C43.7634 169.562 45.7307 167.595 48.1574 167.595Z" fill="#006022"/>
<path d="M92.0968 167.595C93.121 167.595 96.4908 167.595 96.4908 167.595C96.4908 167.595 96.4908 170.586 96.4908 171.989C96.4908 173.084 96.4908 176.383 96.4908 176.383C96.4908 176.383 93.4287 176.383 92.0968 176.383C89.6693 176.383 87.7029 174.415 87.7029 171.989C87.7029 169.563 89.6693 167.595 92.0968 167.595Z" fill="#006022"/>
<path d="M96.491 167.595V176.383H105.279C105.279 171.529 101.344 167.595 96.491 167.595Z" fill="#006022"/>
<path d="M171.188 167.595C172.212 167.595 175.582 167.595 175.582 167.595C175.582 167.595 175.582 170.586 175.582 171.989C175.582 173.084 175.582 176.383 175.582 176.383C175.582 176.383 172.52 176.383 171.188 176.383C168.76 176.383 166.794 174.415 166.794 171.989C166.794 169.563 168.76 167.595 171.188 167.595Z" fill="#006022"/>
<path d="M184.37 167.595H175.582V176.383H184.37V167.595Z" fill="#006022"/>
<path d="M193.158 167.595H184.37V176.383H193.158V167.595Z" fill="#006022"/>
<path d="M232.703 167.595C235.13 167.595 237.097 169.562 237.097 171.989C237.097 174.416 235.13 176.383 232.703 176.383C230.276 176.383 228.309 174.416 228.309 171.989C228.309 169.562 230.276 167.595 232.703 167.595Z" fill="#006022"/>
<path d="M250.279 167.595C251.303 167.595 254.673 167.595 254.673 167.595C254.673 167.595 254.673 170.586 254.673 171.989C254.673 173.084 254.673 176.383 254.673 176.383C254.673 176.383 251.611 176.383 250.279 176.383C247.851 176.383 245.885 174.415 245.885 171.989C245.885 169.563 247.851 167.595 250.279 167.595Z" fill="#006022"/>
<path d="M259.066 176.383C258.042 176.383 254.672 176.383 254.672 176.383C254.672 176.383 254.672 173.391 254.672 171.989C254.672 170.894 254.672 167.595 254.672 167.595C254.672 167.595 257.735 167.595 259.066 167.595C261.493 167.595 263.46 169.562 263.46 171.989C263.46 174.416 261.493 176.383 259.066 176.383Z" fill="#006022"/>
<path d="M26.1878 176.383H17.3999V185.171H26.1878V176.383Z" fill="#006022"/>
<path d="M34.9756 176.383H26.1877V185.171H34.9756V176.383Z" fill="#006022"/>
<path d="M39.3698 185.171C38.3456 185.171 34.9758 185.171 34.9758 185.171C34.9758 185.171 34.9758 182.179 34.9758 180.777C34.9758 179.681 34.9758 176.383 34.9758 176.383C34.9758 176.383 38.0386 176.383 39.3698 176.383C41.7963 176.383 43.7637 178.35 43.7637 180.777C43.7637 183.203 41.7963 185.171 39.3698 185.171Z" fill="#006022"/>
<path d="M74.5209 176.383C75.545 176.383 78.9148 176.383 78.9148 176.383C78.9148 176.383 78.9148 179.374 78.9148 180.777C78.9148 181.872 78.9148 185.171 78.9148 185.171C78.9148 185.171 75.8528 185.171 74.5209 185.171C72.0933 185.171 70.127 183.203 70.127 180.777C70.127 178.351 72.0933 176.383 74.5209 176.383Z" fill="#006022"/>
<path d="M78.9153 176.383V185.171H87.7032C87.7032 180.317 83.7687 176.383 78.9153 176.383Z" fill="#006022"/>
<path d="M105.279 176.383H96.491V185.171H105.279V176.383Z" fill="#006022"/>
<path d="M105.279 176.383V185.171H114.066C114.066 180.317 110.132 176.383 105.279 176.383Z" fill="#006022"/>
<path d="M131.642 185.171H140.43V176.383C135.577 176.383 131.642 180.317 131.642 185.171Z" fill="#006022"/>
<path d="M144.824 185.171C143.8 185.171 140.43 185.171 140.43 185.171C140.43 185.171 140.43 182.179 140.43 180.777C140.43 179.681 140.43 176.383 140.43 176.383C140.43 176.383 143.493 176.383 144.824 176.383C147.251 176.383 149.218 178.35 149.218 180.777C149.218 183.203 147.251 185.171 144.824 185.171Z" fill="#006022"/>
<path d="M166.794 180.777C166.794 181.801 166.794 185.171 166.794 185.171C166.794 185.171 163.803 185.171 162.4 185.171C161.305 185.171 158.006 185.171 158.006 185.171C158.006 185.171 158.006 182.108 158.006 180.777C158.006 178.35 159.973 176.383 162.4 176.383C164.827 176.383 166.794 178.35 166.794 180.777Z" fill="#006022"/>
<path d="M184.37 185.171V176.383H175.582C175.582 181.236 179.516 185.171 184.37 185.171Z" fill="#006022"/>
<path d="M193.158 176.383H184.37V185.171H193.158V176.383Z" fill="#006022"/>
<path d="M201.945 185.171H210.733V176.383C205.88 176.383 201.945 180.317 201.945 185.171Z" fill="#006022"/>
<path d="M210.733 176.383V185.171H219.521C219.521 180.317 215.586 176.383 210.733 176.383Z" fill="#006022"/>
<path d="M245.885 180.777C245.885 181.801 245.885 185.171 245.885 185.171C245.885 185.171 242.894 185.171 241.491 185.171C240.396 185.171 237.097 185.171 237.097 185.171C237.097 185.171 237.097 182.108 237.097 180.777C237.097 178.35 239.064 176.383 241.491 176.383C243.918 176.383 245.885 178.35 245.885 180.777Z" fill="#006022"/>
<path d="M267.854 176.383C270.281 176.383 272.248 178.35 272.248 180.777C272.248 183.204 270.281 185.171 267.854 185.171C265.428 185.171 263.46 183.204 263.46 180.777C263.46 178.35 265.428 176.383 267.854 176.383Z" fill="#006022"/>
<path d="M26.1878 185.172H17.3999V193.96H26.1878V185.172Z" fill="#006022"/>
<path d="M34.9754 185.172H26.1875V193.96H34.9754V185.172Z" fill="#006022"/>
<path d="M56.9455 185.172C57.9696 185.172 61.3394 185.172 61.3394 185.172C61.3394 185.172 61.3394 188.163 61.3394 189.566C61.3394 190.661 61.3394 193.96 61.3394 193.96C61.3394 193.96 58.2774 193.96 56.9455 193.96C54.5179 193.96 52.5515 191.992 52.5515 189.566C52.5515 187.14 54.5179 185.172 56.9455 185.172Z" fill="#006022"/>
<path d="M61.3391 185.172V193.96H70.127C70.127 189.106 66.1925 185.172 61.3391 185.172Z" fill="#006022"/>
<path d="M87.7032 193.96V185.172H78.9153C78.9153 190.025 82.8497 193.96 87.7032 193.96Z" fill="#006022"/>
<path d="M96.4908 185.172H87.7029V193.96H96.4908V185.172Z" fill="#006022"/>
<path d="M105.279 185.172H96.491V193.96H105.279V185.172Z" fill="#006022"/>
<path d="M114.066 185.172H105.279V193.96H114.066V185.172Z" fill="#006022"/>
<path d="M118.461 193.96C117.437 193.96 114.067 193.96 114.067 193.96C114.067 193.96 114.067 190.968 114.067 189.566C114.067 188.47 114.067 185.172 114.067 185.172C114.067 185.172 117.13 185.172 118.461 185.172C120.887 185.172 122.855 187.139 122.855 189.566C122.855 191.992 120.887 193.96 118.461 193.96Z" fill="#006022"/>
<path d="M140.43 185.172H131.642V193.96H140.43V185.172Z" fill="#006022"/>
<path d="M153.612 185.172C154.636 185.172 158.006 185.172 158.006 185.172C158.006 185.172 158.006 188.163 158.006 189.566C158.006 190.661 158.006 193.96 158.006 193.96C158.006 193.96 154.944 193.96 153.612 193.96C151.184 193.96 149.218 191.992 149.218 189.566C149.218 187.14 151.184 185.172 153.612 185.172Z" fill="#006022"/>
<path d="M166.794 185.172H158.006V193.96C162.86 193.96 166.794 190.025 166.794 185.172Z" fill="#006022"/>
<path d="M193.158 185.172H184.37V193.96H193.158V185.172Z" fill="#006022"/>
<path d="M210.733 185.172H201.945V193.96H210.733V185.172Z" fill="#006022"/>
<path d="M219.521 185.172H210.733V193.96H219.521V185.172Z" fill="#006022"/>
<path d="M228.309 185.172H219.521V193.96H228.309V185.172Z" fill="#006022"/>
<path d="M237.097 185.172H228.309V193.96H237.097V185.172Z" fill="#006022"/>
<path d="M245.885 185.172H237.097V193.96H245.885V185.172Z" fill="#006022"/>
<path d="M245.885 185.172V193.96H254.673C254.673 189.106 250.738 185.172 245.885 185.172Z" fill="#006022"/>
<path d="M26.1878 202.747V193.96H17.3999C17.3999 198.813 21.3343 202.747 26.1878 202.747Z" fill="#006022"/>
<path d="M34.9754 193.96H26.1875V202.747H34.9754V193.96Z" fill="#006022"/>
<path d="M39.3695 202.747C38.3454 202.747 34.9756 202.747 34.9756 202.747C34.9756 202.747 34.9756 199.756 34.9756 198.354C34.9756 197.258 34.9756 193.96 34.9756 193.96C34.9756 193.96 38.0384 193.96 39.3695 193.96C41.7961 193.96 43.7635 195.927 43.7635 198.354C43.7635 200.78 41.7961 202.747 39.3695 202.747Z" fill="#006022"/>
<path d="M70.127 202.747V193.96H61.3391C61.3391 198.813 65.2735 202.747 70.127 202.747Z" fill="#006022"/>
<path d="M74.5209 202.747C73.4967 202.747 70.127 202.747 70.127 202.747C70.127 202.747 70.127 199.756 70.127 198.354C70.127 197.258 70.127 193.96 70.127 193.96C70.127 193.96 73.1897 193.96 74.5209 193.96C76.9475 193.96 78.9148 195.927 78.9148 198.354C78.9148 200.78 76.9475 202.747 74.5209 202.747Z" fill="#006022"/>
<path d="M105.279 202.747V193.96H96.491C96.491 198.813 100.425 202.747 105.279 202.747Z" fill="#006022"/>
<path d="M114.066 193.96H105.279V202.747C110.132 202.747 114.066 198.813 114.066 193.96Z" fill="#006022"/>
<path d="M127.248 193.96C128.273 193.96 131.642 193.96 131.642 193.96C131.642 193.96 131.642 196.951 131.642 198.354C131.642 199.449 131.642 202.747 131.642 202.747C131.642 202.747 128.58 202.747 127.248 202.747C124.821 202.747 122.854 200.779 122.854 198.354C122.854 195.927 124.821 193.96 127.248 193.96Z" fill="#006022"/>
<path d="M140.43 193.96H131.642V202.747H140.43V193.96Z" fill="#006022"/>
<path d="M175.582 198.354C175.582 199.378 175.582 202.747 175.582 202.747C175.582 202.747 172.59 202.747 171.188 202.747C170.092 202.747 166.794 202.747 166.794 202.747C166.794 202.747 166.794 199.685 166.794 198.353C166.794 195.927 168.761 193.96 171.188 193.96C173.614 193.96 175.582 195.927 175.582 198.354Z" fill="#006022"/>
<path d="M193.158 202.747V193.96H184.37C184.37 198.813 188.304 202.747 193.158 202.747Z" fill="#006022"/>
<path d="M201.945 193.96H193.157V202.747H201.945V193.96Z" fill="#006022"/>
<path d="M210.733 193.96H201.945V202.747H210.733V193.96Z" fill="#006022"/>
<path d="M219.521 193.96H210.733V202.747H219.521V193.96Z" fill="#006022"/>
<path d="M228.309 193.96H219.521V202.747H228.309V193.96Z" fill="#006022"/>
<path d="M237.097 193.96H228.309V202.747H237.097V193.96Z" fill="#006022"/>
<path d="M245.885 193.96H237.097V202.747H245.885V193.96Z" fill="#006022"/>
<path d="M254.673 193.96H245.885V202.747H254.673V193.96Z" fill="#006022"/>
<path d="M259.066 202.747C258.042 202.747 254.672 202.747 254.672 202.747C254.672 202.747 254.672 199.756 254.672 198.354C254.672 197.258 254.672 193.96 254.672 193.96C254.672 193.96 257.735 193.96 259.066 193.96C261.493 193.96 263.46 195.927 263.46 198.354C263.46 200.78 261.493 202.747 259.066 202.747Z" fill="#006022"/>
<path d="M96.4908 207.141C96.4908 208.165 96.4908 211.534 96.4908 211.534C96.4908 211.534 93.4995 211.534 92.0968 211.534C91.0014 211.534 87.7029 211.534 87.7029 211.534C87.7029 211.534 87.7029 208.472 87.7029 207.14C87.703 204.714 89.6701 202.747 92.0967 202.747C94.5234 202.747 96.4908 204.714 96.4908 207.141Z" fill="#006022"/>
<path d="M118.461 202.747C120.887 202.747 122.855 204.714 122.855 207.141C122.855 209.567 120.887 211.534 118.461 211.534C116.034 211.534 114.067 209.567 114.067 207.141C114.067 204.714 116.034 202.747 118.461 202.747Z" fill="#006022"/>
<path d="M140.43 202.747H131.642V211.534H140.43V202.747Z" fill="#006022"/>
<path d="M158.006 211.534H166.794V202.747C161.941 202.747 158.006 206.681 158.006 211.534Z" fill="#006022"/>
<path d="M175.582 202.747H166.794V211.534H175.582V202.747Z" fill="#006022"/>
<path d="M179.976 211.534C178.952 211.534 175.582 211.534 175.582 211.534C175.582 211.534 175.582 208.543 175.582 207.141C175.582 206.045 175.582 202.747 175.582 202.747C175.582 202.747 178.645 202.747 179.976 202.747C182.403 202.747 184.37 204.714 184.37 207.141C184.37 209.567 182.403 211.534 179.976 211.534Z" fill="#006022"/>
<path d="M201.945 202.747H193.157V211.534H201.945V202.747Z" fill="#006022"/>
<path d="M237.097 202.747H228.309V211.534H237.097V202.747Z" fill="#006022"/>
<path d="M245.885 202.747H237.097V211.534H245.885V202.747Z" fill="#006022"/>
<path d="M96.4908 211.534H87.7029V220.322H96.4908V211.534Z" fill="#006022"/>
<path d="M140.43 211.534H131.642V220.322H140.43V211.534Z" fill="#006022"/>
<path d="M153.612 211.534C154.636 211.534 158.006 211.534 158.006 211.534C158.006 211.534 158.006 214.525 158.006 215.928C158.006 217.023 158.006 220.322 158.006 220.322C158.006 220.322 154.944 220.322 153.612 220.322C151.184 220.322 149.218 218.354 149.218 215.928C149.218 213.502 151.184 211.534 153.612 211.534Z" fill="#006022"/>
<path d="M166.794 211.534H158.006V220.322H166.794V211.534Z" fill="#006022"/>
<path d="M184.37 220.322H193.158V211.534C188.304 211.534 184.37 215.469 184.37 220.322Z" fill="#006022"/>
<path d="M201.945 211.534H193.157V220.322H201.945V211.534Z" fill="#006022"/>
<path d="M215.127 211.534C217.554 211.534 219.521 213.502 219.521 215.928C219.521 218.355 217.554 220.322 215.127 220.322C212.7 220.322 210.733 218.355 210.733 215.928C210.733 213.502 212.7 211.534 215.127 211.534Z" fill="#006022"/>
<path d="M237.097 211.534H228.309V220.322H237.097V211.534Z" fill="#006022"/>
<path d="M245.885 211.534H237.097V220.322C241.951 220.322 245.885 216.388 245.885 211.534Z" fill="#006022"/>
<path d="M96.4908 220.323H87.7029V229.111H96.4908V220.323Z" fill="#006022"/>
<path d="M105.279 220.323H96.491V229.111H105.279V220.323Z" fill="#006022"/>
<path d="M109.673 229.111C108.648 229.111 105.279 229.111 105.279 229.111C105.279 229.111 105.279 226.12 105.279 224.717C105.279 223.622 105.279 220.323 105.279 220.323C105.279 220.323 108.341 220.323 109.673 220.323C112.099 220.323 114.066 222.29 114.066 224.717C114.066 227.144 112.099 229.111 109.673 229.111Z" fill="#006022"/>
<path d="M122.854 229.111H131.642V220.323C126.789 220.323 122.854 224.258 122.854 229.111Z" fill="#006022"/>
<path d="M140.43 220.323H131.642V229.111H140.43V220.323Z" fill="#006022"/>
<path d="M166.794 220.323H158.006V229.111H166.794V220.323Z" fill="#006022"/>
<path d="M171.188 229.111C170.163 229.111 166.794 229.111 166.794 229.111C166.794 229.111 166.794 226.12 166.794 224.717C166.794 223.622 166.794 220.323 166.794 220.323C166.794 220.323 169.856 220.323 171.188 220.323C173.614 220.323 175.582 222.29 175.582 224.717C175.582 227.144 173.614 229.111 171.188 229.111Z" fill="#006022"/>
<path d="M193.158 220.323H184.37V229.111H193.158V220.323Z" fill="#006022"/>
<path d="M201.945 220.323H193.157V229.111H201.945V220.323Z" fill="#006022"/>
<path d="M237.097 220.323H228.309V229.111H237.097V220.323Z" fill="#006022"/>
<path d="M259.066 220.323C260.09 220.323 263.46 220.323 263.46 220.323C263.46 220.323 263.46 223.314 263.46 224.717C263.46 225.812 263.46 229.111 263.46 229.111C263.46 229.111 260.398 229.111 259.066 229.111C256.639 229.111 254.672 227.143 254.672 224.717C254.672 222.291 256.639 220.323 259.066 220.323Z" fill="#006022"/>
<path d="M267.854 229.111C266.83 229.111 263.46 229.111 263.46 229.111C263.46 229.111 263.46 226.12 263.46 224.717C263.46 223.622 263.46 220.323 263.46 220.323C263.46 220.323 266.523 220.323 267.854 220.323C270.281 220.323 272.248 222.29 272.248 224.717C272.248 227.144 270.281 229.111 267.854 229.111Z" fill="#006022"/>
<path d="M96.4908 229.111H87.7029V237.899H96.4908V229.111Z" fill="#006022"/>
<path d="M118.461 229.111C119.485 229.111 122.855 229.111 122.855 229.111C122.855 229.111 122.855 232.102 122.855 233.505C122.855 234.6 122.855 237.899 122.855 237.899C122.855 237.899 119.793 237.899 118.461 237.899C116.033 237.899 114.067 235.931 114.067 233.505C114.067 231.079 116.033 229.111 118.461 229.111Z" fill="#006022"/>
<path d="M131.642 229.111H122.854V237.899H131.642V229.111Z" fill="#006022"/>
<path d="M140.43 229.111H131.642V237.899H140.43V229.111Z" fill="#006022"/>
<path d="M153.612 229.111C154.636 229.111 158.006 229.111 158.006 229.111C158.006 229.111 158.006 232.102 158.006 233.505C158.006 234.6 158.006 237.899 158.006 237.899C158.006 237.899 154.944 237.899 153.612 237.899C151.184 237.899 149.218 235.931 149.218 233.505C149.218 231.079 151.184 229.111 153.612 229.111Z" fill="#006022"/>
<path d="M166.794 229.111H158.006V237.899H166.794V229.111Z" fill="#006022"/>
<path d="M193.158 229.111H184.37V237.899H193.158V229.111Z" fill="#006022"/>
<path d="M201.945 229.111H193.157V237.899H201.945V229.111Z" fill="#006022"/>
<path d="M210.733 229.111H201.945V237.899H210.733V229.111Z" fill="#006022"/>
<path d="M219.521 229.111H210.733V237.899H219.521V229.111Z" fill="#006022"/>
<path d="M228.309 229.111H219.521V237.899H228.309V229.111Z" fill="#006022"/>
<path d="M237.097 229.111H228.309V237.899H237.097V229.111Z" fill="#006022"/>
<path d="M241.491 237.899C240.467 237.899 237.097 237.899 237.097 237.899C237.097 237.899 237.097 234.908 237.097 233.505C237.097 232.41 237.097 229.111 237.097 229.111C237.097 229.111 240.16 229.111 241.491 229.111C243.918 229.111 245.885 231.078 245.885 233.505C245.885 235.932 243.918 237.899 241.491 237.899Z" fill="#006022"/>
<path d="M87.7029 242.292C87.7029 241.268 87.7029 237.899 87.7029 237.899C87.7029 237.899 90.6943 237.899 92.0968 237.899C93.1922 237.899 96.4908 237.899 96.4908 237.899C96.4908 237.899 96.4908 240.961 96.4908 242.292C96.4908 244.719 94.5234 246.686 92.0968 246.686C89.6701 246.686 87.7029 244.719 87.7029 242.292Z" fill="#006022"/>
<path d="M131.642 246.686V237.899H122.854C122.855 242.752 126.789 246.686 131.642 246.686Z" fill="#006022"/>
<path d="M140.43 237.899H131.642V246.686H140.43V237.899Z" fill="#006022"/>
<path d="M144.824 246.686C143.8 246.686 140.43 246.686 140.43 246.686C140.43 246.686 140.43 243.695 140.43 242.292C140.43 241.197 140.43 237.899 140.43 237.899C140.43 237.899 143.493 237.899 144.824 237.899C147.251 237.899 149.218 239.866 149.218 242.292C149.218 244.719 147.251 246.686 144.824 246.686Z" fill="#006022"/>
<path d="M166.794 237.899H158.006V246.686H166.794V237.899Z" fill="#006022"/>
<path d="M175.582 237.899H166.794V246.686H175.582V237.899Z" fill="#006022"/>
<path d="M184.37 237.899H175.582V246.686H184.37V237.899Z" fill="#006022"/>
<path d="M193.158 237.899H184.37V246.686H193.158V237.899Z" fill="#006022"/>
<path d="M201.945 237.899H193.157V246.686H201.945V237.899Z" fill="#006022"/>
<path d="M210.733 237.899H201.945V246.686H210.733V237.899Z" fill="#006022"/>
<path d="M228.309 237.899H219.521V246.686H228.309V237.899Z" fill="#006022"/>
<path d="M263.46 242.292C263.46 243.317 263.46 246.686 263.46 246.686C263.46 246.686 260.469 246.686 259.066 246.686C257.971 246.686 254.672 246.686 254.672 246.686C254.672 246.686 254.672 243.624 254.672 242.292C254.672 239.866 256.64 237.899 259.066 237.899C261.493 237.899 263.46 239.866 263.46 242.292Z" fill="#006022"/>
<path d="M109.673 246.686C112.099 246.686 114.066 248.653 114.066 251.08C114.066 253.507 112.099 255.474 109.673 255.474C107.246 255.474 105.279 253.507 105.279 251.08C105.279 248.653 107.246 246.686 109.673 246.686Z" fill="#006022"/>
<path d="M140.43 246.686H131.642V255.474H140.43V246.686Z" fill="#006022"/>
<path d="M158.006 251.08C158.006 250.056 158.006 246.686 158.006 246.686C158.006 246.686 160.998 246.686 162.4 246.686C163.495 246.686 166.794 246.686 166.794 246.686C166.794 246.686 166.794 249.749 166.794 251.08C166.794 253.507 164.827 255.474 162.4 255.474C159.973 255.474 158.006 253.507 158.006 251.08Z" fill="#006022"/>
<path d="M210.733 246.686H201.945V255.474H210.733V246.686Z" fill="#006022"/>
<path d="M228.309 246.686H219.521V255.474H228.309V246.686Z" fill="#006022"/>
<path d="M232.703 255.474C231.679 255.474 228.309 255.474 228.309 255.474C228.309 255.474 228.309 252.482 228.309 251.08C228.309 249.985 228.309 246.686 228.309 246.686C228.309 246.686 231.372 246.686 232.703 246.686C235.129 246.686 237.097 248.653 237.097 251.08C237.097 253.507 235.129 255.474 232.703 255.474Z" fill="#006022"/>
<path d="M245.885 255.474H254.673V246.686C249.819 246.686 245.885 250.62 245.885 255.474Z" fill="#006022"/>
<path d="M263.46 246.686H254.672V255.474H263.46V246.686Z" fill="#006022"/>
<path d="M263.46 246.686V255.474H272.248C272.248 250.62 268.314 246.686 263.46 246.686Z" fill="#006022"/>
<path d="M122.855 259.869C122.855 260.893 122.855 264.263 122.855 264.263C122.855 264.263 119.863 264.263 118.461 264.263C117.365 264.263 114.067 264.263 114.067 264.263C114.067 264.263 114.067 261.2 114.067 259.869C114.067 257.442 116.034 255.475 118.461 255.475C120.887 255.475 122.855 257.442 122.855 259.869Z" fill="#006022"/>
<path d="M131.642 259.869C131.642 258.845 131.642 255.475 131.642 255.475C131.642 255.475 134.634 255.475 136.036 255.475C137.131 255.475 140.43 255.475 140.43 255.475C140.43 255.475 140.43 258.538 140.43 259.869C140.43 262.295 138.463 264.263 136.036 264.263C133.609 264.263 131.642 262.295 131.642 259.869Z" fill="#006022"/>
<path d="M153.612 255.475C156.039 255.475 158.006 257.442 158.006 259.869C158.006 262.296 156.039 264.263 153.612 264.263C151.185 264.263 149.218 262.296 149.218 259.869C149.218 257.442 151.185 255.475 153.612 255.475Z" fill="#006022"/>
<path d="M201.945 259.869C201.945 258.845 201.945 255.475 201.945 255.475C201.945 255.475 204.937 255.475 206.339 255.475C207.435 255.475 210.733 255.475 210.733 255.475C210.733 255.475 210.733 258.538 210.733 259.869C210.733 262.295 208.766 264.263 206.339 264.263C203.913 264.263 201.945 262.295 201.945 259.869Z" fill="#006022"/>
<path d="M219.521 259.869C219.521 258.845 219.521 255.475 219.521 255.475C219.521 255.475 222.513 255.475 223.915 255.475C225.011 255.475 228.309 255.475 228.309 255.475C228.309 255.475 228.309 258.538 228.309 259.869C228.309 262.295 226.342 264.263 223.915 264.263C221.488 264.263 219.521 262.295 219.521 259.869Z" fill="#006022"/>
<path d="M237.097 264.263H245.885V255.475C241.032 255.475 237.097 259.409 237.097 264.263Z" fill="#006022"/>
<path d="M254.673 255.475H245.885V264.263C250.738 264.263 254.673 260.328 254.673 255.475Z" fill="#006022"/>
<path d="M263.46 259.869C263.46 258.845 263.46 255.475 263.46 255.475C263.46 255.475 266.452 255.475 267.854 255.475C268.95 255.475 272.248 255.475 272.248 255.475C272.248 255.475 272.248 258.538 272.248 259.869C272.248 262.295 270.281 264.263 267.854 264.263C265.428 264.263 263.46 262.295 263.46 259.869Z" fill="#006022"/>
<path d="M92.0968 264.263C94.5236 264.263 96.4908 266.23 96.4908 268.657C96.4908 271.083 94.5236 273.051 92.0968 273.051C89.6701 273.051 87.7029 271.083 87.7029 268.657C87.7029 266.23 89.6701 264.263 92.0968 264.263Z" fill="#006022"/>
<path d="M122.855 273.051V264.263H114.067C114.067 269.116 118.001 273.051 122.855 273.051Z" fill="#006022"/>
<path d="M127.248 273.051C126.224 273.051 122.854 273.051 122.854 273.051C122.854 273.051 122.854 270.059 122.854 268.657C122.854 267.561 122.854 264.263 122.854 264.263C122.854 264.263 125.917 264.263 127.248 264.263C129.675 264.263 131.642 266.23 131.642 268.657C131.642 271.083 129.675 273.051 127.248 273.051Z" fill="#006022"/>
<path d="M171.188 264.263C172.212 264.263 175.582 264.263 175.582 264.263C175.582 264.263 175.582 267.254 175.582 268.657C175.582 269.752 175.582 273.051 175.582 273.051C175.582 273.051 172.52 273.051 171.188 273.051C168.76 273.051 166.794 271.082 166.794 268.657C166.794 266.231 168.76 264.263 171.188 264.263Z" fill="#006022"/>
<path d="M184.37 264.263H175.582V273.051H184.37V264.263Z" fill="#006022"/>
<path d="M193.158 264.263H184.37V273.051H193.158V264.263Z" fill="#006022"/>
<path d="M197.551 273.051C196.527 273.051 193.157 273.051 193.157 273.051C193.157 273.051 193.157 270.059 193.157 268.657C193.157 267.561 193.157 264.263 193.157 264.263C193.157 264.263 196.22 264.263 197.551 264.263C199.978 264.263 201.945 266.23 201.945 268.657C201.945 271.083 199.978 273.051 197.551 273.051Z" fill="#006022"/>
<path d="M215.127 264.263C217.554 264.263 219.521 266.23 219.521 268.657C219.521 271.083 217.554 273.051 215.127 273.051C212.7 273.051 210.733 271.083 210.733 268.657C210.733 266.23 212.7 264.263 215.127 264.263Z" fill="#006022"/>
<path d="M232.703 264.263C233.727 264.263 237.097 264.263 237.097 264.263C237.097 264.263 237.097 267.254 237.097 268.657C237.097 269.752 237.097 273.051 237.097 273.051C237.097 273.051 234.035 273.051 232.703 273.051C230.275 273.051 228.309 271.082 228.309 268.657C228.309 266.231 230.275 264.263 232.703 264.263Z" fill="#006022"/>
<path d="M245.885 264.263H237.097V273.051C241.951 273.051 245.885 269.116 245.885 264.263Z" fill="#006022"/>
<path d="M57.9132 18.207H38.4018C28.8928 18.207 20.8368 24.4896 18.2611 33.0765C17.9948 33.9648 17.7868 34.8776 17.6423 35.8108C17.4829 36.8406 17.3999 37.895 17.3999 38.9684V58.943C17.3999 70.3965 26.824 79.7105 38.4018 79.7105L48.1575 79.7123L57.9132 79.7099C69.4903 79.7099 78.9151 70.3959 78.9151 58.9424V38.9684C78.9151 27.5204 69.4909 18.207 57.9132 18.207ZM69.6878 58.943C69.6878 65.3061 64.4061 70.4832 57.9107 70.4832L48.1575 70.4851L38.4043 70.4826C31.9089 70.4826 26.6272 65.3055 26.6272 58.943V38.9684C26.6272 36.9808 27.1427 35.1096 28.05 33.4745C28.9235 31.9015 30.1594 30.5488 31.6474 29.5246C33.5605 28.2076 35.8901 27.4343 38.4012 27.4343H57.9132C64.4061 27.4343 69.6878 32.6083 69.6878 38.9684V58.943Z" fill="#006022"/>
<path d="M251.246 18.207H231.735C222.226 18.207 214.17 24.4896 211.594 33.0765C211.328 33.9648 211.12 34.8776 210.975 35.8108C210.816 36.8406 210.733 37.895 210.733 38.9684V58.943C210.733 70.3965 220.157 79.7105 231.735 79.7105L241.49 79.7123L251.246 79.7099C262.823 79.7099 272.248 70.3959 272.248 58.9424V38.9684C272.248 27.5204 262.824 18.207 251.246 18.207ZM263.021 58.943C263.021 65.3061 257.739 70.4832 251.244 70.4832L241.49 70.4851L231.737 70.4826C225.242 70.4826 219.96 65.3055 219.96 58.943V38.9684C219.96 36.9808 220.476 35.1096 221.383 33.4745C222.257 31.9015 223.492 30.5488 224.98 29.5246C226.894 28.2076 229.223 27.4343 231.734 27.4343H251.246C257.739 27.4343 263.021 32.6083 263.021 38.9684V58.943Z" fill="#006022"/>
<path d="M57.9132 211.54H38.4018C28.8928 211.54 20.8368 217.823 18.2611 226.41C17.9948 227.298 17.7868 228.211 17.6423 229.144C17.4829 230.174 17.3999 231.228 17.3999 232.302V252.276C17.3999 263.73 26.824 273.044 38.4018 273.044L48.1575 273.046L57.9132 273.043C69.4903 273.043 78.9151 263.729 78.9151 252.276V232.302C78.9151 220.854 69.4909 211.54 57.9132 211.54ZM69.6878 252.276C69.6878 258.639 64.4061 263.816 57.9107 263.816L48.1575 263.818L38.4043 263.816C31.9089 263.816 26.6272 258.639 26.6272 252.276V232.302C26.6272 230.314 27.1427 228.443 28.05 226.808C28.9235 225.235 30.1594 223.882 31.6474 222.858C33.5605 221.541 35.8901 220.768 38.4012 220.768H57.9132C64.4061 220.768 69.6878 225.942 69.6878 232.302V252.276Z" fill="#006022"/>
<path d="M47.8992 61.6232C55.0366 61.6232 60.8225 55.8372 60.8225 48.6998C60.8225 41.5625 55.0366 35.7765 47.8992 35.7765C40.7618 35.7765 34.9758 41.5625 34.9758 48.6998C34.9758 55.8372 40.7618 61.6232 47.8992 61.6232Z" fill="#006022"/>
<path d="M241.232 61.6232C248.37 61.6232 254.156 55.8372 254.156 48.6998C254.156 41.5625 248.37 35.7765 241.232 35.7765C234.095 35.7765 228.309 41.5625 228.309 48.6998C228.309 55.8372 234.095 61.6232 241.232 61.6232Z" fill="#006022"/>
<path d="M47.8989 254.958C55.0363 254.958 60.8223 249.172 60.8223 242.035C60.8223 234.897 55.0363 229.111 47.8989 229.111C40.7616 229.111 34.9756 234.897 34.9756 242.035C34.9756 249.172 40.7616 254.958 47.8989 254.958Z" fill="#006022"/>
</svg>
