<svg width="264" height="264" viewBox="0 0 264 264" fill="none" xmlns="http://www.w3.org/2000/svg">
<path d="M109.092 9.09103H118.183V0C113.163 1.81821e-05 109.092 4.07013 109.092 9.09103Z" fill="#141313"/>
<path d="M127.274 0H118.183V9.09103H127.274V0Z" fill="#141313"/>
<path d="M136.365 0H127.274V9.09103H136.365V0Z" fill="#141313"/>
<path d="M136.366 0V9.09103H145.457C145.457 4.07011 141.387 0 136.366 0Z" fill="#141313"/>
<path d="M163.639 4.54552C163.639 5.60491 163.639 9.09103 163.639 9.09103C163.639 9.09103 160.544 9.09103 159.093 9.09082C157.96 9.09103 154.548 9.09082 154.548 9.09082C154.548 9.09082 154.548 5.92275 154.548 4.54541C154.548 2.03514 156.583 0 159.093 0C161.604 0 163.639 2.03512 163.639 4.54552Z" fill="#141313"/>
<path d="M81.8196 13.6366C81.8196 14.696 81.8196 18.1821 81.8196 18.1821C81.8196 18.1821 78.7251 18.1821 77.274 18.1819C76.1409 18.1821 72.7285 18.1819 72.7285 18.1819C72.7285 18.1819 72.7285 15.0138 72.7285 13.6365C72.7286 11.1262 74.7636 9.09106 77.2739 9.09106C79.7843 9.09106 81.8196 11.1262 81.8196 13.6366Z" fill="#141313"/>
<path d="M100.002 13.6366C100.002 14.696 100.002 18.1821 100.002 18.1821C100.002 18.1821 96.9072 18.1821 95.4562 18.1819C94.323 18.1821 90.9106 18.1819 90.9106 18.1819C90.9106 18.1819 90.9106 15.0138 90.9106 13.6365C90.9108 11.1262 92.9457 9.09106 95.4561 9.09106C97.9665 9.09106 100.002 11.1262 100.002 13.6366Z" fill="#141313"/>
<path d="M109.092 13.6366C109.092 12.5771 109.092 9.09106 109.092 9.09106C109.092 9.09106 112.187 9.09106 113.638 9.09106C114.771 9.09106 118.183 9.09106 118.183 9.09106C118.183 9.09106 118.183 12.2595 118.183 13.6366C118.183 16.1469 116.148 18.1821 113.638 18.1821C111.127 18.1821 109.092 16.1469 109.092 13.6366Z" fill="#141313"/>
<path d="M136.366 13.6366C136.366 12.5771 136.366 9.09106 136.366 9.09106C136.366 9.09106 139.46 9.09106 140.911 9.09106C142.044 9.09106 145.457 9.09106 145.457 9.09106C145.457 9.09106 145.457 12.2595 145.457 13.6366C145.457 16.1469 143.422 18.1821 140.911 18.1821C138.401 18.1821 136.366 16.1469 136.366 13.6366Z" fill="#141313"/>
<path d="M163.639 18.1821V9.09106H154.548C154.548 14.1119 158.618 18.1821 163.639 18.1821Z" fill="#141313"/>
<path d="M163.639 9.09106V18.1821H172.73C172.73 13.1612 168.66 9.09106 163.639 9.09106Z" fill="#141313"/>
<path d="M186.366 9.09106C188.877 9.09106 190.912 11.1262 190.912 13.6366C190.912 16.1471 188.877 18.1821 186.366 18.1821C183.856 18.1821 181.821 16.1471 181.821 13.6366C181.821 11.1262 183.856 9.09106 186.366 9.09106Z" fill="#141313"/>
<path d="M81.8196 18.1821H72.7285V27.2731H81.8196V18.1821Z" fill="#141313"/>
<path d="M100.002 18.1821H90.9106V27.2731H100.002V18.1821Z" fill="#141313"/>
<path d="M136.365 22.7276C136.365 23.787 136.365 27.2731 136.365 27.2731C136.365 27.2731 133.271 27.2731 131.82 27.2729C130.687 27.2731 127.274 27.2729 127.274 27.2729C127.274 27.2729 127.274 24.1048 127.274 22.7275C127.275 20.2172 129.31 18.1821 131.82 18.1821C134.33 18.1821 136.365 20.2172 136.365 22.7276Z" fill="#141313"/>
<path d="M150.002 18.1821C152.513 18.1821 154.548 20.2172 154.548 22.7276C154.548 25.2381 152.513 27.2731 150.002 27.2731C147.492 27.2731 145.457 25.2381 145.457 22.7276C145.457 20.2172 147.492 18.1821 150.002 18.1821Z" fill="#141313"/>
<path d="M163.639 22.7276C163.639 21.6681 163.639 18.1821 163.639 18.1821C163.639 18.1821 166.733 18.1821 168.184 18.1821C169.317 18.1821 172.73 18.1821 172.73 18.1821C172.73 18.1821 172.73 21.3505 172.73 22.7276C172.73 25.2379 170.694 27.2731 168.184 27.2731C165.674 27.2731 163.639 25.2379 163.639 22.7276Z" fill="#141313"/>
<path d="M72.7285 31.8186C72.7285 30.7592 72.7285 27.2731 72.7285 27.2731C72.7285 27.2731 75.8231 27.2731 77.274 27.2731C78.4072 27.2731 81.8196 27.2731 81.8196 27.2731C81.8196 27.2731 81.8196 30.4416 81.8196 31.8186C81.8196 34.3289 79.7843 36.3642 77.274 36.3642C74.7636 36.3642 72.7285 34.3289 72.7285 31.8186Z" fill="#141313"/>
<path d="M100.002 27.2731H90.9106V36.3642H100.002V27.2731Z" fill="#141313"/>
<path d="M136.365 27.2731H127.274V36.3642H136.365V27.2731Z" fill="#141313"/>
<path d="M136.366 27.2731V36.3642H145.457C145.457 31.3432 141.387 27.2731 136.366 27.2731Z" fill="#141313"/>
<path d="M163.639 31.8186C163.639 32.878 163.639 36.3642 163.639 36.3642C163.639 36.3642 160.544 36.3642 159.093 36.3639C157.96 36.3642 154.548 36.3639 154.548 36.3639C154.548 36.3639 154.548 33.1959 154.548 31.8185C154.548 29.3083 156.583 27.2731 159.093 27.2731C161.604 27.2731 163.639 29.3083 163.639 31.8186Z" fill="#141313"/>
<path d="M190.912 31.8186C190.912 32.878 190.912 36.3642 190.912 36.3642C190.912 36.3642 187.817 36.3642 186.366 36.3639C185.233 36.3642 181.821 36.3639 181.821 36.3639C181.821 36.3639 181.821 33.1959 181.821 31.8185C181.821 29.3083 183.856 27.2731 186.366 27.2731C188.877 27.2731 190.912 29.3083 190.912 31.8186Z" fill="#141313"/>
<path d="M100.002 45.4552V36.3641H90.9106C90.9107 41.385 94.9808 45.4552 100.002 45.4552Z" fill="#141313"/>
<path d="M109.092 36.3641H100.001V45.4552H109.092V36.3641Z" fill="#141313"/>
<path d="M118.183 36.3641H109.092V45.4552H118.183V36.3641Z" fill="#141313"/>
<path d="M127.274 36.3641H118.183V45.4552H127.274V36.3641Z" fill="#141313"/>
<path d="M136.365 36.3641H127.274V45.4552H136.365V36.3641Z" fill="#141313"/>
<path d="M145.457 36.3641H136.366V45.4552C141.387 45.4552 145.457 41.385 145.457 36.3641Z" fill="#141313"/>
<path d="M163.639 36.3641H154.548V45.4552H163.639V36.3641Z" fill="#141313"/>
<path d="M172.73 36.3641H163.639V45.4552H172.73V36.3641Z" fill="#141313"/>
<path d="M181.821 36.3641H172.729V45.4552H181.821V36.3641Z" fill="#141313"/>
<path d="M190.912 36.3641H181.821V45.4552C186.842 45.4552 190.912 41.385 190.912 36.3641Z" fill="#141313"/>
<path d="M86.3649 45.4552C88.8754 45.4552 90.9104 47.4903 90.9104 50.0007C90.9104 52.5112 88.8754 54.5462 86.3649 54.5462C83.8545 54.5462 81.8193 52.5112 81.8193 50.0007C81.8193 47.4903 83.8545 45.4552 86.3649 45.4552Z" fill="#141313"/>
<path d="M118.183 45.4552H109.092V54.5462H118.183V45.4552Z" fill="#141313"/>
<path d="M127.274 45.4552H118.183V54.5462H127.274V45.4552Z" fill="#141313"/>
<path d="M136.365 45.4552H127.274V54.5462H136.365V45.4552Z" fill="#141313"/>
<path d="M145.457 54.5462H154.548V45.4552C149.527 45.4552 145.457 49.5253 145.457 54.5462Z" fill="#141313"/>
<path d="M163.639 45.4552H154.548V54.5462H163.639V45.4552Z" fill="#141313"/>
<path d="M172.73 45.4552H163.639V54.5462H172.73V45.4552Z" fill="#141313"/>
<path d="M81.8196 59.0918C81.8196 60.1512 81.8196 63.6373 81.8196 63.6373C81.8196 63.6373 78.7251 63.6373 77.274 63.6371C76.1409 63.6373 72.7285 63.6371 72.7285 63.6371C72.7285 63.6371 72.7285 60.469 72.7285 59.0917C72.7286 56.5814 74.7636 54.5463 77.2739 54.5463C79.7843 54.5463 81.8196 56.5814 81.8196 59.0918Z" fill="#141313"/>
<path d="M95.4562 54.5463C97.9667 54.5463 100.002 56.5814 100.002 59.0918C100.002 61.6023 97.9667 63.6373 95.4562 63.6373C92.9458 63.6373 90.9106 61.6023 90.9106 59.0918C90.9106 56.5814 92.9458 54.5463 95.4562 54.5463Z" fill="#141313"/>
<path d="M118.183 54.5463H109.092V63.6373H118.183V54.5463Z" fill="#141313"/>
<path d="M127.274 59.0918C127.274 58.0323 127.274 54.5463 127.274 54.5463C127.274 54.5463 130.369 54.5463 131.82 54.5463C132.953 54.5463 136.365 54.5463 136.365 54.5463C136.365 54.5463 136.365 57.7147 136.365 59.0918C136.365 61.6021 134.33 63.6373 131.82 63.6373C129.31 63.6373 127.274 61.6021 127.274 59.0918Z" fill="#141313"/>
<path d="M145.457 59.0918C145.457 58.0323 145.457 54.5463 145.457 54.5463C145.457 54.5463 148.551 54.5463 150.002 54.5463C151.135 54.5463 154.548 54.5463 154.548 54.5463C154.548 54.5463 154.548 57.7147 154.548 59.0918C154.548 61.6021 152.512 63.6373 150.002 63.6373C147.492 63.6373 145.457 61.6021 145.457 59.0918Z" fill="#141313"/>
<path d="M163.639 59.0918C163.639 58.0323 163.639 54.5463 163.639 54.5463C163.639 54.5463 166.733 54.5463 168.184 54.5463C169.317 54.5463 172.73 54.5463 172.73 54.5463C172.73 54.5463 172.73 57.7147 172.73 59.0918C172.73 61.6021 170.694 63.6373 168.184 63.6373C165.674 63.6373 163.639 61.6021 163.639 59.0918Z" fill="#141313"/>
<path d="M186.366 54.5463C188.877 54.5463 190.912 56.5814 190.912 59.0918C190.912 61.6023 188.877 63.6373 186.366 63.6373C183.856 63.6373 181.821 61.6023 181.821 59.0918C181.821 56.5814 183.856 54.5463 186.366 54.5463Z" fill="#141313"/>
<path d="M81.8196 63.6372H72.7285V72.7282H81.8196V63.6372Z" fill="#141313"/>
<path d="M81.8193 63.6372V72.7282H90.9104C90.9104 67.7073 86.8402 63.6372 81.8193 63.6372Z" fill="#141313"/>
<path d="M118.183 63.6372H109.092V72.7282H118.183V63.6372Z" fill="#141313"/>
<path d="M122.729 72.7282C121.669 72.7282 118.183 72.7282 118.183 72.7282C118.183 72.7282 118.183 69.6335 118.183 68.1827C118.183 67.0495 118.183 63.6372 118.183 63.6372C118.183 63.6372 121.352 63.6372 122.729 63.6372C125.239 63.6372 127.274 65.6723 127.274 68.1827C127.274 70.693 125.239 72.7282 122.729 72.7282Z" fill="#141313"/>
<path d="M4.54552 72.7283C7.05604 72.7283 9.09103 74.7634 9.09103 77.2738C9.09103 79.7843 7.05604 81.8193 4.54552 81.8193C2.03512 81.8193 0 79.7843 0 77.2738C0 74.7634 2.03512 72.7283 4.54552 72.7283Z" fill="#141313"/>
<path d="M59.0914 72.7283C61.6019 72.7283 63.6369 74.7634 63.6369 77.2738C63.6369 79.7843 61.6019 81.8193 59.0914 81.8193C56.581 81.8193 54.5459 79.7843 54.5459 77.2738C54.5459 74.7634 56.581 72.7283 59.0914 72.7283Z" fill="#141313"/>
<path d="M81.8196 72.7283H72.7285V81.8193H81.8196V72.7283Z" fill="#141313"/>
<path d="M90.9104 72.7283H81.8193V81.8193H90.9104V72.7283Z" fill="#141313"/>
<path d="M118.183 72.7283H109.092V81.8193H118.183V72.7283Z" fill="#141313"/>
<path d="M127.274 81.8193H136.365V72.7283C131.345 72.7283 127.274 76.7984 127.274 81.8193Z" fill="#141313"/>
<path d="M140.911 81.8193C139.852 81.8193 136.366 81.8193 136.366 81.8193C136.366 81.8193 136.366 78.7246 136.366 77.2738C136.366 76.1406 136.366 72.7283 136.366 72.7283C136.366 72.7283 139.534 72.7283 140.911 72.7283C143.422 72.7283 145.457 74.7634 145.457 77.2738C145.457 79.7841 143.422 81.8193 140.911 81.8193Z" fill="#141313"/>
<path d="M159.093 72.7283C161.604 72.7283 163.639 74.7634 163.639 77.2738C163.639 79.7843 161.604 81.8193 159.093 81.8193C156.583 81.8193 154.548 79.7843 154.548 77.2738C154.548 74.7634 156.583 72.7283 159.093 72.7283Z" fill="#141313"/>
<path d="M186.366 72.7283C187.426 72.7283 190.912 72.7283 190.912 72.7283C190.912 72.7283 190.912 75.8225 190.912 77.2738C190.912 78.4066 190.912 81.8193 190.912 81.8193C190.912 81.8193 187.744 81.8193 186.366 81.8193C183.855 81.8193 181.821 79.7833 181.821 77.2738C181.821 74.764 183.855 72.7283 186.366 72.7283Z" fill="#141313"/>
<path d="M200.003 72.7283H190.912V81.8193H200.003V72.7283Z" fill="#141313"/>
<path d="M204.548 81.8193C203.489 81.8193 200.003 81.8193 200.003 81.8193C200.003 81.8193 200.003 78.7246 200.003 77.2738C200.003 76.1406 200.003 72.7283 200.003 72.7283C200.003 72.7283 203.171 72.7283 204.548 72.7283C207.059 72.7283 209.094 74.7634 209.094 77.2738C209.094 79.7841 207.059 81.8193 204.548 81.8193Z" fill="#141313"/>
<path d="M231.821 72.7283C232.881 72.7283 236.367 72.7283 236.367 72.7283C236.367 72.7283 236.367 75.8225 236.367 77.2738C236.367 78.4066 236.367 81.8193 236.367 81.8193C236.367 81.8193 233.199 81.8193 231.821 81.8193C229.31 81.8193 227.276 79.7833 227.276 77.2738C227.276 74.764 229.31 72.7283 231.821 72.7283Z" fill="#141313"/>
<path d="M245.458 72.7283H236.367V81.8193H245.458V72.7283Z" fill="#141313"/>
<path d="M245.458 72.7283V81.8193H254.549C254.549 76.7984 250.479 72.7283 245.458 72.7283Z" fill="#141313"/>
<path d="M22.7276 81.8193C25.2382 81.8193 27.2732 83.8545 27.2732 86.3649C27.2732 88.8754 25.2382 90.9104 22.7276 90.9104C20.2172 90.9104 18.1821 88.8754 18.1821 86.3649C18.1821 83.8545 20.2172 81.8193 22.7276 81.8193Z" fill="#141313"/>
<path d="M36.3638 90.9104H45.4548V81.8193C40.434 81.8194 36.3638 85.8895 36.3638 90.9104Z" fill="#141313"/>
<path d="M50.0006 90.9104C48.9411 90.9104 45.4551 90.9104 45.4551 90.9104C45.4551 90.9104 45.4551 87.8157 45.4551 86.3649C45.4551 85.2317 45.4551 81.8193 45.4551 81.8193C45.4551 81.8193 48.6235 81.8193 50.0006 81.8193C52.5109 81.8193 54.5461 83.8544 54.5461 86.3649C54.5461 88.8751 52.5109 90.9104 50.0006 90.9104Z" fill="#141313"/>
<path d="M81.8196 81.8193H72.7285V90.9104H81.8196V81.8193Z" fill="#141313"/>
<path d="M90.9104 81.8193H81.8193V90.9104C86.8402 90.9104 90.9104 86.8402 90.9104 81.8193Z" fill="#141313"/>
<path d="M104.546 81.8193C105.606 81.8193 109.092 81.8193 109.092 81.8193C109.092 81.8193 109.092 84.9136 109.092 86.3649C109.092 87.4977 109.092 90.9104 109.092 90.9104C109.092 90.9104 105.924 90.9104 104.546 90.9104C102.035 90.9104 100.001 88.8744 100.001 86.3649C100.001 83.8551 102.035 81.8193 104.546 81.8193Z" fill="#141313"/>
<path d="M118.183 81.8193H109.092V90.9104C114.113 90.9104 118.183 86.8402 118.183 81.8193Z" fill="#141313"/>
<path d="M127.274 86.3649C127.274 85.3054 127.274 81.8193 127.274 81.8193C127.274 81.8193 130.369 81.8193 131.82 81.8193C132.953 81.8193 136.365 81.8193 136.365 81.8193C136.365 81.8193 136.365 84.9878 136.365 86.3649C136.365 88.8751 134.33 90.9104 131.82 90.9104C129.31 90.9104 127.274 88.8751 127.274 86.3649Z" fill="#141313"/>
<path d="M177.275 81.8193C179.786 81.8193 181.821 83.8545 181.821 86.3649C181.821 88.8754 179.786 90.9104 177.275 90.9104C174.765 90.9104 172.729 88.8754 172.729 86.3649C172.729 83.8545 174.765 81.8193 177.275 81.8193Z" fill="#141313"/>
<path d="M227.276 86.3649C227.276 87.4242 227.276 90.9104 227.276 90.9104C227.276 90.9104 224.182 90.9104 222.731 90.9102C221.597 90.9104 218.185 90.9102 218.185 90.9102C218.185 90.9102 218.185 87.7421 218.185 86.3647C218.185 83.8545 220.22 81.8193 222.73 81.8193C225.241 81.8193 227.276 83.8545 227.276 86.3649Z" fill="#141313"/>
<path d="M245.458 90.9104V81.8193H236.367C236.367 86.8402 240.437 90.9104 245.458 90.9104Z" fill="#141313"/>
<path d="M254.549 81.8193H245.458V90.9104C250.479 90.9104 254.549 86.8402 254.549 81.8193Z" fill="#141313"/>
<path d="M27.2734 100.001H36.3645V90.9103C31.3437 90.9104 27.2734 94.9805 27.2734 100.001Z" fill="#141313"/>
<path d="M45.4548 90.9103H36.3638V100.001H45.4548V90.9103Z" fill="#141313"/>
<path d="M59.0914 90.9103C61.6019 90.9103 63.6369 92.9455 63.6369 95.4559C63.6369 97.9664 61.6019 100.001 59.0914 100.001C56.581 100.001 54.5459 97.9664 54.5459 95.4559C54.5459 92.9455 56.581 90.9103 59.0914 90.9103Z" fill="#141313"/>
<path d="M72.7285 95.4559C72.7285 94.3964 72.7285 90.9103 72.7285 90.9103C72.7285 90.9103 75.8231 90.9103 77.274 90.9103C78.4072 90.9103 81.8196 90.9103 81.8196 90.9103C81.8196 90.9103 81.8196 94.0788 81.8196 95.4559C81.8196 97.9661 79.7843 100.001 77.274 100.001C74.7636 100.001 72.7285 97.9661 72.7285 95.4559Z" fill="#141313"/>
<path d="M159.093 90.9103C161.604 90.9103 163.639 92.9455 163.639 95.4559C163.639 97.9664 161.604 100.001 159.093 100.001C156.583 100.001 154.548 97.9664 154.548 95.4559C154.548 92.9455 156.583 90.9103 159.093 90.9103Z" fill="#141313"/>
<path d="M200.003 100.001H209.094V90.9103C204.073 90.9104 200.003 94.9805 200.003 100.001Z" fill="#141313"/>
<path d="M218.185 90.9103H209.094V100.001H218.185V90.9103Z" fill="#141313"/>
<path d="M227.276 90.9103H218.185V100.001H227.276V90.9103Z" fill="#141313"/>
<path d="M22.7276 100.001C23.7871 100.001 27.2732 100.001 27.2732 100.001C27.2732 100.001 27.2732 103.096 27.2732 104.547C27.2732 105.68 27.2732 109.092 27.2732 109.092C27.2732 109.092 24.1055 109.092 22.7276 109.092C20.2164 109.092 18.1821 107.056 18.1821 104.547C18.1821 102.037 20.2164 100.001 22.7276 100.001Z" fill="#141313"/>
<path d="M36.3645 100.001H27.2734V109.092H36.3645V100.001Z" fill="#141313"/>
<path d="M45.4548 100.001H36.3638V109.092H45.4548V100.001Z" fill="#141313"/>
<path d="M68.1827 100.001C70.6932 100.001 72.7282 102.037 72.7282 104.547C72.7282 107.057 70.6932 109.092 68.1827 109.092C65.6723 109.092 63.6372 107.057 63.6372 104.547C63.6372 102.037 65.6723 100.001 68.1827 100.001Z" fill="#141313"/>
<path d="M104.546 100.001C107.057 100.001 109.092 102.037 109.092 104.547C109.092 107.057 107.057 109.092 104.546 109.092C102.036 109.092 100.001 107.057 100.001 104.547C100.001 102.037 102.036 100.001 104.546 100.001Z" fill="#141313"/>
<path d="M127.274 109.092H136.365V100.001C131.345 100.001 127.274 104.072 127.274 109.092Z" fill="#141313"/>
<path d="M145.457 100.001H136.366V109.092H145.457V100.001Z" fill="#141313"/>
<path d="M145.457 100.001V109.092H154.548C154.548 104.072 150.477 100.001 145.457 100.001Z" fill="#141313"/>
<path d="M168.184 100.001C170.695 100.001 172.73 102.037 172.73 104.547C172.73 107.057 170.695 109.092 168.184 109.092C165.674 109.092 163.639 107.057 163.639 104.547C163.639 102.037 165.674 100.001 168.184 100.001Z" fill="#141313"/>
<path d="M181.821 109.092H190.912V100.001C185.891 100.001 181.821 104.072 181.821 109.092Z" fill="#141313"/>
<path d="M200.003 100.001H190.912V109.092H200.003V100.001Z" fill="#141313"/>
<path d="M209.094 100.001H200.003V109.092H209.094V100.001Z" fill="#141313"/>
<path d="M218.185 100.001H209.094V109.092H218.185V100.001Z" fill="#141313"/>
<path d="M227.276 100.001H218.185V109.092H227.276V100.001Z" fill="#141313"/>
<path d="M231.821 109.092C230.762 109.092 227.276 109.092 227.276 109.092C227.276 109.092 227.276 105.998 227.276 104.547C227.276 103.414 227.276 100.001 227.276 100.001C227.276 100.001 230.444 100.001 231.821 100.001C234.332 100.001 236.367 102.037 236.367 104.547C236.367 107.057 234.332 109.092 231.821 109.092Z" fill="#141313"/>
<path d="M45.4548 109.092H36.3638V118.183H45.4548V109.092Z" fill="#141313"/>
<path d="M54.5461 109.092H45.4551V118.183H54.5461V109.092Z" fill="#141313"/>
<path d="M59.0914 118.183C58.0319 118.183 54.5459 118.183 54.5459 118.183C54.5459 118.183 54.5459 115.089 54.5459 113.638C54.5459 112.505 54.5459 109.092 54.5459 109.092C54.5459 109.092 57.7143 109.092 59.0914 109.092C61.6017 109.092 63.6369 111.128 63.6369 113.638C63.6369 116.148 61.6017 118.183 59.0914 118.183Z" fill="#141313"/>
<path d="M81.8196 113.638C81.8196 114.697 81.8196 118.183 81.8196 118.183C81.8196 118.183 78.7251 118.183 77.274 118.183C76.1409 118.183 72.7285 118.183 72.7285 118.183C72.7285 118.183 72.7285 115.015 72.7285 113.638C72.7286 111.128 74.7636 109.092 77.2739 109.092C79.7843 109.092 81.8196 111.128 81.8196 113.638Z" fill="#141313"/>
<path d="M100.002 113.638C100.002 114.697 100.002 118.183 100.002 118.183C100.002 118.183 96.9072 118.183 95.4562 118.183C94.323 118.183 90.9106 118.183 90.9106 118.183C90.9106 118.183 90.9106 115.015 90.9106 113.638C90.9108 111.128 92.9457 109.092 95.4561 109.092C97.9665 109.092 100.002 111.128 100.002 113.638Z" fill="#141313"/>
<path d="M118.183 118.183H127.274V109.092C122.253 109.092 118.183 113.163 118.183 118.183Z" fill="#141313"/>
<path d="M136.365 109.092H127.274V118.183H136.365V109.092Z" fill="#141313"/>
<path d="M145.457 113.638C145.457 112.578 145.457 109.092 145.457 109.092C145.457 109.092 148.551 109.092 150.002 109.092C151.135 109.092 154.548 109.092 154.548 109.092C154.548 109.092 154.548 112.261 154.548 113.638C154.548 116.148 152.512 118.183 150.002 118.183C147.492 118.183 145.457 116.148 145.457 113.638Z" fill="#141313"/>
<path d="M190.912 109.092H181.821V118.183H190.912V109.092Z" fill="#141313"/>
<path d="M209.094 109.092H200.003V118.183H209.094V109.092Z" fill="#141313"/>
<path d="M218.185 109.092H209.094V118.183H218.185V109.092Z" fill="#141313"/>
<path d="M263.64 113.638C263.64 114.697 263.64 118.183 263.64 118.183C263.64 118.183 260.545 118.183 259.094 118.183C257.961 118.183 254.549 118.183 254.549 118.183C254.549 118.183 254.549 115.015 254.549 113.638C254.549 111.128 256.584 109.092 259.094 109.092C261.605 109.092 263.64 111.128 263.64 113.638Z" fill="#141313"/>
<path d="M4.54552 118.183C7.05604 118.183 9.09103 120.219 9.09103 122.729C9.09103 125.24 7.05604 127.275 4.54552 127.275C2.03512 127.275 0 125.24 0 122.729C0 120.219 2.03512 118.183 4.54552 118.183Z" fill="#141313"/>
<path d="M22.7276 118.183C25.2382 118.183 27.2732 120.219 27.2732 122.729C27.2732 125.24 25.2382 127.275 22.7276 127.275C20.2172 127.275 18.1821 125.24 18.1821 122.729C18.1821 120.219 20.2172 118.183 22.7276 118.183Z" fill="#141313"/>
<path d="M45.4548 118.183H36.3638V127.275H45.4548V118.183Z" fill="#141313"/>
<path d="M81.8196 118.183H72.7285V127.275H81.8196V118.183Z" fill="#141313"/>
<path d="M90.9104 118.183H81.8193V127.275H90.9104V118.183Z" fill="#141313"/>
<path d="M100.002 118.183H90.9106V127.275H100.002V118.183Z" fill="#141313"/>
<path d="M104.546 127.275C103.487 127.275 100.001 127.275 100.001 127.275C100.001 127.275 100.001 124.18 100.001 122.729C100.001 121.596 100.001 118.183 100.001 118.183C100.001 118.183 103.169 118.183 104.546 118.183C107.057 118.183 109.092 120.219 109.092 122.729C109.092 125.239 107.057 127.275 104.546 127.275Z" fill="#141313"/>
<path d="M127.274 118.183H118.183V127.275H127.274V118.183Z" fill="#141313"/>
<path d="M136.365 118.183H127.274V127.275H136.365V118.183Z" fill="#141313"/>
<path d="M159.093 118.183C160.153 118.183 163.639 118.183 163.639 118.183C163.639 118.183 163.639 121.278 163.639 122.729C163.639 123.862 163.639 127.275 163.639 127.275C163.639 127.275 160.471 127.275 159.093 127.275C156.582 127.275 154.548 125.238 154.548 122.729C154.548 120.219 156.582 118.183 159.093 118.183Z" fill="#141313"/>
<path d="M172.73 118.183H163.639V127.275H172.73V118.183Z" fill="#141313"/>
<path d="M181.821 118.183H172.729V127.275H181.821V118.183Z" fill="#141313"/>
<path d="M190.912 118.183H181.821V127.275H190.912V118.183Z" fill="#141313"/>
<path d="M209.094 127.275V118.183H200.003C200.003 123.204 204.073 127.275 209.094 127.275Z" fill="#141313"/>
<path d="M218.185 118.183H209.094V127.275H218.185V118.183Z" fill="#141313"/>
<path d="M218.185 118.183V127.275H227.276C227.276 122.254 223.206 118.183 218.185 118.183Z" fill="#141313"/>
<path d="M250.004 118.183C251.063 118.183 254.549 118.183 254.549 118.183C254.549 118.183 254.549 121.278 254.549 122.729C254.549 123.862 254.549 127.275 254.549 127.275C254.549 127.275 251.381 127.275 250.004 127.275C247.492 127.275 245.458 125.238 245.458 122.729C245.458 120.219 247.492 118.183 250.004 118.183Z" fill="#141313"/>
<path d="M263.64 118.183H254.549V127.275C259.57 127.275 263.64 123.204 263.64 118.183Z" fill="#141313"/>
<path d="M31.819 127.274C32.8784 127.274 36.3645 127.274 36.3645 127.274C36.3645 127.274 36.3645 130.369 36.3645 131.82C36.3645 132.953 36.3645 136.366 36.3645 136.366C36.3645 136.366 33.1968 136.366 31.819 136.366C29.3077 136.366 27.2734 134.329 27.2734 131.82C27.2734 129.31 29.3077 127.274 31.819 127.274Z" fill="#141313"/>
<path d="M45.4548 127.274H36.3638V136.366C41.3846 136.366 45.4548 132.295 45.4548 127.274Z" fill="#141313"/>
<path d="M59.0914 127.274C60.1509 127.274 63.6369 127.274 63.6369 127.274C63.6369 127.274 63.6369 130.369 63.6369 131.82C63.6369 132.953 63.6369 136.366 63.6369 136.366C63.6369 136.366 60.4693 136.366 59.0914 136.366C56.5801 136.366 54.5459 134.329 54.5459 131.82C54.5459 129.31 56.5801 127.274 59.0914 127.274Z" fill="#141313"/>
<path d="M72.7282 127.274H63.6372V136.366H72.7282V127.274Z" fill="#141313"/>
<path d="M81.8196 127.274H72.7285V136.366C77.7493 136.366 81.8196 132.295 81.8196 127.274Z" fill="#141313"/>
<path d="M109.092 136.366H118.183V127.274C113.163 127.274 109.092 131.345 109.092 136.366Z" fill="#141313"/>
<path d="M127.274 127.274H118.183V136.366H127.274V127.274Z" fill="#141313"/>
<path d="M136.365 127.274H127.274V136.366H136.365V127.274Z" fill="#141313"/>
<path d="M140.911 136.366C139.852 136.366 136.366 136.366 136.366 136.366C136.366 136.366 136.366 133.271 136.366 131.82C136.366 130.687 136.366 127.274 136.366 127.274C136.366 127.274 139.534 127.274 140.911 127.274C143.422 127.274 145.457 129.31 145.457 131.82C145.457 134.33 143.422 136.366 140.911 136.366Z" fill="#141313"/>
<path d="M190.912 127.274H181.821V136.366H190.912V127.274Z" fill="#141313"/>
<path d="M190.912 127.274V136.366H200.003C200.003 131.345 195.932 127.274 190.912 127.274Z" fill="#141313"/>
<path d="M218.185 127.274H209.094V136.366H218.185V127.274Z" fill="#141313"/>
<path d="M227.276 127.274H218.185V136.366H227.276V127.274Z" fill="#141313"/>
<path d="M236.367 127.274H227.276V136.366H236.367V127.274Z" fill="#141313"/>
<path d="M236.367 127.274V136.366H245.458C245.458 131.345 241.388 127.274 236.367 127.274Z" fill="#141313"/>
<path d="M27.2732 140.911C27.2732 141.97 27.2732 145.457 27.2732 145.457C27.2732 145.457 24.1787 145.457 22.7276 145.456C21.5945 145.457 18.1821 145.456 18.1821 145.456C18.1821 145.456 18.1821 142.288 18.1821 140.911C18.1822 138.401 20.2172 136.366 22.7275 136.366C25.2379 136.366 27.2732 138.401 27.2732 140.911Z" fill="#141313"/>
<path d="M90.9104 140.911C90.9104 141.97 90.9104 145.457 90.9104 145.457C90.9104 145.457 87.8159 145.457 86.3649 145.456C85.2317 145.457 81.8193 145.456 81.8193 145.456C81.8193 145.456 81.8193 142.288 81.8193 140.911C81.8194 138.401 83.8544 136.366 86.3647 136.366C88.8751 136.366 90.9104 138.401 90.9104 140.911Z" fill="#141313"/>
<path d="M100.001 145.457H109.092V136.366C104.071 136.366 100.001 140.436 100.001 145.457Z" fill="#141313"/>
<path d="M118.183 136.366H109.092V145.457H118.183V136.366Z" fill="#141313"/>
<path d="M127.274 136.366H118.183V145.457H127.274V136.366Z" fill="#141313"/>
<path d="M136.365 136.366H127.274V145.457H136.365V136.366Z" fill="#141313"/>
<path d="M168.184 136.366C170.695 136.366 172.73 138.401 172.73 140.911C172.73 143.422 170.695 145.457 168.184 145.457C165.674 145.457 163.639 143.422 163.639 140.911C163.639 138.401 165.674 136.366 168.184 136.366Z" fill="#141313"/>
<path d="M190.912 145.457V136.366H181.821C181.821 141.386 185.891 145.457 190.912 145.457Z" fill="#141313"/>
<path d="M200.003 136.366H190.912V145.457C195.932 145.457 200.003 141.386 200.003 136.366Z" fill="#141313"/>
<path d="M209.094 140.911C209.094 139.852 209.094 136.366 209.094 136.366C209.094 136.366 212.188 136.366 213.639 136.366C214.772 136.366 218.185 136.366 218.185 136.366C218.185 136.366 218.185 139.534 218.185 140.911C218.185 143.421 216.15 145.457 213.639 145.457C211.129 145.457 209.094 143.421 209.094 140.911Z" fill="#141313"/>
<path d="M245.458 136.366H236.367V145.457H245.458V136.366Z" fill="#141313"/>
<path d="M259.094 136.366C261.605 136.366 263.64 138.401 263.64 140.911C263.64 143.422 261.605 145.457 259.094 145.457C256.584 145.457 254.549 143.422 254.549 140.911C254.549 138.401 256.584 136.366 259.094 136.366Z" fill="#141313"/>
<path d="M0 154.548H9.09103V145.457C4.07026 145.457 0 149.527 0 154.548Z" fill="#141313"/>
<path d="M18.1823 145.457H9.09131V154.548H18.1823V145.457Z" fill="#141313"/>
<path d="M27.2732 145.457H18.1821V154.548H27.2732V145.457Z" fill="#141313"/>
<path d="M31.819 154.548C30.7595 154.548 27.2734 154.548 27.2734 154.548C27.2734 154.548 27.2734 151.453 27.2734 150.002C27.2734 148.869 27.2734 145.457 27.2734 145.457C27.2734 145.457 30.4419 145.457 31.819 145.457C34.3292 145.457 36.3645 147.492 36.3645 150.002C36.3645 152.512 34.3292 154.548 31.819 154.548Z" fill="#141313"/>
<path d="M50.0006 145.457C51.0601 145.457 54.5461 145.457 54.5461 145.457C54.5461 145.457 54.5461 148.551 54.5461 150.002C54.5461 151.135 54.5461 154.548 54.5461 154.548C54.5461 154.548 51.3785 154.548 50.0006 154.548C47.4893 154.548 45.4551 152.512 45.4551 150.002C45.4551 147.492 47.4893 145.457 50.0006 145.457Z" fill="#141313"/>
<path d="M59.0914 154.548C58.0319 154.548 54.5459 154.548 54.5459 154.548C54.5459 154.548 54.5459 151.453 54.5459 150.002C54.5459 148.869 54.5459 145.457 54.5459 145.457C54.5459 145.457 57.7143 145.457 59.0914 145.457C61.6017 145.457 63.6369 147.492 63.6369 150.002C63.6369 152.512 61.6017 154.548 59.0914 154.548Z" fill="#141313"/>
<path d="M90.9104 145.457H81.8193V154.548H90.9104V145.457Z" fill="#141313"/>
<path d="M109.092 154.548V145.457H100.001C100.001 150.477 104.071 154.548 109.092 154.548Z" fill="#141313"/>
<path d="M118.183 145.457H109.092V154.548H118.183V145.457Z" fill="#141313"/>
<path d="M136.365 154.548V145.457H127.274C127.274 150.477 131.345 154.548 136.365 154.548Z" fill="#141313"/>
<path d="M145.457 145.457H136.366V154.548H145.457V145.457Z" fill="#141313"/>
<path d="M154.548 145.457H145.457V154.548H154.548V145.457Z" fill="#141313"/>
<path d="M159.093 154.548C158.034 154.548 154.548 154.548 154.548 154.548C154.548 154.548 154.548 151.453 154.548 150.002C154.548 148.869 154.548 145.457 154.548 145.457C154.548 145.457 157.716 145.457 159.093 145.457C161.604 145.457 163.639 147.492 163.639 150.002C163.639 152.512 161.604 154.548 159.093 154.548Z" fill="#141313"/>
<path d="M231.821 145.457C232.881 145.457 236.367 145.457 236.367 145.457C236.367 145.457 236.367 148.551 236.367 150.002C236.367 151.135 236.367 154.548 236.367 154.548C236.367 154.548 233.199 154.548 231.821 154.548C229.31 154.548 227.276 152.512 227.276 150.002C227.276 147.492 229.31 145.457 231.821 145.457Z" fill="#141313"/>
<path d="M245.458 145.457H236.367V154.548H245.458V145.457Z" fill="#141313"/>
<path d="M9.09103 154.548H0V163.639H9.09103V154.548Z" fill="#141313"/>
<path d="M27.2732 154.548H18.1821V163.639H27.2732V154.548Z" fill="#141313"/>
<path d="M45.4548 159.093C45.4548 160.153 45.4548 163.639 45.4548 163.639C45.4548 163.639 42.3603 163.639 40.9093 163.638C39.7761 163.639 36.3638 163.638 36.3638 163.638C36.3638 163.638 36.3638 160.47 36.3638 159.093C36.3639 156.583 38.3989 154.548 40.9092 154.548C43.4196 154.548 45.4548 156.583 45.4548 159.093Z" fill="#141313"/>
<path d="M68.1827 154.548C70.6932 154.548 72.7282 156.583 72.7282 159.093C72.7282 161.604 70.6932 163.639 68.1827 163.639C65.6723 163.639 63.6372 161.604 63.6372 159.093C63.6372 156.583 65.6723 154.548 68.1827 154.548Z" fill="#141313"/>
<path d="M81.8193 159.093C81.8193 158.034 81.8193 154.548 81.8193 154.548C81.8193 154.548 84.9139 154.548 86.3649 154.548C87.498 154.548 90.9104 154.548 90.9104 154.548C90.9104 154.548 90.9104 157.716 90.9104 159.093C90.9104 161.603 88.8751 163.639 86.3649 163.639C83.8544 163.639 81.8193 161.603 81.8193 159.093Z" fill="#141313"/>
<path d="M118.183 154.548H109.092V163.639H118.183V154.548Z" fill="#141313"/>
<path d="M145.457 154.548H136.366V163.639H145.457V154.548Z" fill="#141313"/>
<path d="M154.548 154.548H145.457V163.639C150.477 163.639 154.548 159.568 154.548 154.548Z" fill="#141313"/>
<path d="M168.184 154.548C169.244 154.548 172.73 154.548 172.73 154.548C172.73 154.548 172.73 157.642 172.73 159.093C172.73 160.226 172.73 163.639 172.73 163.639C172.73 163.639 169.562 163.639 168.184 163.639C165.673 163.639 163.639 161.603 163.639 159.093C163.639 156.583 165.673 154.548 168.184 154.548Z" fill="#141313"/>
<path d="M181.821 154.548H172.729V163.639H181.821V154.548Z" fill="#141313"/>
<path d="M181.821 154.548V163.639H190.912C190.912 158.618 186.842 154.548 181.821 154.548Z" fill="#141313"/>
<path d="M200.003 163.639H209.094V154.548C204.073 154.548 200.003 158.618 200.003 163.639Z" fill="#141313"/>
<path d="M218.185 154.548H209.094V163.639H218.185V154.548Z" fill="#141313"/>
<path d="M222.731 163.639C221.671 163.639 218.185 163.639 218.185 163.639C218.185 163.639 218.185 160.544 218.185 159.093C218.185 157.96 218.185 154.548 218.185 154.548C218.185 154.548 221.353 154.548 222.731 154.548C225.241 154.548 227.276 156.583 227.276 159.093C227.276 161.603 225.241 163.639 222.731 163.639Z" fill="#141313"/>
<path d="M245.458 163.639V154.548H236.367C236.367 159.568 240.437 163.639 245.458 163.639Z" fill="#141313"/>
<path d="M254.549 154.548H245.458V163.639H254.549V154.548Z" fill="#141313"/>
<path d="M254.549 154.548V163.639H263.64C263.64 158.618 259.57 154.548 254.549 154.548Z" fill="#141313"/>
<path d="M9.09103 163.639H0V172.73H9.09103V163.639Z" fill="#141313"/>
<path d="M18.1823 163.639H9.09131V172.73H18.1823V163.639Z" fill="#141313"/>
<path d="M27.2732 163.639H18.1821V172.73H27.2732V163.639Z" fill="#141313"/>
<path d="M36.3645 163.639H27.2734V172.73H36.3645V163.639Z" fill="#141313"/>
<path d="M45.4548 163.639H36.3638V172.73H45.4548V163.639Z" fill="#141313"/>
<path d="M54.5461 163.639H45.4551V172.73H54.5461V163.639Z" fill="#141313"/>
<path d="M59.0914 172.73C58.0319 172.73 54.5459 172.73 54.5459 172.73C54.5459 172.73 54.5459 169.635 54.5459 168.184C54.5459 167.051 54.5459 163.639 54.5459 163.639C54.5459 163.639 57.7143 163.639 59.0914 163.639C61.6017 163.639 63.6369 165.674 63.6369 168.184C63.6369 170.694 61.6017 172.73 59.0914 172.73Z" fill="#141313"/>
<path d="M95.4562 163.639C97.9667 163.639 100.002 165.674 100.002 168.184C100.002 170.695 97.9667 172.73 95.4562 172.73C92.9458 172.73 90.9106 170.695 90.9106 168.184C90.9106 165.674 92.9458 163.639 95.4562 163.639Z" fill="#141313"/>
<path d="M118.183 172.73V163.639H109.092C109.092 168.66 113.162 172.73 118.183 172.73Z" fill="#141313"/>
<path d="M127.274 163.639H118.183V172.73H127.274V163.639Z" fill="#141313"/>
<path d="M136.365 163.639H127.274V172.73H136.365V163.639Z" fill="#141313"/>
<path d="M145.457 163.639H136.366V172.73H145.457V163.639Z" fill="#141313"/>
<path d="M181.821 163.639H172.729V172.73H181.821V163.639Z" fill="#141313"/>
<path d="M190.912 163.639H181.821V172.73C186.842 172.73 190.912 168.66 190.912 163.639Z" fill="#141313"/>
<path d="M209.094 172.73V163.639H200.003C200.003 168.66 204.073 172.73 209.094 172.73Z" fill="#141313"/>
<path d="M218.185 163.639H209.094V172.73H218.185V163.639Z" fill="#141313"/>
<path d="M231.821 163.639C234.332 163.639 236.367 165.674 236.367 168.184C236.367 170.695 234.332 172.73 231.821 172.73C229.311 172.73 227.276 170.695 227.276 168.184C227.276 165.674 229.311 163.639 231.821 163.639Z" fill="#141313"/>
<path d="M254.549 168.184C254.549 167.125 254.549 163.639 254.549 163.639C254.549 163.639 257.643 163.639 259.094 163.639C260.228 163.639 263.64 163.639 263.64 163.639C263.64 163.639 263.64 166.807 263.64 168.184C263.64 170.694 261.605 172.73 259.094 172.73C256.584 172.73 254.549 170.694 254.549 168.184Z" fill="#141313"/>
<path d="M9.09103 172.73H0V181.821H9.09103V172.73Z" fill="#141313"/>
<path d="M27.2732 172.73H18.1821V181.821H27.2732V172.73Z" fill="#141313"/>
<path d="M36.3645 172.73H27.2734V181.821H36.3645V172.73Z" fill="#141313"/>
<path d="M45.4548 172.73H36.3638V181.821C41.3846 181.821 45.4548 177.751 45.4548 172.73Z" fill="#141313"/>
<path d="M104.546 172.73C107.057 172.73 109.092 174.765 109.092 177.275C109.092 179.786 107.057 181.821 104.546 181.821C102.036 181.821 100.001 179.786 100.001 177.275C100.001 174.765 102.036 172.73 104.546 172.73Z" fill="#141313"/>
<path d="M136.365 181.821V172.73H127.274C127.274 177.751 131.345 181.821 136.365 181.821Z" fill="#141313"/>
<path d="M145.457 172.73H136.366V181.821H145.457V172.73Z" fill="#141313"/>
<path d="M150.002 181.821C148.943 181.821 145.457 181.821 145.457 181.821C145.457 181.821 145.457 178.726 145.457 177.275C145.457 176.142 145.457 172.73 145.457 172.73C145.457 172.73 148.625 172.73 150.002 172.73C152.512 172.73 154.548 174.765 154.548 177.275C154.548 179.786 152.512 181.821 150.002 181.821Z" fill="#141313"/>
<path d="M172.729 177.275C172.729 176.216 172.729 172.73 172.729 172.73C172.729 172.73 175.824 172.73 177.275 172.73C178.408 172.73 181.821 172.73 181.821 172.73C181.821 172.73 181.821 175.898 181.821 177.275C181.821 179.786 179.785 181.821 177.275 181.821C174.765 181.821 172.729 179.786 172.729 177.275Z" fill="#141313"/>
<path d="M200.003 177.275C200.003 178.335 200.003 181.821 200.003 181.821C200.003 181.821 196.908 181.821 195.457 181.821C194.324 181.821 190.912 181.821 190.912 181.821C190.912 181.821 190.912 178.652 190.912 177.275C190.912 174.765 192.947 172.73 195.457 172.73C197.967 172.73 200.003 174.765 200.003 177.275Z" fill="#141313"/>
<path d="M218.185 172.73H209.094V181.821H218.185V172.73Z" fill="#141313"/>
<path d="M0 186.366C0 185.307 0 181.821 0 181.821C0 181.821 3.09461 181.821 4.54552 181.821C5.6787 181.821 9.09103 181.821 9.09103 181.821C9.09103 181.821 9.09103 184.989 9.09103 186.366C9.09103 188.876 7.05581 190.912 4.54552 190.912C2.0351 190.912 0 188.876 0 186.366Z" fill="#141313"/>
<path d="M18.1821 186.366C18.1821 185.307 18.1821 181.821 18.1821 181.821C18.1821 181.821 21.2767 181.821 22.7276 181.821C23.8608 181.821 27.2732 181.821 27.2732 181.821C27.2732 181.821 27.2732 184.989 27.2732 186.366C27.2732 188.876 25.2379 190.912 22.7276 190.912C20.2172 190.912 18.1821 188.876 18.1821 186.366Z" fill="#141313"/>
<path d="M50.0006 181.821C51.0601 181.821 54.5461 181.821 54.5461 181.821C54.5461 181.821 54.5461 184.915 54.5461 186.366C54.5461 187.499 54.5461 190.912 54.5461 190.912C54.5461 190.912 51.3785 190.912 50.0006 190.912C47.4893 190.912 45.4551 188.876 45.4551 186.366C45.4551 183.856 47.4893 181.821 50.0006 181.821Z" fill="#141313"/>
<path d="M63.6369 181.821H54.5459V190.912H63.6369V181.821Z" fill="#141313"/>
<path d="M72.7282 181.821H63.6372V190.912H72.7282V181.821Z" fill="#141313"/>
<path d="M72.7285 181.821V190.912H81.8196C81.8196 185.891 77.7493 181.821 72.7285 181.821Z" fill="#141313"/>
<path d="M113.638 181.821C116.148 181.821 118.183 183.856 118.183 186.366C118.183 188.877 116.148 190.912 113.638 190.912C111.127 190.912 109.092 188.877 109.092 186.366C109.092 183.856 111.127 181.821 113.638 181.821Z" fill="#141313"/>
<path d="M159.093 181.821C160.153 181.821 163.639 181.821 163.639 181.821C163.639 181.821 163.639 184.915 163.639 186.366C163.639 187.499 163.639 190.912 163.639 190.912C163.639 190.912 160.471 190.912 159.093 190.912C156.582 190.912 154.548 188.876 154.548 186.366C154.548 183.856 156.582 181.821 159.093 181.821Z" fill="#141313"/>
<path d="M168.184 190.912C167.125 190.912 163.639 190.912 163.639 190.912C163.639 190.912 163.639 187.817 163.639 186.366C163.639 185.233 163.639 181.821 163.639 181.821C163.639 181.821 166.807 181.821 168.184 181.821C170.694 181.821 172.73 183.856 172.73 186.366C172.73 188.876 170.694 190.912 168.184 190.912Z" fill="#141313"/>
<path d="M181.821 190.912H190.912V181.821C185.891 181.821 181.821 185.891 181.821 190.912Z" fill="#141313"/>
<path d="M200.003 181.821H190.912V190.912H200.003V181.821Z" fill="#141313"/>
<path d="M209.094 181.821H200.003V190.912H209.094V181.821Z" fill="#141313"/>
<path d="M218.185 181.821H209.094V190.912H218.185V181.821Z" fill="#141313"/>
<path d="M218.185 181.821V190.912H227.276C227.276 185.891 223.206 181.821 218.185 181.821Z" fill="#141313"/>
<path d="M240.912 181.821C241.972 181.821 245.458 181.821 245.458 181.821C245.458 181.821 245.458 184.915 245.458 186.366C245.458 187.499 245.458 190.912 245.458 190.912C245.458 190.912 242.29 190.912 240.912 190.912C238.401 190.912 236.367 188.876 236.367 186.366C236.367 183.856 238.401 181.821 240.912 181.821Z" fill="#141313"/>
<path d="M254.549 181.821H245.458V190.912H254.549V181.821Z" fill="#141313"/>
<path d="M259.094 190.912C258.035 190.912 254.549 190.912 254.549 190.912C254.549 190.912 254.549 187.817 254.549 186.366C254.549 185.233 254.549 181.821 254.549 181.821C254.549 181.821 257.717 181.821 259.094 181.821C261.605 181.821 263.64 183.856 263.64 186.366C263.64 188.876 261.605 190.912 259.094 190.912Z" fill="#141313"/>
<path d="M81.8196 200.003V190.912H72.7285C72.7285 195.933 76.7986 200.003 81.8196 200.003Z" fill="#141313"/>
<path d="M81.8193 190.912V200.003H90.9104C90.9104 194.982 86.8402 190.912 81.8193 190.912Z" fill="#141313"/>
<path d="M127.274 195.457C127.274 196.517 127.274 200.003 127.274 200.003C127.274 200.003 124.18 200.003 122.729 200.003C121.595 200.003 118.183 200.003 118.183 200.003C118.183 200.003 118.183 196.834 118.183 195.457C118.183 192.947 120.218 190.912 122.729 190.912C125.239 190.912 127.274 192.947 127.274 195.457Z" fill="#141313"/>
<path d="M145.457 195.457C145.457 196.517 145.457 200.003 145.457 200.003C145.457 200.003 142.362 200.003 140.911 200.003C139.778 200.003 136.366 200.003 136.366 200.003C136.366 200.003 136.366 196.834 136.366 195.457C136.366 192.947 138.401 190.912 140.911 190.912C143.422 190.912 145.457 192.947 145.457 195.457Z" fill="#141313"/>
<path d="M172.729 200.003H181.821V190.912C176.8 190.912 172.729 194.982 172.729 200.003Z" fill="#141313"/>
<path d="M190.912 190.912H181.821V200.003H190.912V190.912Z" fill="#141313"/>
<path d="M227.276 190.912H218.185V200.003H227.276V190.912Z" fill="#141313"/>
<path d="M227.276 190.912V200.003H236.367C236.367 194.982 232.297 190.912 227.276 190.912Z" fill="#141313"/>
<path d="M90.9104 200.003H81.8193V209.094H90.9104V200.003Z" fill="#141313"/>
<path d="M100.002 200.003H90.9106V209.094H100.002V200.003Z" fill="#141313"/>
<path d="M104.546 209.094C103.487 209.094 100.001 209.094 100.001 209.094C100.001 209.094 100.001 205.999 100.001 204.548C100.001 203.415 100.001 200.003 100.001 200.003C100.001 200.003 103.169 200.003 104.546 200.003C107.057 200.003 109.092 202.038 109.092 204.548C109.092 207.059 107.057 209.094 104.546 209.094Z" fill="#141313"/>
<path d="M127.274 200.003H118.183V209.094H127.274V200.003Z" fill="#141313"/>
<path d="M136.365 200.003H127.274V209.094H136.365V200.003Z" fill="#141313"/>
<path d="M145.457 200.003H136.366V209.094H145.457V200.003Z" fill="#141313"/>
<path d="M159.093 200.003C160.153 200.003 163.639 200.003 163.639 200.003C163.639 200.003 163.639 203.097 163.639 204.548C163.639 205.681 163.639 209.094 163.639 209.094C163.639 209.094 160.471 209.094 159.093 209.094C156.582 209.094 154.548 207.058 154.548 204.548C154.548 202.038 156.582 200.003 159.093 200.003Z" fill="#141313"/>
<path d="M172.73 200.003H163.639V209.094H172.73V200.003Z" fill="#141313"/>
<path d="M181.821 200.003H172.729V209.094H181.821V200.003Z" fill="#141313"/>
<path d="M190.912 200.003H181.821V209.094H190.912V200.003Z" fill="#141313"/>
<path d="M204.548 200.003C207.059 200.003 209.094 202.038 209.094 204.548C209.094 207.059 207.059 209.094 204.548 209.094C202.038 209.094 200.003 207.059 200.003 204.548C200.003 202.038 202.038 200.003 204.548 200.003Z" fill="#141313"/>
<path d="M227.276 200.003H218.185V209.094H227.276V200.003Z" fill="#141313"/>
<path d="M236.367 200.003H227.276V209.094H236.367V200.003Z" fill="#141313"/>
<path d="M240.912 209.094C239.853 209.094 236.367 209.094 236.367 209.094C236.367 209.094 236.367 205.999 236.367 204.548C236.367 203.415 236.367 200.003 236.367 200.003C236.367 200.003 239.535 200.003 240.912 200.003C243.423 200.003 245.458 202.038 245.458 204.548C245.458 207.059 243.423 209.094 240.912 209.094Z" fill="#141313"/>
<path d="M90.9104 209.094H81.8193V218.185H90.9104V209.094Z" fill="#141313"/>
<path d="M100.002 209.094H90.9106V218.185C95.9315 218.185 100.002 214.115 100.002 209.094Z" fill="#141313"/>
<path d="M113.638 209.094C114.697 209.094 118.183 209.094 118.183 209.094C118.183 209.094 118.183 212.188 118.183 213.639C118.183 214.772 118.183 218.185 118.183 218.185C118.183 218.185 115.016 218.185 113.638 218.185C111.127 218.185 109.092 216.149 109.092 213.639C109.092 211.13 111.127 209.094 113.638 209.094Z" fill="#141313"/>
<path d="M127.274 209.094H118.183V218.185H127.274V209.094Z" fill="#141313"/>
<path d="M145.457 209.094H136.366V218.185H145.457V209.094Z" fill="#141313"/>
<path d="M181.821 209.094H172.729V218.185H181.821V209.094Z" fill="#141313"/>
<path d="M190.912 209.094H181.821V218.185H190.912V209.094Z" fill="#141313"/>
<path d="M227.276 209.094H218.185V218.185H227.276V209.094Z" fill="#141313"/>
<path d="M254.549 213.639C254.549 214.699 254.549 218.185 254.549 218.185C254.549 218.185 251.455 218.185 250.004 218.185C248.87 218.185 245.458 218.185 245.458 218.185C245.458 218.185 245.458 215.017 245.458 213.639C245.458 211.129 247.493 209.094 250.003 209.094C252.514 209.094 254.549 211.129 254.549 213.639Z" fill="#141313"/>
<path d="M90.9104 218.185H81.8193V227.276H90.9104V218.185Z" fill="#141313"/>
<path d="M127.274 218.185H118.183V227.276H127.274V218.185Z" fill="#141313"/>
<path d="M145.457 218.185H136.366V227.276H145.457V218.185Z" fill="#141313"/>
<path d="M145.457 218.185V227.276H154.548C154.548 222.255 150.477 218.185 145.457 218.185Z" fill="#141313"/>
<path d="M168.184 218.185C169.244 218.185 172.73 218.185 172.73 218.185C172.73 218.185 172.73 221.279 172.73 222.73C172.73 223.863 172.73 227.276 172.73 227.276C172.73 227.276 169.562 227.276 168.184 227.276C165.673 227.276 163.639 225.24 163.639 222.73C163.639 220.221 165.673 218.185 168.184 218.185Z" fill="#141313"/>
<path d="M181.821 218.185H172.729V227.276H181.821V218.185Z" fill="#141313"/>
<path d="M190.912 218.185H181.821V227.276H190.912V218.185Z" fill="#141313"/>
<path d="M200.003 218.185H190.912V227.276H200.003V218.185Z" fill="#141313"/>
<path d="M209.094 218.185H200.003V227.276H209.094V218.185Z" fill="#141313"/>
<path d="M218.185 218.185H209.094V227.276H218.185V218.185Z" fill="#141313"/>
<path d="M227.276 218.185H218.185V227.276H227.276V218.185Z" fill="#141313"/>
<path d="M227.276 218.185V227.276H236.367C236.367 222.255 232.297 218.185 227.276 218.185Z" fill="#141313"/>
<path d="M254.549 227.276V218.185H245.458C245.458 223.206 249.528 227.276 254.549 227.276Z" fill="#141313"/>
<path d="M254.549 218.185V227.276H263.64C263.64 222.255 259.57 218.185 254.549 218.185Z" fill="#141313"/>
<path d="M90.9104 236.367V227.276H81.8193C81.8194 232.297 85.8894 236.367 90.9104 236.367Z" fill="#141313"/>
<path d="M95.4562 236.367C94.3967 236.367 90.9106 236.367 90.9106 236.367C90.9106 236.367 90.9106 233.272 90.9106 231.821C90.9106 230.688 90.9106 227.276 90.9106 227.276C90.9106 227.276 94.0791 227.276 95.4562 227.276C97.9665 227.276 100.002 229.311 100.002 231.821C100.002 234.332 97.9665 236.367 95.4562 236.367Z" fill="#141313"/>
<path d="M113.638 227.276C114.697 227.276 118.183 227.276 118.183 227.276C118.183 227.276 118.183 230.37 118.183 231.821C118.183 232.954 118.183 236.367 118.183 236.367C118.183 236.367 115.016 236.367 113.638 236.367C111.127 236.367 109.092 234.331 109.092 231.821C109.092 229.312 111.127 227.276 113.638 227.276Z" fill="#141313"/>
<path d="M127.274 227.276H118.183V236.367C123.204 236.367 127.274 232.297 127.274 227.276Z" fill="#141313"/>
<path d="M145.457 227.276H136.366V236.367H145.457V227.276Z" fill="#141313"/>
<path d="M154.548 227.276H145.457V236.367H154.548V227.276Z" fill="#141313"/>
<path d="M200.003 227.276H190.912V236.367H200.003V227.276Z" fill="#141313"/>
<path d="M236.367 227.276H227.276V236.367H236.367V227.276Z" fill="#141313"/>
<path d="M236.367 227.276V236.367H245.458C245.458 231.346 241.388 227.276 236.367 227.276Z" fill="#141313"/>
<path d="M254.549 231.821C254.549 230.762 254.549 227.276 254.549 227.276C254.549 227.276 257.643 227.276 259.094 227.276C260.228 227.276 263.64 227.276 263.64 227.276C263.64 227.276 263.64 230.444 263.64 231.821C263.64 234.332 261.605 236.367 259.094 236.367C256.584 236.367 254.549 234.332 254.549 231.821Z" fill="#141313"/>
<path d="M109.092 240.912C109.092 241.972 109.092 245.458 109.092 245.458C109.092 245.458 105.998 245.458 104.546 245.458C103.413 245.458 100.001 245.458 100.001 245.458C100.001 245.458 100.001 242.29 100.001 240.912C100.001 238.402 102.036 236.367 104.546 236.367C107.057 236.367 109.092 238.402 109.092 240.912Z" fill="#141313"/>
<path d="M145.457 236.367H136.366V245.458H145.457V236.367Z" fill="#141313"/>
<path d="M154.548 236.367H145.457V245.458C150.477 245.458 154.548 241.388 154.548 236.367Z" fill="#141313"/>
<path d="M181.821 240.912C181.821 241.972 181.821 245.458 181.821 245.458C181.821 245.458 178.726 245.458 177.275 245.458C176.142 245.458 172.729 245.458 172.729 245.458C172.729 245.458 172.729 242.29 172.729 240.912C172.73 238.402 174.765 236.367 177.275 236.367C179.785 236.367 181.821 238.402 181.821 240.912Z" fill="#141313"/>
<path d="M200.003 236.367H190.912V245.458H200.003V236.367Z" fill="#141313"/>
<path d="M204.548 245.458C203.489 245.458 200.003 245.458 200.003 245.458C200.003 245.458 200.003 242.363 200.003 240.912C200.003 239.779 200.003 236.367 200.003 236.367C200.003 236.367 203.171 236.367 204.548 236.367C207.059 236.367 209.094 238.402 209.094 240.912C209.094 243.423 207.059 245.458 204.548 245.458Z" fill="#141313"/>
<path d="M218.185 245.458H227.276V236.367C222.255 236.367 218.185 240.437 218.185 245.458Z" fill="#141313"/>
<path d="M236.367 236.367H227.276V245.458H236.367V236.367Z" fill="#141313"/>
<path d="M245.458 236.367H236.367V245.458H245.458V236.367Z" fill="#141313"/>
<path d="M250.004 245.458C248.944 245.458 245.458 245.458 245.458 245.458C245.458 245.458 245.458 242.363 245.458 240.912C245.458 239.779 245.458 236.367 245.458 236.367C245.458 236.367 248.626 236.367 250.004 236.367C252.514 236.367 254.549 238.402 254.549 240.912C254.549 243.423 252.514 245.458 250.004 245.458Z" fill="#141313"/>
<path d="M86.3649 245.458C87.4243 245.458 90.9104 245.458 90.9104 245.458C90.9104 245.458 90.9104 248.552 90.9104 250.003C90.9104 251.136 90.9104 254.549 90.9104 254.549C90.9104 254.549 87.7427 254.549 86.3649 254.549C83.8536 254.549 81.8193 252.513 81.8193 250.003C81.8193 247.494 83.8536 245.458 86.3649 245.458Z" fill="#141313"/>
<path d="M100.002 245.458H90.9106V254.549H100.002V245.458Z" fill="#141313"/>
<path d="M109.092 245.458H100.001V254.549H109.092V245.458Z" fill="#141313"/>
<path d="M109.092 245.458V254.549H118.183C118.183 249.528 114.113 245.458 109.092 245.458Z" fill="#141313"/>
<path d="M136.366 250.003C136.366 248.944 136.366 245.458 136.366 245.458C136.366 245.458 139.46 245.458 140.911 245.458C142.044 245.458 145.457 245.458 145.457 245.458C145.457 245.458 145.457 248.626 145.457 250.003C145.457 252.514 143.422 254.549 140.911 254.549C138.401 254.549 136.366 252.514 136.366 250.003Z" fill="#141313"/>
<path d="M168.184 245.458C169.244 245.458 172.73 245.458 172.73 245.458C172.73 245.458 172.73 248.552 172.73 250.003C172.73 251.136 172.73 254.549 172.73 254.549C172.73 254.549 169.562 254.549 168.184 254.549C165.673 254.549 163.639 252.513 163.639 250.003C163.639 247.494 165.673 245.458 168.184 245.458Z" fill="#141313"/>
<path d="M181.821 245.458H172.729V254.549H181.821V245.458Z" fill="#141313"/>
<path d="M200.003 245.458H190.912V254.549H200.003V245.458Z" fill="#141313"/>
<path d="M227.276 245.458H218.185V254.549H227.276V245.458Z" fill="#141313"/>
<path d="M236.367 245.458H227.276V254.549H236.367V245.458Z" fill="#141313"/>
<path d="M245.458 245.458H236.367V254.549H245.458V245.458Z" fill="#141313"/>
<path d="M259.094 245.458C261.605 245.458 263.64 247.493 263.64 250.003C263.64 252.514 261.605 254.549 259.094 254.549C256.584 254.549 254.549 252.514 254.549 250.003C254.549 247.493 256.584 245.458 259.094 245.458Z" fill="#141313"/>
<path d="M77.274 254.549C79.7846 254.549 81.8196 256.584 81.8196 259.094C81.8196 261.605 79.7846 263.64 77.274 263.64C74.7636 263.64 72.7285 261.605 72.7285 259.094C72.7285 256.584 74.7636 254.549 77.274 254.549Z" fill="#141313"/>
<path d="M109.092 263.64V254.549H100.001C100.001 259.57 104.071 263.64 109.092 263.64Z" fill="#141313"/>
<path d="M118.183 254.549H109.092V263.64C114.113 263.64 118.183 259.57 118.183 254.549Z" fill="#141313"/>
<path d="M131.82 254.549C134.33 254.549 136.365 256.584 136.365 259.094C136.365 261.605 134.33 263.64 131.82 263.64C129.31 263.64 127.274 261.605 127.274 259.094C127.274 256.584 129.31 254.549 131.82 254.549Z" fill="#141313"/>
<path d="M150.002 254.549C152.513 254.549 154.548 256.584 154.548 259.094C154.548 261.605 152.513 263.64 150.002 263.64C147.492 263.64 145.457 261.605 145.457 259.094C145.457 256.584 147.492 254.549 150.002 254.549Z" fill="#141313"/>
<path d="M172.729 259.094C172.729 258.035 172.729 254.549 172.729 254.549C172.729 254.549 175.824 254.549 177.275 254.549C178.408 254.549 181.821 254.549 181.821 254.549C181.821 254.549 181.821 257.717 181.821 259.094C181.821 261.605 179.785 263.64 177.275 263.64C174.765 263.64 172.729 261.605 172.729 259.094Z" fill="#141313"/>
<path d="M200.003 263.64V254.549H190.912C190.912 259.57 194.982 263.64 200.003 263.64Z" fill="#141313"/>
<path d="M209.094 254.549H200.003V263.64H209.094V254.549Z" fill="#141313"/>
<path d="M218.185 254.549H209.094V263.64H218.185V254.549Z" fill="#141313"/>
<path d="M227.276 254.549H218.185V263.64H227.276V254.549Z" fill="#141313"/>
<path d="M236.367 254.549H227.276V263.64H236.367V254.549Z" fill="#141313"/>
<path d="M245.458 254.549H236.367V263.64C241.388 263.64 245.458 259.57 245.458 254.549Z" fill="#141313"/>
<path d="M41.9109 0.00494385H21.7264C11.8893 0.00494385 3.55541 6.50422 0.890921 15.3873C0.615372 16.3063 0.400278 17.2506 0.250731 18.216C0.0859103 19.2813 0 20.372 0 21.4825V42.1462C0 53.9948 9.74923 63.6301 21.7264 63.6301L31.8186 63.632L41.9109 63.6295C53.8874 63.6295 63.6372 53.9941 63.6372 42.1455V21.4825C63.6372 9.63962 53.888 0.00494385 41.9109 0.00494385ZM54.0917 42.1462C54.0917 48.7288 48.6278 54.0845 41.9083 54.0845L31.8186 54.0864L21.7289 54.0839C15.0095 54.0839 9.54559 48.7282 9.54559 42.1462V21.4825C9.54559 19.4264 10.0789 17.4905 11.0175 15.7991C11.9212 14.1719 13.1996 12.7725 14.739 11.7129C16.7181 10.3505 19.1281 9.55053 21.7258 9.55053H41.9109C48.6278 9.55053 54.0917 14.9031 54.0917 21.4825V42.1462Z" fill="#141313"/>
<path d="M241.914 0.00512695H221.729C211.892 0.00512695 203.558 6.5044 200.894 15.3875C200.618 16.3064 200.403 17.2508 200.254 18.2162C200.089 19.2815 200.003 20.3722 200.003 21.4827V42.1463C200.003 53.995 209.752 63.6303 221.729 63.6303L231.822 63.6322L241.914 63.6296C253.89 63.6296 263.64 53.9943 263.64 42.1457V21.4827C263.64 9.63981 253.891 0.00512695 241.914 0.00512695ZM254.095 42.1463C254.095 48.729 248.631 54.0847 241.911 54.0847L231.822 54.0866L221.732 54.0841C215.012 54.0841 209.549 48.7283 209.549 42.1463V21.4827C209.549 19.4266 210.082 17.4907 211.02 15.7993C211.924 14.1721 213.203 12.7727 214.742 11.7131C216.721 10.3506 219.131 9.55071 221.729 9.55071H241.914C248.631 9.55071 254.095 14.9032 254.095 21.4827V42.1463Z" fill="#141313"/>
<path d="M41.9109 200.008H21.7264C11.8893 200.008 3.55541 206.507 0.890921 215.39C0.615372 216.309 0.400278 217.254 0.250731 218.219C0.0859103 219.284 0 220.375 0 221.485V242.149C0 253.998 9.74923 263.633 21.7264 263.633L31.8186 263.635L41.9109 263.632C53.8874 263.632 63.6372 253.997 63.6372 242.148V221.485C63.6372 209.643 53.888 200.008 41.9109 200.008ZM54.0917 242.149C54.0917 248.732 48.6278 254.087 41.9083 254.087L31.8186 254.089L21.7289 254.087C15.0095 254.087 9.54559 248.731 9.54559 242.149V221.485C9.54559 219.429 10.0789 217.493 11.0175 215.802C11.9212 214.175 13.1996 212.775 14.739 211.716C16.7181 210.353 19.1281 209.553 21.7258 209.553H41.9109C48.6278 209.553 54.0917 214.906 54.0917 221.485V242.149Z" fill="#141313"/>
<path d="M31.5513 44.9204C38.9349 44.9204 44.9205 38.9348 44.9205 31.5512C44.9205 24.1676 38.9349 18.1821 31.5513 18.1821C24.1677 18.1821 18.1821 24.1676 18.1821 31.5512C18.1821 38.9348 24.1677 44.9204 31.5513 44.9204Z" fill="#141313"/>
<path d="M231.554 44.9204C238.938 44.9204 244.923 38.9348 244.923 31.5512C244.923 24.1676 238.938 18.1821 231.554 18.1821C224.171 18.1821 218.185 24.1676 218.185 31.5512C218.185 38.9348 224.171 44.9204 231.554 44.9204Z" fill="#141313"/>
<path d="M31.5513 244.923C38.9349 244.923 44.9205 238.938 44.9205 231.554C44.9205 224.17 38.9349 218.185 31.5513 218.185C24.1677 218.185 18.1821 224.17 18.1821 231.554C18.1821 238.938 24.1677 244.923 31.5513 244.923Z" fill="#141313"/>
</svg>
