<svg width="49" height="48" viewBox="0 0 49 48" fill="none" xmlns="http://www.w3.org/2000/svg">
<g clip-path="url(#clip0_1282_24163)">
<mask id="mask0_1282_24163" style="mask-type:luminance" maskUnits="userSpaceOnUse" x="0" y="-41" width="49" height="89">
<path d="M48.5 0H0.5V48H48.5V0Z" fill="white"/>
<path d="M33.3264 -40.9598L31.0869 -40.0639C29.4476 -39.4082 27.5937 -39.3178 25.8344 -39.3178C25.2426 -39.3178 24.6525 -39.3292 24.0277 -39.3412C23.4043 -39.3533 22.7598 -39.3656 22.1149 -39.3656H17.3666C13.6313 -39.3656 10.4362 -36.5744 9.93461 -32.8729L9.8478 -32.2325C9.26241 -31.9084 8.72198 -31.5091 8.24027 -31.0448C6.73512 -29.5939 5.90618 -27.6439 5.90618 -25.5539C5.90618 -22.8821 7.31112 -20.4531 9.49755 -19.0845C9.66873 -17.5937 10.2531 -16.227 11.1328 -15.1014C7.38799 -14.4513 4.53125 -11.178 4.53125 -7.25007V0.812408H44.4686V-7.25007C44.4686 -11.178 41.6119 -14.4513 37.8671 -15.1014C38.7468 -16.227 39.3311 -17.5937 39.5024 -19.0845C41.6888 -20.4531 43.0937 -22.8821 43.0937 -25.5539C43.0937 -28.7425 41.1134 -31.5448 38.226 -32.6642L34.553 -38.8829L33.3264 -40.9598ZM32.1314 -37.4526L36.3661 -30.2829C38.5926 -29.8607 40.2812 -27.9004 40.2812 -25.5539C40.2812 -23.3408 38.7799 -21.4718 36.7422 -20.9118V-20C36.7422 -17.1569 34.4291 -14.8438 31.5859 -14.8438H30.9061V-12.4063H36.4999C39.3431 -12.4063 41.6561 -10.0932 41.6561 -7.25007V-2.00008H7.34374V-7.25007C7.34374 -10.0932 9.65683 -12.4063 12.5 -12.4063H18.0937V-14.8438H17.414C14.5708 -14.8438 12.2577 -17.1569 12.2577 -20V-20.9118C10.2201 -21.4718 8.71867 -23.3408 8.71867 -25.5539C8.71867 -26.8731 9.24189 -28.1039 10.192 -29.0196C10.8231 -29.6278 11.5869 -30.0427 12.4157 -30.2383L12.7217 -32.4953C13.0351 -34.8086 15.0321 -36.5531 17.3666 -36.5531H22.1149C23.3508 -36.5531 24.5969 -36.5053 25.8344 -36.5053C27.9947 -36.5053 30.1281 -36.6513 32.1314 -37.4526Z" fill="black"/>
<path d="M42.2967 28.7969C42.2967 38.6258 34.3289 46.5937 24.5 46.5937C14.6952 46.5938 6.77657 38.7368 6.70363 28.9324C6.67626 25.2612 7.76057 21.845 9.63997 19.0001C10.0584 18.3667 12.5 15 12.5 15L14.1469 16.647C14.5631 17.0632 15.0757 17.3702 15.639 17.5408C16.2024 17.7113 16.7991 17.7402 17.3763 17.6247C19.0541 17.2892 20.2597 15.8124 20.2502 14.1013C20.2405 12.3374 20.4805 10.0389 21.5 8.00011C23.6389 3.72222 27.4999 2.00013 27.4999 2.00013C27.4999 2.00013 29.351 8.99995 37.4999 18C40.0295 20.7939 42.2967 24.737 42.2967 28.7969Z" fill="white"/>
<path d="M30.0437 33.4026C30.0437 32.1666 29.6378 31.7976 29.232 31.7976C28.8262 31.7976 28.4203 32.1666 28.4203 33.4026C28.4203 34.6386 28.8262 35.0076 29.232 35.0076C29.6378 35.0076 30.0437 34.6386 30.0437 33.4026ZM25.8007 33.4026C25.8007 31.1151 27.2765 29.8053 29.232 29.8053C31.1874 29.8053 32.6632 31.1151 32.6632 33.4026C32.6632 35.7086 31.1874 37 29.232 37C27.2765 37 25.8007 35.7086 25.8007 33.4026ZM20.5799 27.3148C20.5799 26.0788 20.1741 25.7099 19.7682 25.7099C19.3624 25.7099 18.9566 26.0788 18.9566 27.3148C18.9566 28.5508 19.3624 28.9198 19.7682 28.9198C20.1741 28.9198 20.5799 28.5508 20.5799 27.3148ZM27.3503 23.902H30.468L21.6499 36.8155H18.5323L27.3503 23.902ZM16.3369 27.3148C16.3369 25.0273 17.8128 23.7175 19.7682 23.7175C21.7237 23.7175 23.1996 25.0273 23.1996 27.3148C23.1996 29.6209 21.7237 30.9122 19.7682 30.9122C17.8128 30.9122 16.3369 29.6209 16.3369 27.3148Z" fill="black"/>
<path d="M31.168 48H31.6941L31.5549 47.652L31.168 48Z" fill="white"/>
<path d="M29.116 47.9536L29.0645 48H33.208L32.1115 45.2593L29.116 47.9536Z" fill="black"/>
</mask>
<g mask="url(#mask0_1282_24163)">
<mask id="mask1_1282_24163" style="mask-type:luminance" maskUnits="userSpaceOnUse" x="0" y="0" width="49" height="48">
<path d="M0.5 0.000141144H48.4999V48H0.5V0.000141144Z" fill="white"/>
</mask>
<g mask="url(#mask1_1282_24163)">
<path d="M33.3264 -40.9595L31.0869 -40.0636C29.4476 -39.4079 27.5937 -39.3175 25.8344 -39.3175C25.2426 -39.3175 24.6525 -39.3289 24.0277 -39.3409C23.4043 -39.353 22.7598 -39.3654 22.1149 -39.3654H17.3666C13.6313 -39.3654 10.4362 -36.5741 9.93461 -32.8726L9.8478 -32.2322C9.26241 -31.9082 8.72198 -31.5089 8.24027 -31.0445C6.73512 -29.5936 5.90618 -27.6436 5.90618 -25.5536C5.90618 -22.8818 7.31112 -20.4528 9.49755 -19.0842C9.66873 -17.5934 10.2531 -16.2267 11.1328 -15.1011C7.38799 -14.451 4.53125 -11.1777 4.53125 -7.24979V0.812683H44.4686V-7.24979C44.4686 -11.1777 41.6119 -14.451 37.8671 -15.1011C38.7468 -16.2267 39.3311 -17.5934 39.5024 -19.0842C41.6888 -20.4528 43.0937 -22.8818 43.0937 -25.5536C43.0937 -28.7422 41.1134 -31.5446 38.226 -32.6639L34.553 -38.8826L33.3264 -40.9595ZM32.1314 -37.4523L36.3661 -30.2826C38.5926 -29.8604 40.2812 -27.9001 40.2812 -25.5536C40.2812 -23.3405 38.7799 -21.4715 36.7422 -20.9116V-19.9998C36.7422 -17.1566 34.4291 -14.8435 31.5859 -14.8435H30.9061V-12.406H36.4999C39.3431 -12.406 41.6561 -10.0929 41.6561 -7.24979V-1.99981H7.34374V-7.24979C7.34374 -10.0929 9.65683 -12.406 12.5 -12.406H18.0937V-14.8435H17.414C14.5708 -14.8435 12.2577 -17.1566 12.2577 -19.9998V-20.9116C10.2201 -21.4715 8.71867 -23.3405 8.71867 -25.5536C8.71867 -26.8728 9.24189 -28.1037 10.192 -29.0193C10.8231 -29.6276 11.5869 -30.0424 12.4157 -30.2381L12.7217 -32.495C13.0351 -34.8084 15.0321 -36.5529 17.3666 -36.5529H22.1149C23.3508 -36.5529 24.5969 -36.5051 25.8344 -36.5051C27.9947 -36.5051 30.1281 -36.651 32.1314 -37.4523Z" fill="white"/>
</g>
<mask id="mask2_1282_24163" style="mask-type:luminance" maskUnits="userSpaceOnUse" x="0" y="0" width="49" height="48">
<path d="M0.5 0.000141144H48.4999V48H0.5V0.000141144Z" fill="white"/>
</mask>
<g mask="url(#mask2_1282_24163)">
<path d="M42.2967 28.797C42.2967 38.6259 34.3289 46.5937 24.5 46.5937C14.6952 46.5938 6.77657 38.7369 6.70363 28.9324C6.67626 25.2613 7.76057 21.845 9.63997 19.0001C10.0584 18.3667 12.5 15.0001 12.5 15.0001L14.1469 16.6471C14.5631 17.0633 15.0757 17.3703 15.639 17.5408C16.2024 17.7114 16.7991 17.7402 17.3763 17.6248C19.0541 17.2893 20.2597 15.8124 20.2502 14.1014C20.2405 12.3375 20.4805 10.039 21.5 8.00018C23.6389 3.72228 27.4999 2.00019 27.4999 2.00019C27.4999 2.00019 29.351 9.00002 37.4999 18.0001C40.0295 20.7939 42.2967 24.737 42.2967 28.797Z" fill="#5D5D5D"/>
<path d="M30.0437 33.4027C30.0437 32.1667 29.6378 31.7977 29.232 31.7977C28.8262 31.7977 28.4203 32.1667 28.4203 33.4027C28.4203 34.6387 28.8262 35.0077 29.232 35.0077C29.6378 35.0077 30.0437 34.6387 30.0437 33.4027ZM25.8007 33.4027C25.8007 31.1152 27.2765 29.8053 29.232 29.8053C31.1874 29.8053 32.6632 31.1152 32.6632 33.4027C32.6632 35.7087 31.1874 37.0001 29.232 37.0001C27.2765 37.0001 25.8007 35.7087 25.8007 33.4027ZM20.5799 27.3149C20.5799 26.0789 20.1741 25.71 19.7682 25.71C19.3624 25.71 18.9566 26.0789 18.9566 27.3149C18.9566 28.5509 19.3624 28.9199 19.7682 28.9199C20.1741 28.9199 20.5799 28.5509 20.5799 27.3149ZM27.3503 23.9021H30.468L21.6499 36.8156H18.5323L27.3503 23.9021ZM16.3369 27.3149C16.3369 25.0274 17.8128 23.7176 19.7682 23.7176C21.7237 23.7176 23.1996 25.0274 23.1996 27.3149C23.1996 29.6209 21.7237 30.9122 19.7682 30.9122C17.8128 30.9122 16.3369 29.6209 16.3369 27.3149Z" fill="white"/>
</g>
<path d="M31.168 48H31.6941L31.5549 47.652L31.168 48Z" fill="#5D5D5D"/>
<path d="M29.116 47.9536L29.0645 48H33.208L32.1115 45.2593L29.116 47.9536Z" fill="white"/>
</g>
</g>
<defs>
<clipPath id="clip0_1282_24163">
<rect width="48" height="48" fill="white" transform="translate(0.5)"/>
</clipPath>
</defs>
</svg>
