<svg width="48" height="49" viewBox="0 0 48 49" fill="none" xmlns="http://www.w3.org/2000/svg">
<g clip-path="url(#clip0_2022_25242)">
<path fill-rule="evenodd" clip-rule="evenodd" d="M19.5 36.5C21.6668 36.5 23.8124 36.0732 25.8143 35.244C27.8161 34.4148 29.6351 33.1994 31.1673 31.6673C32.6994 30.1351 33.9148 28.3161 34.744 26.3143C35.5732 24.3124 36 22.1668 36 20C36 17.8332 35.5732 15.6876 34.744 13.6857C33.9148 11.6839 32.6994 9.8649 31.1673 8.33274C29.6351 6.80057 27.8161 5.58519 25.8143 4.75599C23.8124 3.92679 21.6668 3.5 19.5 3.5C15.1239 3.5 10.9271 5.23839 7.83274 8.33274C4.73839 11.4271 3 15.6239 3 20C3 24.3761 4.73839 28.5729 7.83274 31.6673C10.9271 34.7616 15.1239 36.5 19.5 36.5V36.5ZM39 20C39 25.1717 36.9455 30.1316 33.2886 33.7886C29.6316 37.4455 24.6717 39.5 19.5 39.5C14.3283 39.5 9.36838 37.4455 5.71142 33.7886C2.05446 30.1316 0 25.1717 0 20C0 14.8283 2.05446 9.86838 5.71142 6.21142C9.36838 2.55446 14.3283 0.5 19.5 0.5C24.6717 0.5 29.6316 2.55446 33.2886 6.21142C36.9455 9.86838 39 14.8283 39 20V20Z" fill="#5D5D5D"/>
<path d="M31.0312 35.7261C31.1213 35.8461 31.2173 35.9601 31.3253 36.0711L42.8753 47.621C43.4378 48.184 44.2009 48.5004 44.9967 48.5007C45.7925 48.5009 46.5558 48.1851 47.1188 47.6225C47.6817 47.06 47.9981 46.2969 47.9984 45.5011C47.9986 44.7053 47.6828 43.942 47.1203 43.3791L35.5703 31.8291C35.463 31.7205 35.3477 31.6202 35.2252 31.5291C34.0484 33.1337 32.6342 34.5499 31.0312 35.7291V35.7261Z" fill="#5D5D5D"/>
</g>
<defs>
<clipPath id="clip0_2022_25242">
<rect width="48" height="48" fill="white" transform="translate(0 0.5)"/>
</clipPath>
</defs>
</svg>
