<svg width="48" height="48" viewBox="0 0 48 48" fill="none" xmlns="http://www.w3.org/2000/svg">
<g clip-path="url(#clip0_4046_3844)">
<path d="M28.215 3.15C26.976 -1.05 21.024 -1.05 19.785 3.15L19.485 4.17C19.2999 4.79878 18.9764 5.37816 18.5382 5.86564C18.1 6.35312 17.5583 6.73633 16.9527 6.98719C16.3471 7.23805 15.6931 7.35018 15.0385 7.31537C14.384 7.28056 13.7455 7.09968 13.17 6.786L12.24 6.276C8.391 4.182 4.182 8.391 6.279 12.237L6.786 13.17C8.124 15.63 6.855 18.693 4.17 19.485L3.15 19.785C-1.05 21.024 -1.05 26.976 3.15 28.215L4.17 28.515C4.79878 28.7001 5.37816 29.0236 5.86564 29.4618C6.35312 29.9 6.73633 30.4417 6.98719 31.0473C7.23805 31.6529 7.35018 32.3069 7.31537 32.9615C7.28056 33.616 7.09968 34.2545 6.786 34.83L6.276 35.76C4.182 39.609 8.391 43.818 12.237 41.721L13.17 41.214C13.7455 40.9003 14.384 40.7194 15.0385 40.6846C15.6931 40.6498 16.3471 40.762 16.9527 41.0128C17.5583 41.2637 18.1 41.6469 18.5382 42.1344C18.9764 42.6218 19.2999 43.2012 19.485 43.83L19.785 44.85C21.024 49.05 26.976 49.05 28.215 44.85L28.515 43.83C28.7001 43.2012 29.0236 42.6218 29.4618 42.1344C29.9 41.6469 30.4417 41.2637 31.0473 41.0128C31.6529 40.762 32.3069 40.6498 32.9615 40.6846C33.616 40.7194 34.2545 40.9003 34.83 41.214L35.76 41.724C39.609 43.818 43.818 39.609 41.721 35.763L41.214 34.83C40.9003 34.2545 40.7194 33.616 40.6846 32.9615C40.6498 32.3069 40.762 31.6529 41.0128 31.0473C41.2637 30.4417 41.6469 29.9 42.1344 29.4618C42.6218 29.0236 43.2012 28.7001 43.83 28.515L44.85 28.215C49.05 26.976 49.05 21.024 44.85 19.785L43.83 19.485C43.2012 19.2999 42.6218 18.9764 42.1344 18.5382C41.6469 18.1 41.2637 17.5583 41.0128 16.9527C40.762 16.3471 40.6498 15.6931 40.6846 15.0385C40.7194 14.384 40.9003 13.7455 41.214 13.17L41.724 12.24C43.818 8.391 39.609 4.182 35.763 6.279L34.83 6.786C34.2545 7.09968 33.616 7.28056 32.9615 7.31537C32.3069 7.35018 31.6529 7.23805 31.0473 6.98719C30.4417 6.73633 29.9 6.35312 29.4618 5.86564C29.0236 5.37816 28.7001 4.79878 28.515 4.17L28.215 3.15ZM24 32.79C21.6687 32.79 19.433 31.8639 17.7845 30.2155C16.1361 28.567 15.21 26.3313 15.21 24C15.21 21.6687 16.1361 19.433 17.7845 17.7845C19.433 16.1361 21.6687 15.21 24 15.21C26.3305 15.21 28.5655 16.1358 30.2133 17.7837C31.8612 19.4315 32.787 21.6665 32.787 23.997C32.787 26.3275 31.8612 28.5625 30.2133 30.2103C28.5655 31.8582 26.3305 32.784 24 32.784V32.79Z" fill="#E7E7E7"/>
</g>
<defs>
<clipPath id="clip0_4046_3844">
<rect width="48" height="48" fill="white"/>
</clipPath>
</defs>
</svg>
