<svg width="49" height="48" viewBox="0 0 49 48" fill="none" xmlns="http://www.w3.org/2000/svg">
<g clip-path="url(#clip0_1282_24148)">
<path d="M12.7098 12.9625L8.5513 13.2838C7.39416 13.3732 6.36357 13.9797 5.72364 14.9477L0.927708 22.2012C0.442368 22.9353 0.365212 23.8539 0.721178 24.6587C1.07724 25.4634 1.80895 26.0242 2.67848 26.159L6.4861 26.7486C7.37681 22.0218 9.50905 17.3066 12.7098 12.9625ZM21.7513 42.0138L22.3411 45.8215C22.4758 46.691 23.0366 47.4227 23.8412 47.7787C24.1693 47.9243 24.5241 47.9997 24.883 47.9999C25.3867 47.9995 25.8791 47.8507 26.2988 47.5721L33.5525 42.7763C34.5205 42.1363 35.127 41.1056 35.2162 39.9486L35.5375 35.7901C31.1933 38.991 26.4782 41.1232 21.7513 42.0138ZM20.3193 39.3747C20.4515 39.3747 20.5844 39.3638 20.7171 39.3417C22.6974 39.0106 24.6061 38.4528 26.4269 37.7226L10.7774 22.0731C10.0473 23.8938 9.48945 25.8025 9.15833 27.783C9.02783 28.5636 9.28967 29.3589 9.84926 29.9186L18.5814 38.6508C19.0461 39.1153 19.6732 39.3747 20.3193 39.3747ZM44.6726 21.2814C48.5022 13.8776 48.644 6.05368 48.4439 2.38433C48.3753 1.12706 47.373 0.124692 46.1156 0.0561609C45.415 0.0183725 44.7136 -0.000353046 44.012 5.03935e-06C39.9089 5.03935e-06 33.4167 0.621469 27.2186 3.82741C22.2928 6.37524 15.8337 11.9853 12.023 19.3579C12.068 19.3931 12.112 19.4304 12.1534 19.4718L29.0283 36.3467C29.0697 36.3881 29.107 36.432 29.1421 36.477C36.5147 32.6662 42.1248 26.2071 44.6726 21.2814ZM28.409 10.1474C31.1503 7.4061 35.611 7.40582 38.3525 10.1474C39.6806 11.4754 40.4119 13.2412 40.4119 15.1192C40.4119 16.9973 39.6806 18.7631 38.3525 20.091C36.982 21.4616 35.1811 22.147 33.3808 22.1471C31.58 22.1472 29.7799 21.4619 28.409 20.091C27.0809 18.7631 26.3495 16.9973 26.3495 15.1192C26.3495 13.2412 27.0809 11.4754 28.409 10.1474Z" fill="#5D5D5D"/>
<path d="M30.3973 18.1022C32.0422 19.7471 34.7187 19.7471 36.3635 18.1022C37.1603 17.3054 37.5992 16.246 37.5992 15.1191C37.5992 13.9923 37.1603 12.9329 36.3635 12.1361C35.5412 11.3137 34.4608 10.9025 33.3804 10.9025C32.3002 10.9025 31.2198 11.3137 30.3974 12.1361C29.6007 12.9329 29.1617 13.9923 29.1617 15.1191C29.1617 16.246 29.6006 17.3054 30.3973 18.1022ZM1.9345 39.5564C2.29441 39.5564 2.65431 39.4191 2.92881 39.1444L7.51999 34.5533C8.06918 34.0041 8.06918 33.1137 7.51999 32.5645C6.9709 32.0154 6.08047 32.0154 5.53129 32.5645L0.940106 37.1557C0.390923 37.7049 0.390923 38.5953 0.940106 39.1444C1.07055 39.2752 1.22554 39.3789 1.3962 39.4496C1.56685 39.5203 1.74979 39.5566 1.9345 39.5564ZM11.7276 36.7721C11.1785 36.2229 10.288 36.2229 9.73885 36.7721L0.911887 45.5991C0.362704 46.1483 0.362704 47.0386 0.911887 47.5878C1.18648 47.8624 1.54638 47.9996 1.90629 47.9996C2.26619 47.9996 2.62609 47.8624 2.90059 47.5877L11.7275 38.7608C12.2767 38.2116 12.2767 37.3213 11.7276 36.7721ZM13.9463 40.9797L9.35523 45.5709C8.80604 46.12 8.80604 47.0104 9.35523 47.5596C9.62982 47.8341 9.98972 47.9715 10.3495 47.9715C10.7093 47.9715 11.0693 47.8342 11.3438 47.5596L15.935 42.9684C16.4842 42.4192 16.4842 41.5289 15.935 40.9797C15.3859 40.4305 14.4955 40.4305 13.9463 40.9797Z" fill="#5D5D5D"/>
</g>
<defs>
<clipPath id="clip0_1282_24148">
<rect width="48" height="48" fill="white" transform="translate(0.5)"/>
</clipPath>
</defs>
</svg>
