<svg width="48" height="48" viewBox="0 0 48 48" fill="none" xmlns="http://www.w3.org/2000/svg">
<mask id="mask0_747_6539" style="mask-type:luminance" maskUnits="userSpaceOnUse" x="0" y="0" width="48" height="48">
<path d="M0 0.000141144H47.9999V48H0V0.000141144Z" fill="white"/>
</mask>
<g mask="url(#mask0_747_6539)">
<path d="M15.6592 20.1299C16.4358 20.1299 17.0654 19.5003 17.0654 18.7236V16.0458C17.0654 15.2691 16.4358 14.6395 15.6592 14.6395C14.8826 14.6395 14.2529 15.2691 14.2529 16.0458V18.7236C14.2529 19.5003 14.8826 20.1299 15.6592 20.1299Z" fill="#431D05"/>
<path d="M15.6592 32.5916C16.4358 32.5916 17.0654 31.9619 17.0654 31.1853V23.455C17.0654 22.6784 16.4358 22.0487 15.6592 22.0487C14.8826 22.0487 14.2529 22.6784 14.2529 23.455V31.1853C14.2529 31.9619 14.8826 32.5916 15.6592 32.5916Z" fill="#431D05"/>
<path d="M32.457 27.0571C33.2336 27.0571 33.8633 26.4275 33.8633 25.6509V23.455C33.8633 22.6784 33.2336 22.0487 32.457 22.0487C31.6804 22.0487 31.0508 22.6784 31.0508 23.455V25.6509C31.0508 26.4275 31.6804 27.0571 32.457 27.0571Z" fill="#431D05"/>
<path d="M32.457 20.1299C33.2336 20.1299 33.8633 19.5003 33.8633 18.7236V16.0458C33.8633 15.2691 33.2336 14.6395 32.457 14.6395C31.6804 14.6395 31.0508 15.2691 31.0508 16.0458V18.7236C31.0508 19.5003 31.6804 20.1299 32.457 20.1299Z" fill="#431D05"/>
<path d="M14.2526 4.78913V11.1132C14.2526 11.8898 14.8822 12.5195 15.6588 12.5195C16.4355 12.5195 17.0651 11.8898 17.0651 11.1132V4.78913H19.781V20.2816C19.781 21.0582 20.4106 21.6878 21.1873 21.6878C21.9639 21.6878 22.5935 21.0582 22.5935 20.2816V4.78913H31.0506V11.1132C31.0506 11.8898 31.6802 12.5195 32.4568 12.5195C33.2334 12.5195 33.8631 11.8898 33.8631 11.1132V4.78913H37.099V36.1243C36.511 36.3356 35.9066 36.4453 35.2964 36.4453C34.8133 36.4453 34.3338 36.3763 33.8631 36.2434V30.0274C33.8631 29.2508 33.2334 28.6212 32.4568 28.6212C31.6802 28.6212 31.0506 29.2508 31.0506 30.0274V34.5567C30.2226 33.8348 28.978 33.854 28.1748 34.6186C28.0606 34.7268 27.9432 34.8315 27.8228 34.9328V24.9311C27.8228 24.1544 27.1931 23.5248 26.4165 23.5248C25.6399 23.5248 25.0103 24.1544 25.0103 24.9311V36.3446C24.6778 36.4109 24.3396 36.4446 24.0006 36.4453C22.5246 36.4453 21.0808 35.8134 19.8254 34.6178C18.9987 33.8303 17.7036 33.8305 16.8771 34.618C15.6225 35.8134 14.1792 36.4453 12.7034 36.4453C12.0932 36.4453 11.4888 36.3356 10.9007 36.1245V4.78913H14.2526ZM1.40625 39.2578C3.02296 39.2578 4.58699 38.7755 6.01001 37.8516C6.37444 37.6149 6.72326 37.355 7.05429 37.0735C7.3855 37.355 7.73447 37.6149 8.09904 37.8516C9.52235 38.7755 11.0866 39.2578 12.7034 39.2578C14.3202 39.2578 15.8842 38.7755 17.3071 37.8516C17.6716 37.6149 18.0204 37.355 18.3515 37.0735C18.6827 37.355 19.0316 37.6149 19.3962 37.8516C20.8196 38.7755 22.3838 39.2578 24.0006 39.2578C25.6173 39.2578 27.1816 38.7755 28.6049 37.8516C28.969 37.6151 29.3176 37.3556 29.6484 37.0746C29.9793 37.3556 30.3279 37.6151 30.692 37.8516C32.1154 38.7755 33.6797 39.2578 35.2964 39.2578C36.9132 39.2578 38.4771 38.7755 39.9002 37.8516C40.2646 37.6149 40.6134 37.355 40.9444 37.0735C41.2757 37.355 41.6246 37.6149 41.9892 37.8516C43.4126 38.7755 44.9769 39.2578 46.5936 39.2578C47.3702 39.2578 47.9999 38.6282 47.9999 37.8516C47.9999 37.0749 47.3702 36.4453 46.5936 36.4453C45.1176 36.4453 43.6739 35.8134 42.4185 34.6178C41.7273 33.9595 40.7099 33.8538 39.9115 34.2961V4.78913H40.9311C41.7077 4.78913 42.3374 4.15951 42.3374 3.38289C42.3374 2.60627 41.7077 1.97664 40.9311 1.97664H7.06864C6.29201 1.97664 5.66239 2.60627 5.66239 3.38289C5.66239 4.15951 6.29201 4.78913 7.06864 4.78913H8.08826V34.2968C7.28951 33.8536 6.27111 33.9593 5.57998 34.618C4.32524 35.8134 2.88196 36.4453 1.40625 36.4453C0.629623 36.4453 0 37.0749 0 37.8516C0 38.6282 0.629623 39.2578 1.40625 39.2578Z" fill="#431D05"/>
<path d="M46.5936 43.2109C45.1176 43.2109 43.6739 42.579 42.4185 41.3833C41.5918 40.596 40.2967 40.596 39.4701 41.3837C38.2155 42.5791 36.7722 43.2109 35.2965 43.2109C33.8208 43.2109 32.3774 42.5793 31.1223 41.3842C30.296 40.5976 29.0013 40.5973 28.1748 41.3842C26.9197 42.5793 25.4762 43.2109 24.0006 43.2109C22.5246 43.2109 21.0808 42.579 19.8254 41.3833C18.9989 40.5961 17.7039 40.5959 16.877 41.3837C15.6225 42.5791 14.1793 43.2109 12.7034 43.2109C11.2274 43.2109 9.78363 42.579 8.52832 41.3833C7.70163 40.596 6.40648 40.596 5.57998 41.3837C4.32524 42.5791 2.88205 43.2109 1.40625 43.2109C0.629623 43.2109 0 43.8406 0 44.6172C0 45.3938 0.629623 46.0234 1.40625 46.0234C3.02305 46.0234 4.58708 45.541 6.01001 44.6171C6.37446 44.3804 6.7233 44.1206 7.05439 43.8392C7.38555 44.1206 7.73449 44.3805 8.09904 44.6171C9.52235 45.541 11.0866 46.0234 12.7034 46.0234C14.3203 46.0234 15.8843 45.541 17.3072 44.6171C17.6717 44.3805 18.0205 44.1206 18.3515 43.8392C18.6827 44.1206 19.0317 44.3805 19.3963 44.6171C20.8196 45.541 22.3839 46.0234 24.0006 46.0234C25.6173 46.0234 27.1816 45.541 28.6049 44.6171C28.9691 44.3807 29.3177 44.1212 29.6485 43.8401C29.9794 44.1212 30.3279 44.3807 30.6921 44.6171C32.1154 45.5411 33.6797 46.0234 35.2965 46.0234C36.9133 46.0234 38.4774 45.541 39.9003 44.6171C40.2647 44.3805 40.6135 44.1206 40.9445 43.8392C41.2757 44.1206 41.6247 44.3805 41.9892 44.6171C43.4125 45.541 44.9768 46.0234 46.5936 46.0234C47.3702 46.0234 47.9999 45.3938 47.9999 44.6172C47.9999 43.8406 47.3702 43.2109 46.5936 43.2109Z" fill="#431D05"/>
</g>
</svg>
