<svg width="48" height="48" viewBox="0 0 48 48" fill="none" xmlns="http://www.w3.org/2000/svg">
<path d="M12.5863 10.414L19.5863 17.414C19.8313 17.6581 20.1354 17.8346 20.4689 17.9263C20.8023 18.018 21.1539 18.0217 21.4893 17.9371C21.8246 17.8526 22.1323 17.6825 22.3824 17.4436C22.6325 17.2047 22.8165 16.9051 22.9163 16.574L25.9163 6.57395C26.02 6.22811 26.0281 5.86065 25.9398 5.51057C25.8515 5.16049 25.67 4.84084 25.4147 4.58554C25.1594 4.33024 24.8398 4.14881 24.4897 4.0605C24.1396 3.97219 23.7722 3.9803 23.4263 4.08395L13.4263 7.08395C13.0959 7.18478 12.7972 7.36921 12.559 7.61939C12.3208 7.86957 12.1513 8.17701 12.0668 8.51195C11.9823 8.84689 11.9857 9.19797 12.0768 9.53119C12.1678 9.86441 12.3433 10.1685 12.5863 10.414Z" fill="#FEC820"/>
<path d="M9.9197 16.3139C6.5037 19.3159 6.0157 24.6499 8.8237 28.2499C11.6517 31.8739 16.8037 32.4639 20.3357 29.5659L30.0957 21.5579C30.5334 21.1983 31.039 20.9304 31.5823 20.7702C32.1256 20.61 32.6956 20.5607 33.2584 20.6253C33.8211 20.6898 34.3652 20.8669 34.8581 21.146C35.351 21.4251 35.7828 21.8005 36.1277 22.2499C37.6257 24.1699 37.3617 27.0499 35.5417 28.6499L33.4557 30.4819C32.6377 31.2019 32.5437 32.4619 33.2437 33.3019C33.9437 34.1419 35.1757 34.2379 35.9937 33.5179L38.0797 31.6859C41.4957 28.6819 41.9857 23.3539 39.1737 19.7499C36.3497 16.1299 31.1897 15.5379 27.6617 18.4339L17.9017 26.4419C17.4642 26.802 16.9587 27.0703 16.4153 27.2308C15.8719 27.3913 15.3017 27.4408 14.7388 27.3762C14.1759 27.3116 13.6317 27.1343 13.1388 26.8549C12.6459 26.5755 12.2143 26.1997 11.8697 25.7499C10.3757 23.8339 10.6377 20.9499 12.4557 19.3499L13.5397 18.5199C14.3577 17.7999 14.4597 16.5399 13.7597 15.6999C13.5953 15.5007 13.3925 15.3367 13.1634 15.2174C12.9344 15.0982 12.6837 15.0261 12.4263 15.0056C12.1688 14.9851 11.9099 15.0165 11.6649 15.098C11.4198 15.1794 11.1936 15.3093 10.9997 15.4799L9.9197 16.3139Z" fill="#FEC820"/>
<path d="M20 38C20 36.4087 20.6321 34.8826 21.7574 33.7574C22.8826 32.6321 24.4087 32 26 32C27.5913 32 29.1174 32.6321 30.2426 33.7574C31.3679 34.8826 32 36.4087 32 38C32 39.5913 31.3679 41.1174 30.2426 42.2426C29.1174 43.3679 27.5913 44 26 44C24.4087 44 22.8826 43.3679 21.7574 42.2426C20.6321 41.1174 20 39.5913 20 38Z" fill="#FEC820"/>
</svg>
