<svg width="49" height="48" viewBox="0 0 49 48" fill="none" xmlns="http://www.w3.org/2000/svg">
<g clip-path="url(#clip0_1282_24129)">
<path d="M12.6767 14.4013H16.4539L20.3763 27.5518L24.2987 14.4013H28.6306L22.4102 33.5853H18.6198L14.5653 20.7023L10.5108 33.5853H6.72042L0.5 14.4013H4.83184L8.75428 27.5518L12.6767 14.4013Z" fill="#5D5D5D"/>
<path d="M40.5231 14C41.518 14 42.4645 14.1338 43.3625 14.4013C44.2606 14.66 44.9958 14.9766 45.5681 15.3512C46.1492 15.7258 46.6598 16.1003 47.1001 16.4749C47.5491 16.8495 47.8705 17.1661 48.0642 17.4247L48.3679 17.8261L45.7926 20.4348C45.7398 20.3634 45.6649 20.2653 45.5681 20.1405C45.48 20.0067 45.2731 19.7837 44.9474 19.4716C44.6304 19.1594 44.2826 18.8874 43.904 18.6555C43.5254 18.4147 43.028 18.1962 42.4116 18C41.7953 17.7949 41.1658 17.6923 40.5231 17.6923C38.7534 17.6923 37.2742 18.2943 36.0856 19.4983C34.897 20.7023 34.3027 22.2007 34.3027 23.9933C34.3027 25.786 34.897 27.2843 36.0856 28.4883C37.2742 29.6923 38.7534 30.2943 40.5231 30.2943C41.2098 30.2943 41.8658 30.2007 42.4909 30.0134C43.1248 29.8172 43.6487 29.5897 44.0625 29.3311C44.4763 29.0635 44.8417 28.796 45.1587 28.5284C45.4756 28.2609 45.7046 28.029 45.8454 27.8328L46.0567 27.5518L48.5 30.1605C48.4296 30.2676 48.3195 30.4103 48.1698 30.5886C48.029 30.7581 47.7076 31.0658 47.2057 31.5117C46.7127 31.9487 46.18 32.3367 45.6077 32.6756C45.0442 33.0056 44.3002 33.3088 43.3757 33.5853C42.4601 33.8618 41.5092 34 40.5231 34C37.6352 34 35.1963 33.0234 33.2065 31.0702C31.2255 29.1081 30.2349 26.7492 30.2349 23.9933C30.2349 21.2375 31.2255 18.8829 33.2065 16.9298C35.1963 14.9766 37.6352 14 40.5231 14Z" fill="#5D5D5D"/>
</g>
<defs>
<clipPath id="clip0_1282_24129">
<rect width="48" height="48" fill="white" transform="translate(0.5)"/>
</clipPath>
</defs>
</svg>
